<svg width="513" height="670" viewBox="0 0 102 134.7" xmlns="http://www.w3.org/2000/svg"><g fill="#252525"><path d="m75.9 96.9c-.3-.1-.6-.2-.9-.2s-.6 0-.9.1c-.1 0-.3.1-.4.2-.1 0-.2.2-.3.3-.1.2-.1.3-.1.5 0 .1.1.3.2.4.2.2.5.3.8.4-.3-.2-.5-.4-.6-.6-.1-.1-.1-.2-.1-.3.3.3.8.5 1.4.5.6.1 1.2-.1 1.4-.3 0 .1 0 .2-.1.3-.1.2-.3.4-.6.5.3 0 .6-.1.8-.3.2-.1.3-.2.3-.4s0-.3-.1-.5c-.2-.3-.5-.5-.8-.6z"/><path d="m64.1 93.4c-.9-.1-1.7.1-1.9.5.4.8 1.6.9 2.4.9.2 0 .5-.1.6-.1-.1.1-.4.3-.8.5.7 0 1.3-.3 1.4-.7 0-.1 0-.2-.1-.3-.2-.4-.8-.8-1.6-.8z"/><path d="m67.7 98.7c-.3-.1-.7-.1-1-.1-.3.1-.7.1-1 .3-.1.1-.2.1-.3.2-.1 0-.1.1-.2.1-.1.1-.2.2-.3.4s-.1.4-.1.6c0 .1.2.3.3.4.2.2.6.3.9.3-.3-.1-.6-.3-.8-.5 0-.1-.1-.2-.1-.3.3.2.8.3 1.5.3h.2c.8 0 1.4-.3 1.6-.6 0 .2 0 .3-.1.4-.2.2-.4.4-.7.6.3-.1.7-.2.9-.5.1-.1.2-.3.2-.5 0-.1-.1-.3-.2-.5s-.2-.3-.4-.4-.3-.2-.4-.2z"/><path d="m73.4 100.8c-.4-.1-.7-.1-1.1 0-.3.1-.7.2-1 .4-.1.1-.3.3-.4.4s-.2.3-.3.5v.4.2c.1.2.2.4.4.5.3.2.6.3 1 .3-.4-.1-.7-.3-.9-.5-.1-.1-.2-.2-.2-.3v-.1c0-.1 0-.1 0-.1s.1.1.2.1c.4.2 1 .2 1.6.1.3-.1.6-.2.8-.3.4-.2.7-.4.8-.6.1.2.1.3 0 .5-.1 0-.1.1-.1.1-.1.3-.4.5-.6.7.4-.2.7-.4.9-.7 0-.1 0-.1 0-.1 0-.2.1-.3.1-.5s-.1-.4-.2-.6c-.2-.2-.3-.3-.5-.4s-.4-.2-.5 0z"/><path d="m70.6 94.5c-.3-.1-.7-.1-1-.1-.4.1-.7.1-1 .3-.1.1-.3.2-.4.3s-.2.2-.3.4v.5c.1.1.2.3.3.4.3.2.6.3.9.3-.3-.1-.5-.3-.7-.5-.1-.1-.1-.2-.1-.3.3.2.9.4 1.6.3s1.3-.3 1.5-.6c0 .1 0 .3-.1.4-.1.2-.3.4-.6.6.3-.1.6-.2.8-.5.1-.2.2-.3.2-.5s0-.3-.1-.5c-.2-.3-.5-.5-1-.5z"/><path d="m59 112.8c-.1.1-.1.3-.1.6s.2.5.3.5c.1-.1.2-.3.1-.6-.1-.2-.2-.5-.3-.5z"/><path d="m75.5 121.2h.1.2c.1 0 .2 0 .3-.1.1 0 .2-.1.2-.1.3-.2.5-.4.6-.7-.1.1-.3.2-.4.3-.2.1-.3.1-.4.2s-.1.1-.2.1c.3-.3.6-.7.9-1.2s.5-1 .5-1.4v.1c.1.2.1.3.1.5v.4c.1-.1.2-.2.2-.4.1-.2.1-.3.1-.5 0-.1 0-.1 0-.1 0-.1 0-.1 0-.2 0 0 0-.1-.1-.2s-.2-.1-.3-.1-.2.1-.3.1c-.1.1-.3.2-.4.3s-.2.2-.3.3c-.2.3-.4.5-.5.8l-.3.9c-.1.2-.1.3-.1.5 0 .1 0 .3.1.5.1.1.2.1 0 0z"/><path d="m71.9 125.7c.1 0 .3 0 .4-.1.3-.1.5-.3.7-.5-.2.1-.5.2-.7.2-.1 0-.1 0-.2 0 .2 0 .4-.1.6-.3.2-.1.3-.2.5-.4s.4-.4.5-.6c.1-.1.1-.3.2-.4v.1.1c0 .2 0 .5-.1.7l.3-.3c.1-.1.2-.3.2-.4s0-.3 0-.4v-.1c0-.1-.1-.2-.2-.2 0 0-.1 0-.2 0s-.3 0-.4.1c-.2.1-.3.1-.4.2-.2.1-.4.3-.6.5s-.4.5-.5.7c-.1.1-.2.3-.2.4v.5c.1 0 .1.1.1.2.1 0 .2 0 0 0z"/><path d="m68.6 128.7c.3-.1.5-.1.7-.2-.1 0-.1 0-.2 0s-.3 0-.4-.1c-.1 0-.1 0-.1 0h.1c.2-.1.5-.1.8-.3s.5-.4.7-.6c0 .1 0 .3-.1.4 0 0-.1.1-.1.2.1 0 .2-.1.3-.2s.1-.2.2-.3c0-.1 0-.3 0-.4-.1-.1-.2-.2-.3-.3s-.3-.1-.4-.1-.3 0-.4 0c-.3.1-.5.2-.7.3s-.4.3-.6.5c-.1.1-.2.2-.2.3v.4c0 .1.1.2.2.3.2.1.3.1.5.1z"/><path d="m64.7 131.1c-.1 0-.2-.1-.3-.1 0 0-.1 0-.2-.1-.1 0-.1 0-.1 0 .2 0 .5 0 .8-.1.4-.1.6-.3.8-.4 0 0-.1.1-.1.2-.1.1-.1.2-.2.3.2-.1.4-.2.5-.4v-.1c.1-.1.1-.2.1-.3v-.1c0-.1 0-.1-.1-.2 0-.1-.1-.1-.1-.1s-.1-.1-.2-.1c-.1-.1-.2-.1-.3-.1-.3 0-.5 0-.7.1s-.4.2-.6.3c-.1.1-.3.3-.3.5v.1c0 .1.1.1.1.2l.1.1c.1 0 .2.1.3.1.3 0 .5 0 .5.2z"/><path d="m59.5 114.2s-.1.1-.2.3c0 .2 0 .4.1.4 0 0 .1-.1.2-.3s.1-.4-.1-.4z"/><path d="m79 115.7c.2 0 .3-.1.3-.1l.3-.3c.2-.3.3-.6.4-.9 0 .1-.1.2-.2.3-.1.2-.3.4-.4.5l-.1.1c0 .1-.1.1-.1.1s0-.1.1-.2c.2-.3.3-.8.5-1.3.2-.6.3-1.1.3-1.5 0-.1 0-.1 0-.2v.1c.1.2.2.5.2.7.1.1.1.2.1.3.1-.2.1-.3.1-.5 0-.1 0-.3 0-.4v-.1c0-.1-.1-.2-.1-.3-.1-.1-.1-.1-.2-.2-.1 0-.1 0-.1 0-.1 0-.1 0-.2 0h-.1c-.1 0-.2 0-.3.1-.2.1-.3.3-.4.4s-.2.2-.3.4c-.2.3-.3.7-.4 1s-.2.7-.2 1v.5c.1.1.1.2.1.3.1 0 .1.1.1.1l.1.1c.1.1.2.2.5 0z"/><path d="m80 109.7h.1c.2 0 .2 0 .3-.1.2-.2.2-.3.3-.5.1-.3.2-.7.2-1-.1.3-.2.6-.4.8-.1.1-.1.1-.2.2.1-.4.3-1 .3-1.7.1-.7 0-1.3-.1-1.7l.1.1c.1.1.1.2.2.3.1.2.2.4.3.6 0-.2 0-.3 0-.5s0-.3-.1-.5c0-.1-.1-.1-.1-.2s0-.1 0-.1c-.1-.1-.2-.2-.3-.2s-.1 0-.1 0h-.1c-.1.1-.1 0-.2.1s-.1.1-.2.2c-.2.2-.2.3-.3.5s-.2.3-.2.5c0 .3-.1.5-.1.8v.2c0 .3 0 .7.1 1 0 .2 0 .3.1.5 0 0 .1.1.1.2l.1.1.1.1c.1 0 .1 0 .1.3z"/><path d="m80.2 103c.1-.2.2-.3.2-.5.1-.4.1-.7 0-1-.1.3-.2.6-.3.9-.1.1-.1.2-.2.3.1-.4.1-1-.1-1.6s-.4-1.1-.7-1.4c.1.1.1.1.2.1.2.1.5.4.7.6 0-.1-.1-.3-.2-.4s-.2-.3-.3-.4-.2-.2-.3-.2-.1 0-.2 0c-.2 0-.4.1-.5.3-.1.1-.2.3-.2.4-.1.2-.1.4-.1.6 0 .3 0 .7.1 1s.2.6.4.9c.1.1.2.3.3.4.1.2.3.3.5.3s.4-.1.7-.3z"/><path d="m65.4 126.3c-.1 0-.2 0-.3 0-.2 0-.3 0-.5 0s-.5.1-.7.2c-.1 0-.2.1-.3.2 0 .1-.1.2-.1.3v.1c0 .1 0 .3.1.4s.2.1.3.2c.2.1.5.1.7.1-.3-.1-.5-.3-.6-.4l-.1-.1c.3.1.6.1 1 .1s.7-.2.9-.3c0 .2-.2.3-.4.5.1 0 .2 0 .3-.1.1 0 .2-.1.3-.2s.2-.3.2-.4 0-.3-.1-.4c-.1-.2-.2-.2-.3-.3-.1 0-.2-.1-.4.1z"/><path d="m61.4 127.3c-.2-.1-.5-.1-.7 0-.3.1-.5.2-.7.3l-.1.1-.2.2c-.1.1-.2.3-.2.4 0 .2 0 .3.1.4s.2.2.3.2h.1.6c-.3-.1-.5-.2-.6-.3s-.1-.1-.1-.1h.1c.3.1.6.1.9 0 .4 0 .7-.2.9-.3 0 .1-.1.3-.3.5.1 0 .2 0 .3-.1.1 0 .2-.1.3-.2 0-.1.1-.2.1-.3s0-.1 0-.2-.1-.2-.1-.2c-.1-.1-.2-.2-.3-.2-.2 0-.3-.1-.4-.2z"/><path d="m59.6 131.5c.3.1.5.2.8.1-.1-.1-.2-.1-.3-.2-.1 0-.1 0-.2-.1h.7.1c.2 0 .4-.1.6-.2 0 .1 0 .1-.1.2-.1 0-.1.1-.2.2.1-.1.3-.2.5-.3 0-.1.1-.2.1-.3v-.1s0-.1-.1-.2-.2-.2-.3-.2-.2-.1-.3-.1c-.2 0-.4 0-.6 0s-.4.1-.6.2-.4.2-.4.5v.2c0 .1.1.2.1.2.1 0 .1.1.2.1 0 0 .1.1 0 0z"/><path d="m57.7 128.3c-.2 0-.4 0-.6 0s-.4 0-.6.1c-.1 0-.2 0-.3.1s-.1.2-.2.3v.2c.1 0 .1.1.1.1v.1c.1.1.2.2.3.2.2.1.4.1.6.1-.1-.1-.3-.2-.4-.3.2.1.4.1.7.1s.5 0 .7-.1l-.3.3h.3c.1 0 .2 0 .3-.1s.2-.2.2-.3 0-.2-.1-.3c0 0 0 0-.1-.1-.2-.1-.3-.2-.6-.4z"/><path d="m55.9 131.5c.2.1.4.1.7.1s.5 0 .7-.1c-.1.1-.2.2-.3.3h.2.1c.1 0 .2 0 .3-.1s.2-.2.2-.3c0-.2 0-.3-.1-.4-.1-.2-.3-.2-.5-.3s-.4-.1-.6-.1-.4 0-.6.1-.4.2-.5.4v.3.1c.1.1.2.2.3.2.2.1.4.1.6.1-.2-.2-.4-.3-.5-.3z"/><path d="m70 123.2c-.2 0-.4 0-.5 0s-.3.1-.4.1c-.2.1-.5.2-.7.4-.3.2-.4.4-.6.6-.1.1-.2.3-.2.4 0 .2-.1.3 0 .5 0 .1.2.2.3.3h.4c.2 0 .5-.1.7-.3-.3 0-.6 0-.8 0-.1 0-.1-.1-.2-.1.3-.1.7-.2 1.1-.5s.7-.6.8-.9v.1c0 .2-.1.4-.2.7l.3-.3c.1-.1.2-.3.2-.4.1-.2.1-.3 0-.5-.1-.1-.3-.2-.2-.1z"/><path d="m72.9 118.9c-.2-.1-.4 0-.5 0-.1.1-.3.1-.4.2-.3.1-.5.3-.7.5s-.4.4-.5.7c0 .1-.1.3-.1.4 0 .2 0 .4.1.5.1.2.2.3.4.3h.3.2c.3-.1.5-.2.7-.4-.3 0-.6.1-.8.1-.1 0-.1 0-.2 0 .3 0 .7-.3 1-.6.4-.3.6-.7.7-1v.1c.1.3.1.5 0 .8.1-.1.1-.2.2-.3 0-.1.1-.3.1-.4 0-.2 0-.4-.1-.5s-.3-.2-.4-.4z"/><path d="m74.9 109c0 .2.1.4.2.6.2.2.4.4.6.4.1 0 .2-.1.3-.1.1-.1.2-.1.3-.2.2-.2.3-.3.4-.5.1-.3.2-.7.3-1.1-.2.4-.4.7-.6 1-.1.1-.3.2-.4.3 0 .1-.1.1-.1.1.2-.4.5-1.2.6-2 0-.8 0-1.4-.2-1.8.1 0 .1.1.2.1.1.1.2.2.3.4 0 .1.1.2.1.3s.1.2.1.3c0-.2-.1-.4-.1-.6s-.1-.4-.2-.6c0-.1-.1-.1-.2-.2s-.2-.1-.3-.1c-.3 0-.4.2-.6.3s-.3.3-.4.5-.1.4-.2.6c-.1.4-.2.8-.2 1.2-.1.4 0 .8.1 1.1z"/><path d="m73.3 116.4c0 .1 0 .3.1.5v.1l.1.1c.1 0 .1.1.2.1h.3c.2-.1.3-.2.5-.3s.3-.2.4-.4c.2-.3.4-.7.5-1-.3.3-.5.6-.8.8-.1.1-.3.2-.4.3h-.1c.4-.4.7-1 1-1.7.3-.8.4-1.4.3-1.7h.1c.1.1.2.2.2.4.1.1.1.3.1.3v.3c.1-.2.1-.4.1-.6s-.1-.4-.2-.6c-.1-.1-.2-.2-.3-.2s-.2 0-.3 0c-.2.1-.3.2-.5.3-.1.1-.3.3-.4.4-.1.2-.2.3-.3.5-.2.3-.4.6-.5 1-.2.3-.2.7-.1 1.4z"/><path d="m30.8 5.7s-.1-.1-.3 0c-.1-.1-.2-.1-.3-.1s-.1 0-.2 0h-.1c.1 0 .2.1.3.1s.2 0 .2.1c-.1-.2-.5-.2-1-.1 0 0-.1 0-.2 0-.2.1-.4.1-.5.2-.4.1-.6.3-.6.5v-.1s0-.1.1-.2l.1-.1.1-.1c-.1 0-.2 0-.3.1l-.1.1s-.1 0-.1.1c-.1.1-.1.2-.1.2v.2c.1.1.2.2.3.2.4.2.9.1 1.3 0 .5-.1.9-.3 1.2-.6 0-.1.1-.1.1-.2 0 0 .1 0 .1-.1 0 0 0-.1 0-.2z"/><path d="m19.9 13.9c-.1-.1-.1-.1-.2 0s-.2.2-.2.3c.1-.1.4-.1.2-.1s-.3.2-.4.5c-.1.2-.1.5-.1.6 0-.1-.1-.1-.1-.2v.1.3c.1 0 .1.1.1.1h.1.1c0-.1.1-.1.1-.1.2-.2.3-.4.4-.6s.1-.5.1-.7c0-.1-.1-.1-.1-.2z"/><path d="m20.7 11.5c0-.1-.1-.1 0 0-.1 0-.1.1-.2.2.1-.1.1-.1.2-.2-.1.2-.3.4-.4.6s-.1.5-.1.6c-.1 0-.1-.1-.1-.2-.1.1-.1.2-.1.3v.1h.1c.1.1.1 0 .2 0l.2-.2s.1-.2.2-.3c0-.1.1-.3.1-.4s0-.2 0-.3c0 0 0-.1-.1-.2z"/><path d="m35.5 5.3c0 .1 0 .1 0 0-.2-.2-.7-.3-1.4-.4-.6 0-1.1.2-1.2.4.1-.1.1-.1.2-.2 0-.1.1-.1.2-.2h-.1c-.1 0-.1 0-.2 0s-.2 0-.3.1c0 .1-.1.1-.1.2v.1.1l.2.2c0 .1.1.1.1.1.4.2.9.3 1.3.3.5 0 .9-.1 1.3-.3.1 0 .1 0 .2-.1l.1-.1c.1-.1.1-.1.1-.2l-.1-.1c-.1-.1-.2-.2-.3-.2-.1-.1-.2-.1-.3-.1 0 .1.1.1.2.2 0 .1.1.1.1.2z"/><path d="m31.2 7.7c.1-.2.2-.4.4-.4-.1 0-.2.1-.3.1-.1.1-.2.1-.3.2s-.2.3-.2.3v.4c.1.1.1.2.2.3s.2.1.3.2c.2.1.4.2.6.2.5.1.9 0 1.3-.3.2-.2.4-.4.4-.6 0-.3-.1-.5-.3-.6 0 .2 0 .4-.1.5 0-.3-.5-.6-1.1-.6-.4 0-.7.1-.9.3 0-.1 0-.1 0 0z"/><path d="m27.8 8c0 .1 0 .1-.2 0-.1-.3-.6-.3-1.1-.1-.1 0-.1.1-.2.1-.2.1-.3.3-.4.4 0 0 0-.1 0-.2.1-.1.1-.1.1-.2-.2.1-.3.2-.4.4v.1.2c0 .1 0 .2.1.3.2.2.4.3.6.3.2.1.4 0 .6 0 .4-.1.8-.3 1-.6.2-.2.3-.4.2-.6l-.1-.1c0-.1-.2-.2-.3-.2 0 .1.1.1.1.2z"/><path d="m22.7 10.5c0-.1 0-.1 0-.2-.1.1-.2.2-.2.4v.2s.1.2.2.2h.5c.1 0 .3-.1.4-.2.3-.1.5-.4.6-.7 0-.2 0-.3-.1-.5-.1-.1-.3-.1-.4-.1.1.1.2.1.2.2v.1c-.1-.1-.5 0-.8.3-.2.2-.3.3-.3.5-.1 0-.1-.1-.1-.2z"/><path d="m20.9 13.6c-.1.1-.1.2-.1.4 0 0 0 .1.1.2 0 0 .1.1.2.1.2 0 .4 0 .5-.1s.2-.2.3-.3c.2-.2.3-.5.3-.8 0-.1-.1-.3-.2-.4s-.3-.1-.4 0c.1 0 .2.1.2.1v.1c-.2-.1-.5.1-.7.4-.1.2-.2.4-.2.5 0-.1 0-.2 0-.2z"/><path d="m37.8 9c0-.1 0-.2-.1-.3-.1-.2-.3-.4-.5-.5-.4-.3-.9-.4-1.3-.3-.2.1-.5.2-.6.4s-.1.4 0 .6c.1-.2.2-.3.3-.4-.2.3.2.8.7 1 .3.2.7.2.9.1-.1.1-.3.2-.5.3.2.1.4.1.6 0 .1-.1.2-.1.3-.2s.2-.2.2-.3c.1-.1.1-.3 0-.4z"/><path d="m38.5 14.8c-.1 0-.2 0 0 0-.3 0-.4.1-.6.2-.2 0-.3.1-.4.3-.1.1-.2.3-.2.4-.1.2-.1.3 0 .5-.1-.1-.1-.1-.1-.1s-.1-.1-.1-.2-.1-.2-.1-.3c-.1.2-.1.4-.1.6v.1c0 .1 0 .2.1.3s.2.1.3.2c.2.1.5.2.7.1.2 0 .4-.1.6-.3.3-.3.5-.8.4-1.3 0-.2 0-.3-.1-.4s-.1-.2-.2-.3c-.1 0-.1-.1-.2-.1-.1-.1-.3-.1-.4-.1.2.1.3.3.4.4z"/><path d="m33.6 22.5c-.1.2-.1.3 0 .5.1.1.1.2.2.2h.1.2c.1 0 .1-.1.2-.1 0-.1.1-.1.2-.2s.2-.3.3-.4c.1-.3.2-.7.1-1 0-.1-.1-.1-.1-.2 0-.2-.1-.2-.2-.3-.1 0-.3 0-.4.1.1.1.1.1.2.1s.1.1.1.1c-.1 0-.3.1-.4.3-.1.1-.1.2-.2.4s-.1.5-.1.5v.2c-.1-.1-.2-.2-.2-.2z"/><path d="m35.2 19.7c-.1-.1-.2-.1-.3-.3v.2.3s0 .1.1.2.2.1.3.1c.2 0 .4-.1.5-.2.2-.1.3-.3.4-.4.2-.3.3-.5.3-.8 0-.1 0-.1 0-.2 0-.2-.1-.3-.2-.4l-.1-.1c-.1 0-.1 0-.2 0s-.2 0-.3.1c.1.1.1.1.2.1s.1.1.1.1 0 0-.1 0c-.2 0-.5.3-.6.6s-.2.5-.1.7z"/><path d="m37.6 21.9c0-.1-.1-.2-.1-.3-.2 0-.4 0-.5.1.1.1.2.1.3.2-.3-.1-.7.2-.9.6-.2.3-.2.5-.1.7-.1 0-.2-.1-.3-.3-.1.1-.1.3 0 .5 0 .1.1.2.2.2.1.1.2.1.3.1s.3 0 .4-.1c.2-.1.4-.2.5-.4.2-.3.4-.6.3-1 0-.1 0-.2-.1-.3z"/><path d="m38.2 20.3c.1.1.1.1.2.1h.1c.1 0 .3 0 .4-.1.2-.1.4-.3.5-.4.3-.3.5-.7.5-1.1 0-.1 0-.2-.1-.3s-.1-.2-.2-.2c-.2-.1-.4-.1-.6 0 .1.1.2.1.3.2-.3-.1-.8.2-1.1.6-.2.3-.3.6-.2.8-.1 0-.1-.2-.2-.4 0 .2-.1.4 0 .6 0 .1.1.2.2.3 0 0 .1.1.2-.1z"/><path d="m23.1 30c-.2-.2-.3-.3-.4-.3-.2-.1-.4-.1-.6-.1s-.4 0-.6.1-.4.2-.5.3c-.1.2-.2.4-.1.6s.2.3.4.4c-.1-.2-.1-.4-.1-.5.1.3.5.5.9.5.3-.1.6-.3.7-.5 0 .2-.1.3-.2.5.1-.1.3-.2.4-.4s.2-.4.1-.6c0-.1-.1-.2 0 0z"/><path d="m19.2 29.8c-.3 0-.4 0-.5.1s-.3.2-.4.3c-.1 0-.1.1-.2.2 0 .1-.1.1-.1.2v.2.1c0 .1 0 .1.1.2 0 .1.1.1.1.1 0 .1.1.1.1.1h.2c-.1 0-.2-.1-.2-.2s-.1-.3 0-.1.4.2.7 0c.2-.1.4-.3.4-.5v.3c.1-.1.2-.2.2-.4 0 0 0-.1 0-.2s-.1-.2-.2-.3c.1 0 .1 0 0 0-.1-.1-.3-.1-.2-.1z"/><path d="m16.4 34.4c.2.1.4.1.6.1.4-.1.8-.3.9-.7.1-.2.1-.4 0-.6s-.2-.3-.4-.4c.1.1.2.3.2.4v.1c0-.1 0-.1 0-.1-.2-.2-.6-.2-.9 0-.1 0-.1.1-.1.1-.1.1-.2.3-.2.4 0-.1 0-.2 0-.3.1-.1.1-.3.2-.4 0-.1 0-.1 0-.1l-.1.1-.1.1c-.1 0-.1.1-.2.2-.1.2-.1.4-.1.6 0 .1 0 .2.1.3s.1.2.1.2z"/><path d="m22 35.6c.2.1.4.1.6.1.2-.1.4-.1.6-.3.1-.1.2-.4.2-.6s-.1-.4-.3-.6c-.3-.3-.8-.4-1.2-.3-.2.1-.4.2-.5.4s-.2.4-.1.6c.1-.2.2-.4.3-.5 0-.1.1-.1.1-.1-.1 0-.1.1-.1.1-.1.4.2.8.6.9.2.1.5 0 .7-.1-.1.1-.2.2-.4.3-.1.1-.3.1-.5.1z"/><path d="m24.9 30.5c-.2 0-.3 0-.5 0-.1.1-.2.1-.3.2s-.2.2-.2.3c0 .3 0 .5.1.7 0-.2.1-.4.2-.5h.1c-.2.4.1.9.6 1.2.5.2 1 .2 1.2-.1 0 .1 0 .1-.1.2s-.3.2-.5.3c.2 0 .5 0 .7-.1s.3-.2.4-.4c0-.1.1-.1.1-.2s0-.3 0-.4c-.1-.1-.1-.2-.2-.3-.1-.2-.3-.4-.5-.5s-.4-.2-.6-.3c-.1 0-.2 0-.5-.1z"/><path d="m3.8 78.7c.1.1.2.2.2.5.2.3.3.7.3 1.1.2-.4.1-.8 0-1.2-.1-.2-.2-.4-.3-.6-.2-.2-.4-.4-.6-.4-.1-.1-.3 0-.4 0s-.2.1-.3.2c-.2.2-.3.4-.3.6 0 .4 0 .8.2 1.2 0-.4 0-.8.1-1.1.1-.1.2-.3.3-.4.1 0 .1-.1.2-.1h.2c.1 0 .3.1.4.2z"/><path d="m8 84.8c-.3-.1-.6 0-.7.2-.1 0-.1.2-.1.1s-.1-.1-.1-.1c-.1 0-.1-.1-.2-.1s-.1-.1-.2-.1c.1.1.2.3.4.4 0 0 0 .1.1.1.1.1.1.1.2.1.1.1.1.1.2.1h.1.1c.4.1.8-.1.8-.3 0-.3-.3-.5-.6-.4z"/><path d="m4.5 82.8c.4.3.8.3 1 0 .1-.2 0-.5-.2-.7h-.1c-.4 0-.6.3-.6.3s-.4.1-.6-.4c-.1.3 0 .7.5.8z"/><path d="m3.3 79.7c0 .2.1.4.3.4.1 0 .2-.3.2-.5s-.1-.4-.3-.4-.3.2-.2.5z"/><path d="m5 77.4c.2-.1.2-.3.2-.5-.1-.2-.3-.3-.4-.3-.2.1-.2.3-.2.5s.2.3.4.3z"/><path d="m26.3 118.9c-.3 0-.4 0-.6.1h-.1c-.1.1-.2.2-.2.3s0 .2.1.3c0-.1.1-.2.1-.2h.1c.2.5 1.1.8 1.6.9-.1 0-.1 0-.1 0-.2.1-.3.1-.5.1.1.1.3.2.5.2h.3s.2-.1.3-.2c0-.1 0-.1 0-.2s0-.1 0-.2 0-.1-.1-.2c-.1-.2-.2-.3-.4-.4-.2-.2-.5-.3-1-.5z"/><path d="m27.3 117.3c-.2-.2-.3-.3-.5-.5-.4-.1-.8-.2-1.2-.2-.2 0-.4.1-.6.2-.1 0-.1 0-.1 0 0 .1-.1.1-.1.2s0 .1 0 .2 0 .2.1.3c0-.1 0-.1 0-.2s.1-.1.1-.1c0 .2.2.4.4.5.5.2 1.1.4 1.5.4 0 .1-.1.1-.1.1-.1 0-.3.1-.5.1.2.1.4.1.6.1.1 0 .2 0 .3-.1.2-.1.3-.2.3-.3.1-.1.1-.3 0-.4s-.1-.2-.2-.3z"/><path d="m29.5 121.4c0 .2.1.3.2.3 0-.1 0-.2 0-.3l.1-.1c.4.5 1.5.6 2.1.5l-.1.1c-.1.1-.3.1-.5.2.2.1.4.1.6 0 .1-.1.2-.1.3-.2 0 0 .1-.1.1-.2s0-.1 0-.2 0-.1 0-.2-.1-.2-.1-.2c-.1-.1-.2-.1-.3-.2 0-.1-.1-.1-.1-.1-.2-.1-.3-.2-.5-.2-.1 0-.2 0-.3 0-.3 0-.6 0-.9.1-.1 0-.3.1-.4.2l-.1.1c0 .1-.1.2-.1.4z"/><path d="m28.9 118.8c0 .1.1.2.2.3 0-.1 0-.2 0-.3l.1-.1c.4.7 1.7.8 2.4.7 0 0 0 .1-.1.1-.2.1-.4.1-.6.2.2.1.5.1.7 0 .1-.1.2-.1.3-.2s.2-.2.2-.4c0-.1 0-.3-.1-.4s-.2-.2-.3-.3c-.2-.1-.4-.2-.6-.3-.5-.1-.9-.1-1.4 0-.2 0-.4.1-.6.3-.1.1-.1.2-.2.4z"/><path d="m39.1 93.8c-.2-.1-.4-.2-.7-.1-.1.1-.3.2-.3.3s0 .3 0 .3v.1c0-.1 0-.1.1-.2 0-.1.1-.1.2-.1h.1c-.1.3 0 .7.2 1 .1.1.2.3.3.4.2.3.5.6.7.7 0 0-.1 0-.2 0h-.1c-.1 0-.2-.1-.3-.1-.1-.1-.1-.1-.2-.1l.2.2c.1.1.2.1.3.2s.3.1.4.1c.2 0 .3-.1.4-.2s.2-.3.2-.4 0-.3 0-.4c0-.3-.1-.5-.2-.7-.2-.4-.6-.7-1.1-1z"/><path d="m39 99.2c0-.1-.1-.1 0 0-.2-.1-.3-.1-.4-.1s-.1 0-.1 0c-.1.1-.2.3-.2.3v.3c0-.1.1-.2.1-.3s.1-.2.1-.2h.1.1v.2c0 .4.3.8.5 1.2.2.3.4.6.6.7-.1.1-.1.1-.2.1s-.1 0-.2 0-.2 0-.3-.1c.1.1.2.2.4.3h.1c.1 0 .2 0 .3-.1s.2-.2.2-.3v-.1c.1-.2 0-.3 0-.5 0-.1-.1-.3-.2-.5s-.3-.3-.4-.5c-.1-.1-.2-.2-.4-.3 0 0-.1 0-.1-.1z"/><path d="m41.1 103.3c-.2-.1-.3-.1-.5 0-.1 0-.3.2-.3.3v.4c0-.1.1-.1.1-.2.1 0 .1-.1.1-.1 0-.1.1-.2.2-.2s.1 0 .1 0h.2c-.3 1 .7 2.8 1.3 3.2-.1.1-.2.1-.3.1-.2 0-.5-.1-.7-.3.2.3.4.5.7.6.1 0 .3.1.5 0s.3-.2.4-.4c.1-.3.1-.6.1-.9s-.1-.6-.2-.9c-.2-.5-.6-1-1.1-1.4-.1-.1-.2-.2-.6-.2z"/><path d="m94.8 68.2c0 .2.2.4.4.4s.4-.2.4-.4-.2-.4-.4-.4-.4.2-.4.4z"/><path d="m96.5 65.7c-.2 0-.3.1-.3.3s.1.3.3.3.3-.2.3-.3-.1-.3-.3-.3z"/><path d="m93.9 64.2c-.2 0-.3.2-.3.4s.1.4.3.4.3-.2.3-.4-.1-.4-.3-.4z"/><path d="m92.3 64.7c0 .1.1.2.2.2s.2-.1.2-.2-.1-.2-.2-.2c-.2 0-.2.1-.2.2z"/><path d="m88.1 61.4c-.1 0-.2.1-.2.2s.1.2.2.2.2-.1.2-.2-.1-.2-.2-.2z"/><path d="m90 60.6c-.3 0-.5.2-.5.5s.2.5.5.5.5-.2.5-.5c0-.2-.2-.5-.5-.5z"/><path d="m89.7 66.3c.1 0 .2-.1.2-.2s-.1-.2-.2-.2-.2.1-.2.2c0 .2.1.3.2.2z"/><circle cx="87.5" cy="66.4" r=".2"/><path d="m86.4 64.3c-.1 0-.2.1-.2.2s.1.2.2.2.2-.1.2-.2c0-.2-.2-.3-.2-.2z"/><path d="m84.3 67.3c-.3 0-.5.2-.5.5s.2.5.5.5.5-.2.5-.5-.2-.6-.5-.5z"/><path d="m84.8 65.8c-.2 0-.3.1-.3.3s.1.3.3.3.3-.1.3-.3-.1-.3-.3-.3z"/><circle cx="69.7" cy="67.5" r=".3"/><path d="m68.3 66.8c.1 0 .2-.1.2-.2s-.1-.2-.2-.2-.2.1-.2.2c0 .2.1.2.2.2z"/><path d="m47.4 70.5c-.3 0-.6.3-.6.6s.3.6.6.6.6-.3.6-.6-.3-.6-.6-.6z"/><path d="m47.2 68.3c-.2 0-.3.1-.3.3s.1.3.3.3.3-.1.3-.3c0-.1-.1-.2-.3-.3z"/><path d="m49 70.1c-.2 0-.4.1-.4.2s.2.2.4.2.4-.1.4-.2c0-.2-.2-.2-.4-.2z"/><path d="m50.8 62.3c-.2 0-.4.1-.4.3s.2.3.4.3.4-.2.4-.3c0-.2-.2-.3-.4-.3z"/><path d="m46 59.5c-.3-.2-.5-.1-.6 0-.1.2.1.4.3.5.3.2.5.1.6 0 .1-.2-.1-.4-.3-.5z"/><path d="m49.5 46c-.2-.1-.5-.2-.6-.1-.2.2-.1.4.1.6.2.1.5.2.6.1s.1-.3-.1-.6z"/><path d="m50 77.1c-.3 0-.5.1-.5.3s.2.3.5.3.5-.1.5-.3-.2-.3-.5-.3z"/><path d="m51.2 75.1c0-.1-.2 0-.3.1s-.2.2-.1.3c0 .1.2 0 .3-.1s.2-.3.1-.3z"/><path d="m48.6 78c-.1 0-.2 0-.3.1s-.1.3-.1.3c.1 0 .2 0 .3-.1s.1-.2.1-.3z"/><ellipse cx="43.4" cy="72.3" rx=".3" ry=".1"/><path d="m45.2 57.2c-.1-.1-.3-.1-.3 0 0 0 .1.1.2.2s.3.1.3 0c.1 0 0-.1-.2-.2z"/><path d="m49 44.3c-.1 0-.1.2 0 .3 0 .2.1.2.2.2s.1-.2 0-.3-.2-.2-.2-.2z"/><path d="m91.6 76.3c-.8-.4-3.2.3-3.3 1.2-.1 1 3.1.3 3.5-.7 0-.2 0-.4-.2-.5z"/><path d="m64.2 66.6c-.7-.3-2-.9-3.4.4s0 2.9.6 3.2c0-.5.3-.7.3-.7s-.1 1.1.8 1.7c-.4-.6-.2-1.2-.2-1.2l.5.5c-.2-.5.5-2.5 1.3-3.1.6-.4 1.5-.3 1.8-.1-.7-.9-1.3-.8-1.7-.7z"/><path d="m61.2 63.7c.7 1.2 1.6 1.5 3.3 1.2.6.1 1.2.2 2.3-1-1.2.8-3 .4-4-1-1-1.3-2.3-2.3-2.3-2.3l.5 1s-.6.9.2 2.1z"/><path d="m62.7 62c.2.2.5.4.8.5l-1.3-1.5-.7-.7c-.3-.2-.5-.4-.7-.7 0 .3.2.6.4.9s.4.6.6.8c.3.3.5.5.9.7z"/><path d="m57.8 67.7c-1-.1-1.8.7-1.9 1.5 1-.4 1.4-.9 1.9-1.5z"/><path d="m41.9 34.7c1.6 1.8 4.2 5.7 4.8 6.6-1-3-2.9-6-4.8-6.6z"/><path d="m48 113.7c.2.1.4.1.6.1s.4-.2.5-.3c.1-.2.2-.3.3-.5 0-.1.1-.3.1-.5.1-.4.1-.7 0-1.1 0-.2-.1-.5-.2-.7-.2-.5-.4-.9-.8-1.2l-.1-.1c-.1-.1-.2-.2-.3-.2s-.1 0-.2 0-.3 0-.4 0c-.2 0-.4.2-.5.3s-.2.2-.2.4c.2-.3.4-.5.7-.5.1-.1.2 0 .3 0-.1 0-.1.1-.1.1-.2.3-.2.7-.2 1.1.1 1.1.6 2.2 1.1 2.6-.1.1-.3.1-.5.1-.3-.1-.6-.3-.8-.5.1.3.4.6.7.9z"/><path d="m44.8 102.8c-.2-.1-.4-.1-.6 0s-.4.3-.4.5v.5c.1-.2.1-.4.2-.5.1-.2.2-.3.3-.3h.1.2v.3c0 .3.1.7.2 1.1.3.6.7 1.3 1.1 1.8.2.3.5.6.7.7-.1.1-.2.1-.4.1-.3-.1-.6-.2-.9-.4.3.2.5.5.9.6.2.1.4.1.6 0l.1-.1c.1-.1.2-.3.3-.4.1-.3.1-.7 0-1.1-.1-.3-.2-.7-.4-1-.3-.6-.8-1.2-1.4-1.6-.2-.1-.4-.2-.6-.2z"/><path d="m43.1 98.5c-.3-.3-.7-.6-1.2-.7-.1 0-.3 0-.4 0s-.3.1-.4.2c-.1 0-.1.1-.1.1-.1.1-.1.2-.1.3s0 .2.1.3c0-.1 0-.2 0-.3.1 0 .1-.1.1-.1 0-.1.1-.1.1-.1h.2c.1.8 1.2 1.7 1.8 1.9 0 0-.1.1-.2.1s-.2 0-.3 0c-.2 0-.3 0-.4 0 .1.2.3.3.5.3h.1c.1 0 .3 0 .4-.1s.2-.3.2-.4c0-.2-.1-.5-.2-.7s-.3-.4-.2-.8z"/><path d="m43 112.1c0 .1.1.2.2.3s.2.2.3.2c-.1.1-.3.2-.5.2-.1 0-.1 0-.1 0-.1 0-.2-.1-.3-.1-.2 0-.3-.1-.5-.2.1.2.3.3.4.4s.3.2.3.2h.1.3.3c.2 0 .4-.2.5-.3.2-.3.3-.7.3-1 0-.1 0-.1 0-.1 0-.2 0-.3 0-.5s-.1-.3-.1-.4v-.1c-.2-.6-.6-1.1-1.1-1.4-.1 0-.1-.1-.2-.1-.3-.2-.7-.2-1-.1-.2 0-.3.2-.4.3-.1.2-.2.3-.2.5.1-.3.3-.6.6-.6h.3c-.3.8.2 2 .8 2.8z"/><path d="m48.1 115.5c-.1 0-.1 0 0 0-.4 0-.7.1-1 .3-.5.4-.8.9-.9 1.5.1-.3.4-.5.6-.7 0 .9.7 1.2 1.2 1.3h.1c-.1.1-.1.1-.1.1s-.1.1-.2.2c-.2.1-.4.2-.7.3.3.1.6 0 .9-.1l.1-.1c.1-.1.2-.1.3-.2.1 0 .2-.1.3-.2.1 0 .1-.1.1-.1.2-.2.3-.4.4-.7.1-.2.1-.3.1-.5 0-.1 0-.3-.1-.5 0-.1-.1-.1-.2-.2-.1 0-.1-.1-.3-.1s-.3 0-.6-.3z"/><path d="m43 122c-.1.1-.3.2-.4.3.3 0 .6-.1.8-.3l.1-.1c.1 0 .1-.1.2-.2 0-.1.1-.1.1-.2s0-.2 0-.3v-.1c-.1-.2-.1-.3-.2-.4s-.3-.2-.4-.3c-.3-.1-.6-.2-.9-.2-.1 0-.3 0-.4 0-.2 0-.3.1-.4.1s-.2.1-.3.1c-.2 0-.3.1-.5.2-.1.1-.2.2-.3.3s-.2.3-.3.4-.1.2-.1.3v.1c0 .1.1.1.1.2.1 0 .1.1.2.1-.1-.1-.1-.1-.1-.2s0-.1 0-.2l.1-.1c.1 0 .1-.1.1-.1l.1.1c.2.2.4.2.6.3.1.1.3.1.4.1h.4.4c.5-.1.9-.2 1.2-.4-.1.1-.1.2-.2.3 0 0-.1.1-.3.2z"/><path d="m35 122.2c.7.4 1.8.4 2.5.5-.1 0-.1.1-.2.1-.2.1-.5.2-.7.3.3 0 .5 0 .8-.1.2 0 .3-.1.4-.2s.2-.2.2-.3c0 0 0 0 0-.1s0-.1 0-.2c0 0 0-.1-.1-.2l-.1-.1c-.1-.1-.1-.2-.2-.2-.2-.1-.4-.2-.7-.3-.4-.1-.8-.1-1.2 0-.2 0-.3 0-.4 0-.2 0-.4.1-.5.2 0 .1-.1.1-.2.2-.1 0-.1.1-.1.1-.1.1-.1.2-.1.3s.1.2.2.3c0-.1 0-.2 0-.3s0-.1 0-.1c0-.1 0-.1.1-.2 0 .1.2.2.3.3z"/><path d="m38 118.7c-.1-.1-.2-.2-.3-.3-.3-.1-.5-.2-.8-.3-.4-.1-.8-.1-1.2-.1-.2.1-.3.1-.4.1h-.1c-.3 0-.6.2-.8.4-.1.2-.1.3-.1.5s.1.3.2.4c-.1-.2-.1-.3-.1-.4s0-.1.1-.2c.4.6 1.4.8 2.2.8.3 0 .7 0 .9-.1 0 .1-.1.1-.2.2s-.3.1-.4.2c-.1 0-.2.1-.3.1h.4c.1 0 .3-.1.4-.1s.3-.1.4-.2.2-.3.2-.5 0-.3-.1-.5z"/><path d="m42.1 115.1c-.1 0-.2 0-.3 0h-.1c-.4-.1-.7 0-1 .2-.4.2-.6.4-.8.7-.1.3-.2.7-.2 1 .1-.3.3-.6.5-.8.1-.1.2-.2.4-.3-.5.5-.7 1.2-.4 1.6.3.3.7.4 1.1.3.2 0 .3 0 .4-.1.1 0 .1-.1.2-.1-.1 0-.1.1-.2.1-.1.1-.2.2-.3.2-.3.1-.6.2-.9.1.3.1.6.1.9.1h.1s.1-.1.2-.1c.2-.1.3-.1.4-.2.1 0 .2-.1.3-.2.3-.2.5-.5.6-.9.1-.2.1-.4.1-.6s-.1-.4-.2-.6c-.2-.2-.3-.3-.5-.4-.1-.1-.2-.1-.3 0z"/><path d="m11.7 85.3c-.5.1-.7.4-.7.6.1.3.6.4 1.1.3.6-.1 1-.4.9-.7-.1-.1-.1-.1-.2-.2 0 .2-.2.3-.4.3-.2.1-.1-.3-.7-.3z"/><path d="m5.1 74.7c.1.1.3 0 .5-.2s.2-.4.1-.5-.3 0-.5.2-.2.5-.1.5z"/><path d="m5.7 80.6c.3.3.8.4 1 .2s.1-.4 0-.7c-.1-.2-.4-.4-.5-.5.2.4.3.8-.1.7-.3-.1-.5-.4-.6-.6-.1.2 0 .5.2.9z"/><path d="m8.9 82.9c.3 0 .6-.2.6-.4 0-.1-.1-.1-.2-.2-.1 0-.3-.1-.5-.1-.3 0-.6.2-.6.4h-.1c-.1-.1-.1-.1-.2-.1s-.1-.1-.2-.1c.1.2.3.3.5.4 0 0 .1.1.3.1-.1 0-.1 0 0 0z"/><path d="m11.8 83.8c.3 0 .6-.1.9-.3.1-.1.2-.2.3-.4 0 0 0-.1 0-.2 0 0 0-.1-.1-.2s-.3-.2-.4-.2c-.2-.1-.4 0-.5 0 .1 0 .3 0 .4.1-.2 0-.6.1-.8.3s-.2.4-.1.6h-.1c-.2 0-.3-.1-.4-.2 0 .1.2.2.3.3.2.1.3.1.5.2z"/><path d="m14.8 82.7c0 .1.2.2.4.2s.3-.1.5-.1c.1 0 .3-.1.4-.2 0 0 0-.1.1-.1.1-.1.2-.1.3-.2s.2-.2.3-.4c.1-.1.1-.2.1-.3s0-.2-.1-.3c0-.1-.1-.1-.1-.1 0-.1-.1-.1-.1-.1-.1 0-.2 0-.3 0s-.1.1-.2.1-.2.1-.3.1h.3.2.1c-.1 0-.2.1-.3.1-.1.1-.2.1-.3.2-.2.1-.7.7-.6 1-.2 0-.3.1-.4.1z"/><path d="m15.2 85.4c.1.1.3.1.4.1.3-.1.5-.2.7-.3s.4-.3.5-.5c.1 0 .1-.1.1-.2s0-.1 0-.2 0-.2-.1-.2-.1 0-.2 0c.1.1.1.2.1.2v.1s-.1 0-.2 0c-.2 0-.4.1-.6.2-.3.2-.4.5-.4.7h-.1-.1s-.1 0-.1-.1v.2c0 .1 0 .1 0 0z"/><path d="m20.3 82.5c0-.2.1-.3 0-.5-.1-.1-.1-.2-.2-.2s-.1 0-.2 0c0 .1.1.2.1.2v.1.1.1s-.1 0-.2 0c-.2 0-.5.1-.7.3-.4.2-.4.5-.4.8h-.1-.1s-.1 0-.1-.1v.2c.1.1.1.2.2.2h.2.2c.2-.1.5-.2.7-.4s.4-.4.6-.8z"/><path d="m19.3 78.3c-.2-.1-.3-.1-.7 0 .1 0 .2 0 .3.1s.1.1.1.1v.3.1-.1c0-.1 0-.1-.1-.2h-.1c-.2 0-.6.1-.8.5 0 .1-.1.2-.1.3-.1.1-.1.3-.1.4.1.1.1.2.2.3s.3 0 .4 0l-.1.1c-.1 0-.2.1-.3.1s-.2-.1-.3-.2c0 .2.1.3.3.4s.3.1.5 0c.1-.1.3-.2.4-.3s.2-.3.3-.4c.2-.3.3-.7.3-1 0 0 0-.1 0-.2s-.1-.2-.2-.3z"/><path d="m21.4 81c.1.1.1.1.2.1h.4c.5-.1.8-.4 1.1-.8.1-.2.2-.4.3-.6s.2-.5.1-.7c0-.1-.1-.2-.2-.3s-.3-.2-.4-.2-.1 0-.2 0-.3.1-.4.2h.5.1l.1.1h-.1c-.3 0-.6.1-1 .5s-.5 1.1-.3 1.4h-.1c-.2-.1-.3-.3-.3-.5v.3s0 .2.1.3c0 .1.1.1.1.2z"/><path d="m26.2 75c0-.2 0-.4-.2-.6-.1-.1-.2-.2-.3-.2s-.2 0-.3.1c-.2.2-.4.3-.5.5.2-.1.3-.2.5-.2-.6.5-.7 1.6-.5 2.1 0 0-.1-.1-.2-.1s-.1-.1-.2-.2c0 .1 0 .2.1.3s.2.2.3.2h.2c.1 0 .3-.1.4-.2s.3-.3.4-.5v-.1c.1-.2.1-.3.2-.5 0-.2.1-.4.1-.6z"/><path d="m22.6 74.4c-.2-.1-.3-.1-.4.1-.2.1-.3.2-.5.3.1-.1.3-.1.4-.1h.1c-.1 0-.1 0-.2.1-.3.2-.5.4-.6.7-.2.3-.3.6-.3.9v.1c-.1-.1-.1-.2-.2-.3v-.1.1.2c0 .1 0 .1.1.2v.1c.1.1.2.1.3.1s.2-.1.3-.1c.2 0 .3-.2.5-.3.1-.2.3-.3.4-.5s.2-.4.3-.6c0-.2 0-.4 0-.6v-.1c-.1-.1-.1-.1-.2-.2z"/><path d="m30.2 70.7c0-.1 0-.3-.1-.4-.1 0-.1-.1-.2-.1s-.1 0-.2 0c-.2 0-.3 0-.4.1-.1 0-.2.1-.3.2.2-.1.3-.1.4-.1s.3 0 .3 0h.1v.2-.1c-.2-.2-.7.1-1.2.6s-.7 1.1-.5 1.3h.1c-.1.1-.2.2-.2.1s0-.1 0-.1c-.1-.1-.1-.2-.1-.3s0-.3 0-.4c-.1.1-.2.2-.2.3-.1.1-.1.3-.1.4s.1.1.1.2c.1.1.1.2.2.2h.4c.3 0 .5-.2.7-.3s.4-.3.6-.5c.1-.2.3-.4.4-.6s.2-.5.2-.7z"/><path d="m26.5 70c-.1 0-.2 0-.2.1-.2.1-.4.3-.5.4.2-.1.3-.2.5-.2h.1.1c.1 0 0 .1 0 .2s-.1.1-.1.2c0-.1.1-.3 0-.3 0 0-.1 0-.2 0-.2.1-.5.3-.8.6s-.4.6-.5.8c0 .2-.1.3 0 .3h.2.1l-.1.1c-.1.1-.1.1-.1.1-.1.1-.1.1-.2.1s-.1 0-.1 0v-.1c0-.1 0-.1 0-.2s.1-.3.1-.4c-.1.2-.3.4-.3.6v.1.1c0 .1.1.1.2.1.2 0 .3-.1.4-.1.4-.2.7-.5 1-.8.2-.3.5-.7.6-1.1 0-.1 0-.2 0-.3v-.1c-.1-.1-.1-.2-.2-.2z"/><path d="m32.1 44c-.1-.1-.3-.1-.4 0-.2.1-.3.2-.3.3-.1.1-.1.2-.1.3v.1c.1-.2.3-.4.4-.4.1-.1.1 0 .2 0-.3.1-.4.8-.1 1.4s.8 1 1.1.9c0 .1 0 .2-.1.2 0 0-.1 0-.2 0-.2 0-.4-.2-.6-.3.1.2.3.4.5.5h.4s.2-.1.3-.2c0-.2.1-.3.1-.4 0-.2 0-.3 0-.4 0-.2 0-.5-.1-.7-.1-.5-.4-.9-.8-1.2-.1-.1-.3-.1-.3-.1z"/><path d="m31 38.6c-.1-.1-.2-.2-.5 0-.2-.1-.3-.1-.5 0-.1 0-.2.2-.3.3v.1.3c0-.1.1-.1.1-.2.1-.2.3-.3.4-.3 0 0 .1.1.2.1-.4.2-.4.9-.1 1.7s.9 1.3 1.3 1.1c-.1.1-.1.2-.2.2s-.2 0-.3 0c-.2 0-.4-.2-.6-.3 0-.1-.1-.1-.1-.1l.1.1c.1.1.3.3.5.4.2 0 .3.1.5 0 .2 0 .3-.2.4-.3.2-.3.2-.6.2-.9 0-.2-.1-.5-.2-.8-.1-.5-.4-1-.9-1.4z"/><path d="m28.4 33.4c-.1 0-.3 0-.4 0s-.1.1-.2.1-.2 0-.2.1c-.2.3-.2.5-.2.8.1-.2.2-.4.4-.5h.2.1-.1c-.1 0-.1 0-.1 0-.4.3-.4 1 .1 1.6.3.4.7.6 1 .6.2 0 .4 0 .5-.1-.1.1-.2.2-.3.2s-.1 0-.2 0c-.2 0-.4 0-.6 0 .2.1.4.2.7.2h.1c.2 0 .5-.1.7-.4.1-.1.1-.3.1-.4s-.1-.3-.1-.4c-.1-.2-.2-.5-.4-.7s-.4-.4-.6-.6-.4-.3-.5-.5z"/><path d="m25 38.3c.2 0 .5.1.7 0s.4-.3.5-.5.1-.5 0-.7-.2-.4-.4-.6c-.1-.1-.4-.2-.6-.3-.2 0-.5 0-.7.1-.2.2-.4.4-.4.6.1-.2.3-.4.5-.4h.2c-.1 0-.2.1-.2.1-.3.3-.2.8.1 1.2.2.2.5.3.8.3-.1.1-.3.1-.5.1s-.4-.1-.6-.2c.2.1.4.3.6.3z"/><path d="m25.8 41.5s.1.1.1.2c.2.4.4.6.7.7.1 0 .3.1.4 0 0 .1-.1.2-.2.2s-.1 0-.1 0c-.2 0-.3 0-.5-.1.1.1.3.3.5.3h.1c.1 0 .2-.1.3-.1s.2-.1.3-.2c.1-.2.2-.5.2-.7s0-.4-.1-.6c-.1-.4-.4-.8-.8-1-.2-.1-.5-.2-.7-.1-.3.1-.4.3-.4.5.1-.2.3-.3.5-.2 0-.1.1-.1.2 0-.1 0-.2 0-.2 0-.3.1-.4.5-.3 1.1z"/><path d="m44.5 9.3c0-.3-.1-.6-.2-.8-.2-.2-.4-.4-.6-.5s-.4-.2-.7-.2-.6.1-.7.3c.2-.1.4-.1.6 0 .1.1.2.1.3.2-.2-.1-.5-.1-.6.1-.2.3-.1.8.3 1.1-.1 0-.1-.1-.2-.1-.2-.1-.3-.3-.5-.5 0 .3.1.5.3.7.1.2.4.4.6.5s.5.2.8.1c.2-.1.3-.2.4-.3s.2-.3.2-.6z"/><path d="m43.5 11.8c-.3-.1-.5-.1-.7 0 .2 0 .4.1.5.2-.4-.1-.8.2-1 .8-.1.4-.1.8.1 1-.1 0-.1 0-.1 0-.1-.1-.3-.3-.4-.5-.1.3 0 .5.1.7l.1.1c.1.1.3.3.5.3h.2c.2-.1.4-.1.5-.2.2-.2.4-.4.5-.6s.2-.5.2-.7 0-.5-.1-.7-.3-.4-.4-.4z"/><path d="m38.8 12.7c.2.1.5.2.7.1s.4-.3.5-.5.1-.4.1-.6c-.1-.2-.1-.4-.2-.6s-.2-.4-.4-.5-.4-.2-.6-.2-.4.1-.5.3c.2-.1.4-.1.5 0-.3.2-.5.6-.4 1.1.1.3.3.6.5.7-.1 0-.3-.1-.5-.2.1.1.3.3.3.4z"/><path d="m39.7 6c-.2-.1-.4-.2-.7-.3-.4-.1-.7-.1-1-.1-.2 0-.3.1-.4.2v-.1s.1-.1.2-.1.2-.1.3-.1c-.1 0-.2 0-.3 0-.2 0-.3.1-.4.1l-.1.1c-.1 0-.1.1-.1.2 0 .2.1.3.2.4.4.4.8.6 1.3.7.4.1.9.2 1.4.1.2-.1.3-.1.4-.2 0-.1.1-.1.1-.2s0-.1 0-.2-.1-.1-.2-.2-.2-.2-.3-.2l.1.1.1.1c.1.1.1.2.1.3.1.1.1 0 0 0 .1.1.1.1 0 0 0 .1.1.1 0 0 0-.1-.2-.3-.7-.6z"/><path d="m19.3 19.5c.1.1.3.1.4.1.2 0 .3-.1.4-.2.2-.2.4-.4.5-.6.2-.2.3-.4.4-.6s.2-.4.3-.6c-.2.1-.3.3-.5.5l-.5.5c-.2.2-.3.4-.5.5 0 .1-.1.1-.2.2-.1 0-.2.1-.3.2z"/><path d="m35 98c-.2 0-.3.2-.3.5s.2.5.3.5c.2 0 .3-.2.3-.5s-.1-.6-.3-.5z"/><path d="m34.3 96.9c-.1 0-.1.2 0 .4s.3.3.4.2c.1 0 .1-.2 0-.4 0-.2-.2-.3-.4-.2z"/><path d="m47.9 14.9s.1-.1.1-.2c0 0-.1.1-.1.2z"/><path d="m76.6 25.8c.1-.1.2-.2.3-.3.1-.2.2-.4.3-.7-.2.2-.4.4-.6.5.2-.3.5-.7.6-1.1 0-.2.1-.3.1-.5.1-.6.1-1.1-.2-1.2.1 0 .1-.1.2-.1s.2.1.3.2c0-.1-.1-.3-.2-.4s-.3-.1-.4-.1h-.1c-.2.2-.4.4-.6.6s-.3.4-.4.7-.2.5-.2.8v.8c0 .1 0 .3.1.4 0 .1 0 .1.1.2 0 0 .1.1.2.1.2.1.3 0 .5.1z"/><path d="m75.1 27.5c-.3-.1-.5 0-.8 0h-.1.1c.2.1.5.1.7.2.1.1.3.1.3.2-.3 0-.6 0-1.1 0-.2 0-.4.1-.6.1-1 .1-1.9.5-2 .9-.1 0-.2 0-.2 0-.1 0-.1 0-.1 0s0 0 0-.1.1-.3.2-.4c-.2.1-.3.2-.4.3s-.1.2-.1.3v.1l.1.1c.2.1.3.2.5.2.2.1.3.1.5.1.3.1.6 0 .9 0 .1 0 .3-.1.5-.1s.3-.1.4-.1c.2 0 .4-.1.6-.2.1 0 .2-.1.3-.1.3-.1.6-.3.8-.6.1-.1.1-.2.1-.3s-.1-.2-.2-.3c0 .1 0 .1 0 0-.1-.1-.3-.1-.4-.3z"/><path d="m58.2 2.8c-.3-.6-1.3-1-2.6-.5-.8.1-1.5.4-1.8.9 0 0-.1.1-.1.2-.4-.3-1.1-.3-1.8 0-.6.2-1 .6-1.2 1-.1.1-.1.3-.1.3v.2c-.2-.1-.4-.2-.7-.1s-.7.2-1 .5c-.5.4-.8.9-.8 1.3 0 .1.1.2.1.3-.4-.1-.8.2-1.2.7-.3.4-.4.7-.4 1v.3c-.1.1-.1.2-.2.3-.1-.1-.3-.2-.4-.3-.5-.5-1.2-.9-2-1.3-.3-.2-.5-.3-.8-.4-.3-.2-.7-.4-1.1-.5-.1 0-.2-.1-.3-.1-.3-.7-1.1-1.4-2.3-1.7-.7-.2-1.5-.2-2.1-.1-.2.1-.4.2-.6.3-.1-.2-.3-.4-.6-.5-.5-.3-1.2-.4-1.9-.4s-1.4.2-1.9.5c-.3.1-.6.4-.7.6-.2-.2-.5-.3-.8-.4-.5-.1-1.2-.1-1.9.1-1.3.4-2.2 1.2-2.3 2-.5-.4-1.5-.4-2.4.1-.9.4-1.4 1.1-1.4 1.7-.2-.1-.6-.1-.9 0-.4.2-.7.4-1 .8-.3.3-.4.7-.5 1.1v.2.3c-.1 0-.2 0-.3.1-.3.2-.5.5-.7.8-.1.3-.2.6-.2.9v.1c0 .2.1.4.2.5-.1 0-.1 0-.2.1-.3.2-.5.5-.6.9-.1.2-.1.5-.1.7v.3c.1.2.2.4.3.5-.2 1-.3 1.9-.4 2.5-.1.8-.1 1.2-.1 1.4 0 1.3-.7 4.7-2.3 4.8-1.8.1-2.2-.4-3.8-3.1 0-.1-.2-.2-.3-.2s-.3.1-.3.2c-.5 1.3-.2 3 .8 4.3 1 1.2 2.4 1.9 4.1 1.7 4-.4 5-3.3 6-7.3.1-.4.2-.8.3-1.2.1-.3.2-.5.3-.8.1-.5.3-.9.5-1.3.1-.1.2-.3.3-.5s.3-.4.4-.6c.4-.6 1-1 1.6-1.4.4-.2.8-.4 1.2-.6.2-.1.4-.1.6-.2.3-.1.6-.1.9-.2 1.5-.3 3.1-.3 4.7 0 1 .2 2 .5 3 .9-.1.1-.1.2-.2.3-.3.4-.4.9-.4 1.4 0 .2 0 .4.1.6 0 .2.1.3.2.5-.7.1-1.4.7-1.8 1.6-.1.3-.2.7-.2 1v.4c-.5.3-1 .9-1.2 1.7-.1.3-.1.6-.1.8 0 .4.1.7.3 1-.5.3-.9 1-1 1.8v.3c0 .5.1.9.4 1.2-.3.3-.4.8-.4 1.3 0 .2.1.4.1.6.1.7.4 1.2.8 1.4h.1c.2 1.2.6 2.1 1 2.8-1.9-1.1-5.2-2.9-6.6-3.3-1.2-.3-2.4-.6-3.4-.7-.3-.1-.5-.1-.8-.1-.1 0-.1-.1-.2-.1-.4-.2-.9-.4-1.5-.3-.5 0-1 .3-1.4.6-.1 0-.3.1-.4.1-.5-.4-1.2-.4-1.9 0-.4.3-.7.6-.9 1-.1.1-.1.3-.1.4-.3 0-.6.1-.8.3-.3.2-.5.5-.6.8-.1.1-.1.4-.1.4v.2c-.3.1-.7.3-1 .6-.2.3-.4.7-.5 1v.3s0 .3.1.4c-.1.1-.3.1-.4.2-.3.2-.5.4-.6.7s-.2.5-.2.8v.1c0 .3.2.5.3.6-.1.4-.3.8-.4 1.3-.1.4-.3.9-.4 1.4s-.3 1.1-.4 1.6c-.5 2.1-.8 4.1-1 5.4-.1.5-.1.9-.2 1.4s-.2 1-.3 1.4c-.1.3-.1.5-.2.7-.2.5-.3.9-.5 1.2-.4.9-1 1.5-1.7 2-.9.6-1.8.7-2.7.3-.4-.2-.7-.4-.9-.7-.2-.2-.3-.5-.3-.8 0-.4.2-.7.4-1l.3-.3c.7-.6 1.6-1 2.5-1.2.2 0 .3-.2.3-.3 0-.2-.1-.3-.2-.4-2-1-3.4-.6-4.2-.1-1.3.9-1.8 2.5-1.8 3.1v.1c.1 1.6.8 5.2 5.3 5.2 5.1-.1 7.1-4.1 7.5-6.5.1-.9.7-3.9 1.6-6.4.3-.9.7-1.6 1-2.1.1-.2.2-.4.3-.5.6-.8 1.3-1.3 2.1-1.6.3-.1.5-.2.8-.2.3-.1.6-.1.9-.1s.6 0 .9.1c.6.1 1.3.4 2 .7.3.1.6.3.9.6 0 .2.1.4.2.6.2.6.6 1 1.1 1.3.1 0 .2.1.3.1.1.1.1.2.2.3-.3.2-.4.6-.4 1.1s.1 1.1.4 1.7c.5.9 1.1 1.5 1.7 1.7 0 .1-.1.1-.1.2-.2.2-.2.4-.2.7 0 .4.2.9.4 1.4s.6.9 1 1.2c.1 0 .2.1.3.1-.1.1-.2.2-.2.3-.1.2-.1.4-.1.6 0 .4.2.9.4 1.4s.6.9 1 1.2c.2.2.4.3.6.3v.1c-.1.2-.2.4-.2.6 0 .5.2.9.5 1.4.3.4.6.7 1 .9.1 0 .2.1.3.1 0 .1.1.2.2.3v.2c0 .2 0 .3.1.5.2.4.4.8.8 1.1.6.5 1.1.7 1.6.7l.1.1c0 .2.1.3.1.4.1.3.4.7.7 1 .4.3.7.5 1.1.6.2.1.4.1.6 0 .1.1.3.2.4.3-.2 0-.4 0-.7.1-.4.1-.8.3-1 .6-.1 0-.1 0-.1 0-.4-.2-1.2-.2-1.9 0-.4.1-.8.3-1.1.6-.4-.1-1.1-.1-1.7.1-.5.2-1 .5-1.3.8-.2.2-.3.4-.3.6 0 0 0-.1-.1-.1s-.2-.1-.3-.1c-.5-.1-1.2.1-1.9.5-.5.4-.9.8-1.1 1.2 0 0-.1.1-.1.2-.1.2-.1.3-.1.4v.1c-.1 0-.1.1-.2.1-.2-.1-.6 0-.9.1-.4.1-1 .5-1.4 1-.6.7-.9 1.5-.9 2.1v.3c-.2.2-.3.4-.5.6-.2-.1-.5-.1-.7-.1-.7.1-1.4.6-2 1.3-.5.7-.8 1.5-.8 2.1 0 .2 0 .5.1.7-.1 0-.1.1-.2.2-.7-.3-1.6.1-2.2 1-.2.3-.3.7-.4 1l-.6.3c0-.3 0-.6 0-.9s-.1-.6-.1-.9c-.1-.6-.3-1.1-.5-1.7s-.5-1.1-.8-1.6c-.4-.5-.7-1-1.2-1.4-.5-.5-1.1-.8-1.8-1.1-.2-.1-.4-.1-.7-.2-.1 0 1.6.4-.1 0s-3.7-.2-5.4.5c-2.7 1.2-4.2 3.4-4.2 6.3 0 5 2.4 8.5 7 10.1-.1 2.6.8 5.3 2.1 6.3 1.6 1.2 3.1 1.1 3.5.5.2-.3.2-.6.1-.7-.2-.3-.6-.4-1-.4-.7-.3-1.2-.7-1.5-1.3-.4-.9-.3-2.1.2-3.6 2.8.4 6.9.5 10.7-1.2 2.5-1.1 5.5-3.1 8.6-5.3 1.3-.9 2.7-1.9 4.1-2.8-.5 1.4-.4 2.5-.3 3-.4.4-.9 1.9-.3 6.2l.3 1.5-.1.1c-.1.2-.2.5-.2.8 0 .2 0 .5.1.7.3.7.7 1.3 1.3 1.6-.2.1-.3.3-.4.5s-.1.4-.1.6v.4c-.3-.6-.7-1.1-1.2-1.5-1.5-1.3-3.7-1.8-6.1-1.5-.7.1-1.2.2-1.8.4-1 .3-1.9.7-2.7 1.1-1.6.9-2.6 1.8-2.8 2 0 0 0 .1-.1.1-.2.1-.4.3-.7.6s-.6.7-.8 1.1c-.2.3-.3.7-.4 1.1-1.2 1.1-1.2 2.6-1.2 3-.2.5-1.1 2.6-.3 3.7-.2 1.5.2 3 1 3.9.1 1 .6 1.7.8 2v.4c0 .7.2 1.9 1.6 3.6.2.2.4.3.6.5v.3c0 .6.4 1.4 1.2 1.9.6.4 1.2.6 1.7.6v.1c0 .6.6 1.4 1.6 1.8.7.3 1.5.4 2 .2.1 0 .1 0 .2-.1v.2c.2.7 1.2 1.4 2.4 1.5.8.1 1.7-.1 2.1-.5.1 0 .1-.1.2-.2.3.8 1.5 1.5 2.9 1.7 1.1.1 2.1-.1 2.7-.6.2-.2.4-.5.4-.8.6.7 1.7 1.1 2.9 1l.3.6c-.1.1-.1.2-.1.4 0 .4.2.9.6 1.2.2.1.4.2.6.3v.1c0 .4.2.9.6 1.2.2.2.5.3.7.4.1.5.5 1.1 1.1 1.4.4.2.8.3 1.1.3h.1c0 .6.6 1.2 1.4 1.4.4.1.8.1 1.1 0 .1.1.3.1.4.2.2.3.6.5 1.1.6h.6s.1.1.2.1c.2.5.7.9 1.4 1 .4.1.8 0 1.1-.1.2 0 .3-.2.4-.3h.7c.4.2.8.3 1.3.3.6 0 1.1-.2 1.4-.4.4 0 .8-.1 1.2-.1.3.3.9.5 1.5.4.7-.1 1.2-.5 1.5-.9.4-.1.7-.2 1.1-.3.5.6 1.4.8 2.3.5.5-.1 1-.4 1.3-.8.3-.3.4-.7.4-1 .2-.1.5-.2.7-.3.1.1.2.1.4.1.6 0 1.2-.1 1.7-.4s1-.7 1.2-1.2c.1-.2.2-.5.2-.7.3-.2.5-.4.8-.6.7-.1 1.4-.5 2.1-1.2.5-.6.9-1.2 1.1-1.8.1-.2.1-.4.1-.6.2-.1.3-.3.4-.5.8-.2 1.7-1 2.3-2.2.4-.8.7-1.6.7-2.3 0-.3 0-.6-.1-.9.3-.1.7-.3 1-.7.5-.5.9-1.4 1.2-2.3.4-1.5.4-2.9-.1-3.6.2-.2.4-.4.5-.7.4-.6.6-1.5.7-2.5.1-1.6-.2-2.9-.8-3.5 0-.2 0-.3 0-.5.2-.7.2-1.6 0-2.5-.2-.7-.5-1.3-.9-1.8-.1-.2-.1-.3-.2-.5-.4-.8-1-1.7-1.8-2.5l-.1-.1c-1.9-2-4.7-3.7-8.3-5.6-.1 0-.2-.1-.3-.1-.2-.1-.3-.2-.5-.3-1.8-1-3.4-1.9-4.7-2.6-3.2-1.7-4.9-2.9-6.6-4.3-1.6-1.2-1.6-2.9-1.5-3.6.1-.4.2-.8.3-1.1.1-.1.3-.1.4-.2.7.7 1.8 1.1 2.7 1.2.5.1 1.3.1 1.3.1h.9c.3 0 .6 0 .9-.1.2.2.5.5.7.6s.5.3.7.4c.4.2.9.3 1.4.4.9.1 1.8 0 2.3-.2.1 0 .1-.1.2-.1.3-.2.5-.4.7-.7.3.5.7 1.1 1.2 1.2.7.2 2.5-.3 3-.5.7.1 5.1.9 8.6 1h1.3c2.1.1 4 .2 6.4-1.1 1.3-.7 2.7-1.6 4.2-3 2.4-2.1 5.5-5.6 6.7-10.1v-.1c.1-.3.1-.4.2-.5l.1-.1.1-.1.3-.3c.2-.2.3-.4.3-.6 0-.4-.1-.7-.3-1-.1-.1-.1-.3-.2-.4s-.2-.2-.2-.4v-.1c0-.1-.1-.2-.1-.3s0-.3-.1-.4c-.1-.2-.2-.4-.3-.7-.1-.2-.2-.4-.3-.6-.5-.8-1.3-1.8-2.5-3.2-.8-.9-1.6-1.8-2.3-2.5-2.4-2.4-4.6-4-6.5-4.8-1.6-.7-3.3-.5-4.1-.3-.2 0-.4.1-.5.1-1-.1-11.1-.5-12.9-.2-1.3.2-2.3 1.1-2.9 1.7-.2-.5-.5-1.1-.9-1.2s-.9-.1-1.3-.1-.9.1-1.3.3c-.9.3-1.6.8-2.1 1.4-.3-.1-.7-.1-1-.2-.2-.1-.5-.1-.7-.1-1 0-2 .3-2.8.7-.3.1-.6.2-.8.4-.1.1-.3.2-.4.3-.7-.5-1.3-1.1-1.8-1.7-.9-1.6-.1-4.1 1.1-5.3l.1-.1c.6-.6 1.9-1.8 4.5-3.1l.2-.1c2.1-1 4.6-1.8 7.4-2.5 2.2-.5 4.1-1.3 5.8-2.2 2.9-1.6 5.1-3.8 6.5-6.6 0-.1.1-.1.1-.2.4-.4.7-1 1-1.6.5-1.1.6-2.2.4-3 .1-.6.1-1.2.1-1.9.4-.7.7-1.5.8-2.5.2-1.3-.1-2.6-.7-3.3-.3-.3-.6-.5-.9-.6.1-1.1 0-2.5-.4-3.8-.8-2.6-2.3-4.2-3.6-3.9-.1 0-.1.1-.2.1 0-.1-.1-.2-.2-.3 0-.1 0-.2 0-.3 0-.2 0-.4-.1-.6-.1-.4-.3-.7-.5-1-.2-.4-.4-.6-.7-.9-.5-.5-1.1-.9-1.7-1.3s-1.3-.7-2-.8c-.3-.1-.7-.1-1.1 0-.1 0-.2.1-.3.1.1-.4 0-.8-.2-1.1-.1-.3-.4-.6-.6-.9-.1-.2-.3-.3-.4-.4s-.3-.2-.4-.3c-.6-.4-1.2-.7-1.9-.9s-1.4-.4-2.1-.3c-.4 0-.8.1-1.1.3 0 .1-.1.1-.2.2l-.1.1-.1.1v.1.1-.1c-.1-.3-.3-.5-.5-.7s-.5-.3-.7-.4-.5-.1-.7-.2c-.5-.1-1-.1-1.5-.1-.5.1-.9.2-1.4.4-.1.1-.3.2-.4.3zm-2.4-.4c1.2-.2 2 .2 2.2.5v.1c0 .1-.1.3-.1.3v.1c-.1.1-.2.2-.4.3-.1 0-.1 0-.2 0-.4 0-.8 0-1.1.1-.2.1-.4.1-.6.2-.1.1-.2.1-.3.2-.3 0-.5-.1-.7-.2s-.3-.2-.4-.3c-.1 0-.1-.1-.1-.1 0-.1 0-.1 0-.2s.1-.1.1-.2c.3-.4.9-.7 1.6-.8zm-3.5 1.1c.6-.2 1.1-.2 1.4 0 .1.1.2.1.2.2s0 .1 0 .2-.1.3-.2.4c0 .1-.1.1-.2.2l-.3.1c-.2.1-.3.1-.4.1-.3 0-.6.2-.8.3-.1 0-.1 0-.1 0-.2 0-.4 0-.5-.1-.2 0-.3-.1-.3-.2-.1-.1 0-.2 0-.3.1-.4.5-.7 1.2-.9zm-18 1.1c.5 0 1.1.1 1.6.3.1 0 .1.1.2.1.2.1.2.2.3.3-.1 0-.1.1-.1.1 0 .1-.1.1-.1.2v.1.2.1c0 .1-.1.1-.2.2-.4.3-1 .4-1.6.4-.2 0-.4 0-.6 0-.3-.2-.6-.3-.9-.3h-.1c-.3-.1-.4-.3-.5-.4-.1 0-.1-.1-.1-.2v-.1c.1-.1.2-.3.3-.4 0-.1.1-.1.2-.2.4-.3 1-.4 1.6-.4zm-5.2.7c.6-.1 1.2-.1 1.6.1.1 0 .1.1.2.1.2.1.3.2.4.3.1 0 .1.1.1.1v.1.1c-.1.1-.2.2-.3.4-.5.1-.8.4-1.1.7-.1 0-.3.1-.4.1-.3 0-.6.1-.8.1-.2-.3-.6-.4-1.1-.4-.1 0-.2 0-.3 0 0-.1-.1-.1-.1-.2s0-.3.1-.4c.3-.4.8-.9 1.7-1.1zm-8.2 5.1c0-.3.2-.6.6-1 .2-.3.5-.6.8-.7.2-.1.5-.1.6 0 0 .1.1.1.1.2s0 .2 0 .3 0 .2 0 .2v.1c-.2.1-.4.3-.4.3l-.2.2c.1 0 .1-.1.1-.1 0-.1.1-.2.1-.4 0-.1 0-.1 0-.2s0-.1 0-.1l-.1-.1h-.1c-.1 0-.1.1-.2.1s-.2 0-.2.1h.2c-.2.1-.4.2-.6.5-.2.2-.3.4-.3.6 0 0 0-.1 0-.2 0 .1-.1.1-.1.2-.1 0-.1.1-.1.2v.1l.1.1h.3c.1-.1.2-.1.3-.2s.2-.2.3-.3c-.1.2-.2.4-.2.6-.2.1-.4.2-.5.2h-.1c-.1 0-.2 0-.3-.1 0-.1-.1-.1-.1-.2s0-.2 0-.4zm-.3.7c.1.1.2.2.3.2v.1.1.1c0 .3-.1.5-.2.8l-.1.1c-.1.1-.1.2-.2.3 0 .1-.1.1-.2.2 0 .1-.1.1-.1.1 0 .1-.1.1-.1.1-.1 0-.1 0-.2 0 0-.1-.1-.2-.1-.4s.1-.5.2-.8.3-.6.5-.7c.1 0 .2-.1.2-.2zm-.8 2.4c.2 0 .3.1.3.3v.1.1.2c0 .2 0 .3-.1.5 0 .2-.2.4-.3.6l-.1.1c-.1.2-.2.2-.3.2h-.1c-.1-.1-.2-.2-.2-.3 0 0 0 0 0-.1 0-.2 0-.5.1-.8.2-.3.3-.5.5-.7.1-.1.2-.1.2-.2zm-.3 7.7c.2-.6.2-1 .1-1l-.8 1.2c.1-.6.2-1.2.2-1.6 0-.1 0-.4 0-.9.1.1.3.2.5.1.5-.2.5-1.2.5-1.2s1.3-1.4 2.2-2.3c-.6.3-2.1 1.7-2.1 1.7v-.3c.3-.2.5-.9.4-1.4-.1.7-.8 1.2-.8 1.2v-.3c.4-.3.4-.7.4-.8.1-.2.2-.4.3-.6.3.2.9.2 1.4-.2s1.3-.8 1.7-.9c-.4-.1-.7 0-1 .1.3-.4.4-.9.3-1.3.5 0 1.6-.4 2.2-.8-.3.2-1.5.3-1.5.3s.2-.2.5-.4c.1-.1.3-.2.4-.3l.1-.1c.6-.5 1.2-.9 1.6-1 .6.1 2.2-.5 2.7-.9h1.5l.1.1c-.7 0-2 .3-3 .9.3-.1 3-.5 3.9 0-1.4-.1-3.8.5-5.1 1.1 1.4-.2 3.5-.2 3.5-.2s-3.3.6-4.5 1.3c.7-.3 2-.3 2-.3-2.5 1.4-3.3 2.8-3.7 3.6-.1 0-.1.1-.1.1-.6 1-1 2.2-1.5 4.1-.2.9-.4 1.6-.6 2.3s-.4 1.3-.7 1.8c-.2.3-.4.6-.6.9-.5.6-1.1 1.1-1.9 1.4-.3.1-.6.2-1 .3-.2.1-.4.1-.6.1-1.4.1-2.6-.4-3.4-1.5-.7-.9-1-2-.9-2.9.8 1.3 1.4 2 2.2 2.4.3.2.7.3 1.1.3.3.3.8.5 1.2.6.5.1 1 .1 1.4-.1-.4.1-.9 0-1.3-.2-.2-.1-.4-.2-.5-.3.2 0 .5-.1.7-.2.5 0 1 0 1.4-.2.5-.2.9-.5 1.2-.9-.4.4-.8.5-1.3.6-.1 0-.3 0-.5 0l.6-.6c.4-.1.7-.3.9-.5s.4-.4.5-.6c.2-.2.3-.5.4-.7-.2.2-.3.4-.5.6-.2.1-.4.3-.6.4 0 .1-.1.1-.2.1.1-.3.3-.8.4-1.2l.2-.2c.3-.2.5-.4.7-.7.4-.6.7-1.2.8-1.8-.3.6-.7 1.1-1.1 1.5-.1.1-.3.2-.4.3zm16.9-4.7c-.2-.5-.1-1.1.3-1.7.1-.2.2-.3.3-.4s.2-.2.3-.3.3-.1.4-.2c.1 0 .2-.1.3-.1.3 0 .7 0 1 .2.2.1.4.4.5.7.1.1.1.2.1.3-.4.5-.6 1.1-.6 1.7v.2c-.2.2-.5.4-.8.5-.4.1-.8.1-1.1-.1 0 0 0-.1-.1-.1s-.2-.1-.3-.2-.2-.2-.2-.3-.1-.1-.1-.2zm-23.6 25c0-.2.1-.5.3-.8.3-1.1 1.7-4.1 3.6-5.5h.1c-.8.9-1.2 1.8-1.2 1.9.1-.2.8-1.3 2.1-2 .1 0 .2-.1.3-.1.4-.1.8-.3 1.2-.3-1.3.6-2.4 1.8-2.9 2.5 1.5-1.1 2.8-1.9 4.1-1.3-1.2.1-3 .9-4.2 2.4 1-.7 1.5-.7 1.5-.7s-2.3 3.4-2 6c-.1.2-.1.3-.2.5-1 2.6-1.6 5.6-1.7 6.5-.3 2.2-2.2 5.9-6.8 5.9-3.7 0-4.5-2.9-4.6-4.6 0-.1 0-.1 0-.2 0-.3.2-.8.5-1.3.2-.2.4-.5.6-.7.1-.1.3-.2.4-.3.4-.2.8-.4 1.3-.4-.9.3-1.5 1.1-2 2.1.3-.3.7-.4 1.3-.6-.4.4-.7.9-.7 1.5 0 .5.2 1 .6 1.4-.4-.2-.9-.5-1.3-.9.4 1.3 2.6 2 2.7 2-.1 0-1.3-.2-2.1-.4.5.5 2 .9 3.3.9-.8.1-1.5.1-2.7-.1.4.3.8.6 2.7.6-1.5.5-2.4 0-2.4 0s1 1 3.6 0 2.8-4.3 3.2-6.3c.2-.8.3-1.6.4-2.4.1-.7.2-1.5.4-2.4.1-.4.2-.9.3-1.4s.2-1 .3-1.5zm12.6.5c-.1-.2-.2-.4-.2-.6-.1-.2-.1-.3-.1-.5 0-.6.3-1.1.7-1.3.6-.3 1.5.2 2 1.1.1 0 .1.1.1.1.1.4.2.7.2 1.1v.4c0 .2 0 .3-.1.4-.1.2-.3.4-.5.5-.1.1-.2.1-.3.1-.2 0-.3-.1-.5-.1-.1 0-.2 0-.3-.1s-.3-.2-.4-.3c-.1-.2-.3-.4-.4-.6-.1-.1-.1-.2-.2-.2zm4.8 10.1c.3 0 .5-.1.5-.1h.1c.1 0 .2 0 .3.1.2.1.4.3.6.6-.1-.1-.3-.1-.5-.2-.1-.1-.3-.1-.4-.1s-.3 0-.4 0-.3 0-.4 0c.1-.1.1-.2.2-.3zm-4.1 17.6c.3-.1.5-.1.6-.2.1.1.2.1.2.1 0 .1.1.1.1.2.1.1.1.2.1.3s-.1.3-.1.4c-.1.4-.4.9-.8 1.3-.7.8-1.5 1.1-1.9.9h-.1s-.1-.1-.1-.2c-.1-.2-.1-.4 0-.6.1-.4.4-.8.8-1.3.3-.4.8-.7 1.2-.9.1 0 .1 0 0 0zm-3.4 4.1c.1 0 .2 0 .3.1s.2.2.2.3c.1.1.1.3.1.5 0 .3 0 .6-.2 1-.1.2-.2.5-.4.7-.5.6-1.1 1-1.6 1.1-.2 0-.4 0-.5-.1 0-.1-.1-.1-.1-.1 0-.1-.1-.1-.1-.2s-.1-.3-.1-.4c-.1-.6.1-1.3.6-2 .5-.6 1.1-1 1.6-1.1.1 0 .2 0 .2.2zm-4.9 4.9c.5-.7 1.2-1.1 1.7-1 .1 0 .2 0 .3.1s.1.2.2.3c0 .2.1.4.1.6 0 .4-.1.9-.4 1.3-.6.8-1.5 1.2-2 .8-.3-.1-.4-.4-.4-.7 0-.1 0-.3 0-.4 0-.2 0-.3.1-.5s.2-.4.4-.5zm-9.8 5.5c.8.1 1.5.6 1.5 1-.1.5-.8.8-1.7.7-.1 0-.1 0-.2 0-.2-.1-.4-.1-.6-.2-.1 0-.1 0-.1 0-.4-.2-.6-.5-.6-.8 0-.2.2-.4.5-.5.1 0 .3-.1.5-.1.2-.1.4-.1.7-.1zm2.8 1.2c.1-.1.2-.2.3-.4.2-.1.4-.2.7-.3.8-.1 1.5 0 1.7.4.1 0 .1 0 .1.1v.1c0 .1 0 .2-.1.3 0 .1-.1.2-.2.3-.3.2-.7.4-1.1.5-.2.1-.5.1-.7.1-.1 0-.1 0-.2 0-.3 0-.5-.1-.6-.2s-.2-.2-.2-.3c0-.2.1-.4.3-.6zm19.3-18c0-.1.1-.2.1-.4l.1.1c.1 0 .1.1.1.2s0 .3-.1.4v.1c-.2.4-.5.7-.9 1s-.8.5-1.2.5c-.1.1-.3 0-.4 0s-.1-.1-.2-.1c.1 0 .3 0 .5-.1.4-.1.8-.3 1.1-.5.2-.2.4-.3.6-.5s.4-.4.3-.7zm-22.1 15.8c-.5-.1-.8-.3-.8-.6 0-.4.6-.8 1.4-.8h.4c.2 0 .4 0 .5.1s.2.1.3.2.2.1.2.2c.1 0 .1.1.1.2 0 .2-.2.4-.4.5-.2.2-.6.3-1 .3-.2 0-.4 0-.7-.1zm6.8 2.9c-.2-.3-.2-.5-.1-.7.1-.4.4-.7.8-1h.1c.3-.2.6-.3.9-.4 0-.1.1-.1.2-.1.4 0 .6 0 .7.2.1 0 .1.1.1.2s0 .2-.1.4c-.1.4-.4.7-.8.9-.4.3-.8.4-1.2.4-.2 0-.3 0-.6.1zm6-3.5c-.1.4-.4.8-.8 1.1-.6.4-1.2.6-1.6.6-.2-.1-.3-.1-.4-.2 0-.1 0-.1 0-.1-.1-.1-.1-.4 0-.7.1-.4.4-.8.8-1.1.3-.2.6-.4.9-.5.1 0 .2-.1.3-.1.2-.1.4-.1.5 0l.2.2h.1.1v.2c0 .2-.1.3-.1.6zm.6-1.2c-.1 0-.1-.1-.2-.1s-.1 0-.1 0c-.6-.5-.5-1.6.2-2.5.4-.5.8-.8 1.2-.9.4-.2.9-.2 1.2.1s.4.6.4 1c0 .5-.2 1.1-.6 1.6-.7.8-1.6 1.1-2.1.8zm10.5-11.8c-.2 0-.4 0-.5-.1-.1 0-.2-.1-.3-.2h.1c.5 0 1.4-.1 2.1-.5 1.1-.6 1.4-1 1.6-1.5 0-.1 0-.1 0-.1v-.1-.1c.1.1 0 0 .1.1s.1.1.1.1v.1.1c0 .2-.1.5-.3.7-.3.4-.8.8-1.3 1.1s-1.1.4-1.6.4zm-9.3 7.7c.3-.2.5-.4.7-.7 0-.1.1-.1.1-.2v.4c0 .3.1.4.2.6-.4-.1-.7-.1-1-.1zm8.2-6.8c0 .5-.3 1.3-.9 1.9-.5.5-1 .8-1.5 1s-.9.1-1.1-.1c-.1 0-.1-.1-.1-.1-.4-.5-.1-1.7.7-2.6.8-.8 1.8-1.2 2.4-1 .1 0 .1 0 .2.1.2.2.3.5.3.8zm-4.1 4.3c0 .4 0 .8-.2 1.2-.4 1.1-1.3 1.8-2 1.6-.2-.1-.4-.3-.5-.6-.1 0-.1-.1-.1-.2-.1-.5 0-1.1.2-1.7.4-1.1 1.3-1.8 2-1.6.4.1.6.7.6 1.3zm-9 7.4c.1-.3 0-.5-.1-.8 0-.1 0-.2 0-.3.6.4 1.5 0 2.1-.7 0 .3 0 .6.1.8-.2.1-.5.2-.7.3-.6 0-1 .3-1.4.7zm-1.6.8c-.3.1-.5.2-.9.2s-.6-.1-.8-.3c-.3-.5 0-1.2.6-1.7l.1-.1c.3-.1.5-.2.8-.3h.2c.3-.1.6 0 .8.1l.2.2c.1.1.1.2.1.4 0 .4-.3.9-.8 1.3-.1.1-.2.1-.3.2zm-3.9-1.7c-.4.1-.8.2-1.2.2-.3.1-.6 0-.9 0-.5-.1-1-.3-1.5-.7s-.9-.9-1.3-1.4c-.2-.4-.5-.9-.6-1.5 0-.2 0-.4 0-.6.7-.7 1.8-1 2.9-.7 1.4.3 2.5 1.4 2.8 2.9.2.6.2 1.2-.2 1.8zm4.7-1c.1.1.1.1.1.2-.1 0-.2-.1-.3-.1.1 0 .2-.1.2-.1zm-3.5 3c-.2.3-.6.6-1 .7s-.8.1-1.1 0-.5-.3-.6-.5 0-.5.2-.7c.2-.3.5-.5.9-.6.2-.1.5-.1.7-.1.4 0 .8.2.9.5v.2zm-7-1.9c-.4-.1-.7-.3-1-.6s-.4-.7-.5-1c-.1-.4 0-.6.2-.8.1-.1.3-.2.4-.2s.2 0 .4 0 .3.1.5.2l.3.3c.1 0 .1 0 .2.1.3.3.4.7.5 1v.1.1c0 .3-.1.5-.2.6-.2.2-.4.2-.8.2zm6.8-5.4c-.3.8-1.2 1.3-1.7.8-.4-.4-1-.6-1.6-.8-.6-.1-1.1-.2-1.6-.1-.4 0-.8.1-1.1.3-.1 0-.2 0-.3.1.2-1 .7-2.2 1.5-2.9.7-.6 1.6-.9 2.7-.7-.1-.1 0-.1 0 0 2.1.5 2.3 2.4 2.1 3.3zm7 1.9c.3 0 .6.1.9.1-.3.2-.5.4-.7.7 0-.3-.1-.6-.2-.8 0-.1.1-.1 0 0zm-5.3 5.9c.3 0 .7-.2.9-.3.3-.1.5-.2.8-.4.3 0 .5-.1.6-.2-.1.1-.1.2-.1.2-.4.1-.6.3-.6.5-.3 0-.7.2-1 .4zm-8.9-.4c-.1.2-.4.3-.7.3s-.7-.2-1.1-.4c-.7-.5-1.1-1.3-.8-1.7s1.2-.4 1.9.1c.4.2.7.6.8.9.1.1.1.3.1.4s-.1.3-.2.4zm17.5-53.7s.1.1.1.2c-.2.2-.3.3-.4.5s-.2.4-.2.6c-.3.1-.6.3-.9.3-.5.1-.9 0-1.2-.2s-.4-.4-.5-.6c0-.2 0-.3 0-.5 0-.1.1-.1.1-.2s.1-.2.2-.3c.1 0 .1-.1.2-.1.2-.1.6-.3.9-.3.4 0 .9.1 1.2.3.2.1.3.2.5.3zm11.6 25c.1.1.2.1.3.2.3.2.5.5.7.9.1.3.2.5.2.8 0 .2 0 .4-.1.6 0 .1 0 .2-.1.2.1-.1.1-.1.1-.2.1-.5-.1-1.1-.3-1.4s-.5-.8-1-1c-.1 0 0 0 0 0 .1-.1.2-.1.2-.1zm-3-11.2c.6.1 1.3.7 1.6 1.5.1.4.2.8.2 1.1 0 .6-.2 1.1-.6 1.3l-.1.1c-.2 0-.4 0-.6.1-.1 0-.1 0-.1 0-.2 0-.3-.1-.5-.2 0-.1-.1-.1-.1-.1-.4-.3-.7-.7-.9-1.2-.3-.6-.3-1.1-.2-1.6 0-.3.1-.5.3-.7.1-.1.3-.2.4-.3s.2-.1.4-.1c.1 0 .1 0 .2.1zm-6.8-4.6c-.5-.1-.9-.3-1.2-.7s-.5-.9-.5-1.3c0-.5.2-.8.5-1.1.6-.5 1.6-.4 2.3.4.3.4.5.9.5 1.3 0 .5-.2.8-.5 1.1-.3.2-.7.3-1.1.3zm-2.3-2.9c-.4.2-.8.2-1.2 0-.7-.3-1.1-.8-1.1-1.4 0-.1 0-.1 0-.2.1 0 .1-.1.1-.2s.1-.1.1-.2c.1-.1.1-.2.2-.3.1 0 .2-.1.3-.1s.1-.1.2-.1c.4-.2.8-.2 1.2 0 .7.2 1.1.8 1.1 1.4 0 .1 0 .3-.1.4-.2.3-.4.5-.8.7zm-2.8-1.6c-.4.1-.7.1-.9.1-.2-.1-.3-.2-.4-.3 0-.1-.1-.1-.1-.2s-.1-.1-.1-.2 0-.1 0-.1c0-.2 0-.3 0-.5 0-.1.1-.2.1-.3v-.1c.1-.1.1-.1.1-.1.2-.3.5-.5.8-.6.4-.1.8-.1 1.1 0 .3.2.5.4.6.7v.3c-.2 0-.3.1-.4.2 0-.1 0-.1 0-.1 0-.2-.1-.5-.2-.6s-.3-.2-.5-.2c-.4 0-.8.2-1 .5-.1.2-.2.4-.2.6s.1.4.3.5c-.1-.2-.1-.4-.1-.5v-.1.1c.1.3.5.4.9.3.2-.1.3-.2.4-.4 0 .1 0 .2-.1.3 0 .1-.2.3-.3.4.1 0 .2 0 .3-.1-.1.1-.1.2-.1.3-.1 0-.1.1-.2.1zm8.1 8.4c.1-.1.2-.3.2-.5.1-.5.1-1.1-.2-1.7 0-.1 0-.1 0-.1l.5.2c0 .1.1.2.1.3.2.6.6 1.1 1 1.5-.6 0-1.2.2-1.6.3zm-10-8.7c-.1.2-.3.4-.3.6-.3.2-.7.3-1 .3s-.5-.2-.7-.4c-.1-.1-.1-.1-.1-.1-.1-.1-.1-.1-.1-.2-.1-.1-.1-.2-.1-.3s0-.3 0-.4 0-.1 0-.1c.1-.2.2-.4.3-.5s.1-.1.1-.1 0-.1.1-.1l.1-.1c.1-.1-.1 0 .1-.1s.5-.2.8-.2h.1c.1 0 .1.1.2.1.2.1.4.2.5.3-.1.2-.2.4-.2.6 0 .1.1.3.1.4s0 .2.1.3zm6.3-4c.4 0 .9.1 1.3.2.5.3.9.7 1.1 1.1.1.2.2.4.2.6v.2c-.1.1-.3.1-.4.2s-.2.1-.3.2c-.2.2-.3.4-.4.6-.4 0-.9-.1-1.4-.3-.5-.3-.9-.7-1.1-1.1 0-.1-.1-.3-.1-.4 0-.2 0-.3 0-.4s0-.2.1-.3.1-.2.2-.3.2-.1.3-.2c.2 0 .3-.1.5-.1zm2.7 2.8c.1-.1.2-.1.3-.1.6 0 1.5.4 2.1 1.2.5.5.8 1.1.8 1.7v.2c0 .5-.1.9-.4 1.1 0 .1-.1.1-.1.1-.2.1-.4.2-.7.2-.2 0-.3 0-.5-.1-.6-.2-1.2-.6-1.6-1.1-.7-.8-.9-1.7-.7-2.4 0-.1 0-.2.1-.3s.2-.2.3-.3c0 0 .1-.1.2-.1.1-.1.1-.1.2-.1zm3.2 4.7c.7.1 1.6.8 2 1.9.2.5.3 1 .3 1.4 0 .8-.3 1.5-.9 1.7-.3.1-.7.1-1.1-.1-.1 0-.2 0-.3-.1-.5-.4-.9-.9-1.2-1.6-.2-.7-.3-1.4-.2-2 .1-.3.2-.6.4-.8.1-.1.2-.2.4-.3.1-.1.2-.1.3-.1zm3.1 10.3c.3.2.6.6.8 1s.2.9.1 1.3c0-.6-.3-1.4-1.1-1.8-.4-.2-.8-.1-1.2 0 0 .1-.1.1-.1.1s.1-.1.1-.2.1-.2.2-.3l.1-.1.1-.1c.1-.1.1-.1.2-.1h.1c.2 0 .3 0 .5.1.1 0 .2.1.2.1zm.8 6.9c0-.1-.1-.2-.1-.3.1 0 .2.1.3.1-.1 0-.1 0-.2.2zm1.3-2.3c.1.4.1.9 0 1.2-.1-.7-.4-1.4-.9-1.7-.3-.2-.7-.3-1-.3.1-.1.2-.2.3-.2.6-.2 1.3.2 1.6 1zm.2 5.3c.4.2.8.5 1.1 1.1.1.2.2.4.2.6-.3-.4-.6-.8-1-1.1-.2-.2-.5-.3-.8-.3 0-.1.1-.2.2-.3h.3c.1 0 .1.1 0 0zm-2.1-6.5c-.2.1-.3.2-.4.4 0 .1-.1.2-.1.3-.1-.3-.2-.5-.3-.8.1.1.2.1.3.1v.1h.2c.1 0 .2 0 .3-.1zm-5.3-2.6c0-.1 0-.2.1-.2h.1c.2 0 .4-.1.4-.1h.1c.2.1.3.1.4.2.3.2.7.6.9 1.1.1.1.2.3.2.4-.2-.3-.4-.6-.8-.9-.2-.1-.3-.2-.5-.3-.1-.1-.2-.2-.4-.2-.1-.1-.2-.1-.5 0zm-1.1-2.9c.1.1.1.3.2.4s.1.3.2.4c0 .2.2.4.2.4l.3.3c-.2 0-.3-.1-.4-.2s-.2-.3-.3-.4-.2-.3-.2-.4c0-.2-.1-.3 0-.5zm-.3-1.9s.1 0 0 0c.2-.1.3-.1.4-.3.2.1.4.2.6.3.4.3.8.7 1.1 1.3s.4 1.1.4 1.6v.1c0 .3-.1.5-.2.7-.1.1-.1.2-.2.2 0 .1-.1.1-.1.1s-.1 0-.2 0c.1 0 .1-.1.1-.1.1 0 .1 0 .1-.1.1-.2.1-.4.1-.6 0-.4-.1-.8-.2-1.1-.1-.4-.5-1.3-1.2-1.8-.2-.1-.4-.2-.6-.3zm-8.6-14.1c.3-.2.6-.2.9-.2.1 0 .3.1.4.2s.2.1.2.2v.1c.1.1.1.1.1.2s-.1.2-.1.3c-.1.3-.4.6-.7.8s-.6.2-.9.2c-.1 0-.1 0-.1 0-.1 0-.2-.1-.3-.1l-.1-.1c-.1-.1-.2-.1-.2-.2v-.1-.1c0-.1 0-.2 0-.3 0 0 0-.1 0-.2 0 .1 0 .1 0 0 .1-.3.3-.5.8-.7zm9.1 1.5c-.2-.3-.4-.6-.9-1.5.2 0 .3 0 .5.1.9.2 2.5 1 4 1.8.2.1.4.2.6.3 1.3.7 4.5 4.8 4.5 4.8s-.9-2-1.3-2.7c1.3 1.2 3 4 3 4l-.7-1.7s1.9 1.7 3.5 4.8c.2.5.4.9.6 1.4.5 1.1.9 2.3 1.4 3.4.4 1.1.9 2.3 1.4 3.4.5 1.2.9 2.3 1.5 3.4.5 1.1 1.1 2.2 1.8 3.2.4.6.8 1.1 1.2 1.5.2.2.4.4.7.6.1.1.3.2.5.3 0 0-2.4 0-3.8-1.7.4 1.1 1.9 3 1.9 3s.4-.3.6 0c.2.2.1.4.1.5-.1.2-.2.3-.2.5 0 .3.2.6.6.6.3 0 .6-.2.6-.6.8.2 2 .4 3.2.2-1.1-.1-2.9-.6-3.5-1.2 1.9.6 3.4.7 5.4.4 0 0 2.1 2.9 3.6 3.1-1.1-.5-1.5-2.3-1.2-3.7.2-.8.2-1.4.1-1.8l.4.4c.2.2.4.3.7.5.2.1.5.2.8.3-.5-.3-.9-.8-1.3-1.2s-.7-.9-1-1.4c-.1-.2-.2-.5-.3-.7 0-.1 0-.2 0-.2v-.1-.1c0-.1 0-.2 0-.3.1-.2.2-.5.3-.7.1-.1.1-.2.2-.3s.1-.1.2-.2c.3-.1.5-.3.8-.4-.2.2-.4.4-.6.7-.1.3-.2.7-.2 1 0 .4.2.7.4.9-.2-.3-.2-.6-.2-.9s.1-.5.3-.7.4-.4.7-.5.5-.2.8-.3c.1-.1.4-.1.4-.1h.4c.2 0 .5 0 .8.1.6.1 1.1.3 1.6.6.1 0 .2.1.3.2-.1-.1-.2-.1-.3-.1-.4 0-.9-.1-1.4-.1s-.9 0-1.4.1c-.4 0-.9.2-1.3.4.4-.1.9-.1 1.3 0 .5 0 .9.1 1.3.3.1 0 .2.1.3.1 0-.2.2-.4.4-.4s.4.3.4.6v.2h.1c.3.1.5.3.7.4-.2.1-.4.2-.6.3-.5.2-1.1.3-1.7.4s-1.2.1-1.8.1c.6.2 1.3.3 1.9.3s1.3 0 1.9-.2c.3-.1.6-.2.9-.4.1-.1.3-.2.4-.4.2-.1.3-.3.3-.5.1-.2 0-.4 0-.6s-.1-.3-.2-.5c-.3-.3-.5-.5-.8-.7-.1-.1-.3-.1-.4-.2.9.3 2.1 1 2.3 2.3.3 1.8-1.2 3-1.3 4.2s0 1.7.8 2.5c-1-1.6.1-2.9.1-2.9s0 1.4.6 1.8c-.5-1.2.1-3.2.1-3.2s0 1.9.6 2.4c-.2-.9.5-2.5 1.5-3.3-.3.7-.8 2.3 0 3.5 1.2-2.5 5.8-6.4 6.1-6.6-.1.2-1.2 1.4-1.7 2.3 5.7-5.8 11.4-4.8 11.4-4.8s.3-.1.7-.3h.1s.2 0 .5-.1c.8-.2 2.3-.4 3.7.2 1.2.5 3.1 1.6 5.7 4.1-1.5-1.2-5.1-3.7-7.9-3.1 1.2.2 2.3 1.1 2.3 1.1l-1.7-.4c.2 0 1.1.4 1.5 2.7.5 2.5 2.5 3.8 2.5 3.8s.1 0 .1.1c-.1.1-.2.2-.2.4 0 .4.2.6.6.7 0 .3.3.5.6.5h.2c.2.2.4.4.7.6-.1.1-.2.2-.2.4 0 .3.3.6.7.6.2 0 .4-.1.5-.2.2.2.4.3.6.4-.1.1-.1.2-.1.3 0 .3.3.6.6.6s.5-.1.6-.4c.7.2 1.5.4 2.3.3.6.1 1.5 1.6 1.1 3 .6-.8 1.1-1.7.7-2.9.2-.2.4-.2.5-.1 0 .1.1.2.1.3.1.1.1.3.2.4.3.5.3.6.1.8v.1c-.1.1-.1.1-.2.2-.2.1-.4.3-.5.6 0 .1-.1.2-.1.4v.1c-1.1 4.3-4.1 7.7-6.5 9.8-1.5 1.3-2.8 2.3-4 2.9-.2.1-.4.2-.6.3-1.3.4-3.5.6-5 .3 2.2-.2 4.2-.4 5.8-1.4-2.3.2-4.8-.2-6.7-1.5s-1.9-2.6-1.1-2.8c-.7-.5-1-1.2-1.1-1.6l1.5 1.1s-1.1-1.2-1.4-2.4l.8.9c-.1-.1-.4-.6-.1-1.9-.2-.1-.4-.3-.4-.5 0-.3.2-.5.4-.5h.2c0-.1 0-.2.1-.4h.1c.2 0 .4-.2.4-.5 0-.2-.1-.3-.2-.4.1-.3.2-.5.3-.7.2.1.4.2.6.1s.4-.3.4-.5c0-.4-.2-.7-.6-.7.2-.5.4-.9.6-1.4.1.1.1.1.2.1.3 0 .5-.2.5-.5s-.1-.4-.3-.5c0-.1.1-.1.1-.2-.2 0-.4-.2-.4-.4s.2-.4.4-.4c.1 0 .2 0 .3.1.1-.1.1-.3.2-.4.1.1.1.1.2.1.2 0 .4-.2.4-.5 0-.1-.1-.3-.2-.4.5-1.1 1.1-2.6.2-5.1-1.2-3.1-4.3-3.1-6.8-2.3-2.2.6-6.2 3.1-7.2 8.8.3.1.6.4.6.8s-.3.8-.7.8h-.1v1c0 .7 0 1.4.1 2.1h.3c.2 0 .4.2.4.4.1.3-.2.6-.5.6 1 5.7 4.7 9.2 8.7 10.1-6-1.1-11.7-5.9-12.6-9.8-1.1 1.3-.6 3.4 0 4-.7-.3-3.4-1.3-2-4.4-.8.5-1.2 2.3 0 4.5 1.2 2.1.4 4-1.8 4.6.1 0 .1-.1.2-.1.3-.2.6-.4.8-.7s.4-.6.5-1c0-.1 0 .1 0-.1s.1-.4 0-.6-.2-.4-.3-.5c-.5-.6-1.2-.9-1.8-1-1.3-.2-2.6.1-3.7.7.6-.2 1.2-.3 1.8-.3s1.1 0 1.7.2c.3 0 .6.2.8.3 0 .1.1.1.1.1-.2.2-.4.3-.6.4-.1.1-.3.1-.4.2v.1c0 .3-.2.6-.4.6s-.3-.2-.4-.4c-.5.1-.9.2-1.4.2-.4 0-.9 0-1.4-.1.4.2.9.4 1.4.5s1 .2 1.5.2c.6 0 1.1 0 1.6-.1.1 0 .3-.1.5-.1l-.1.1c-.2.2-.4.3-.6.5s-.4.3-.7.4c-.2.1-.5.1-.8.2s-.6.1-.9.1h-.2c-.1 0-.1 0-.2 0s-.3-.1-.4-.1c-.3-.1-.6-.2-.8-.4-.2-.1-.4-.4-.6-.6l-.1-.1s-.1-.1-.1-.2c-.1-.1-.2-.2-.2-.4 0 .1.1.3.1.4s.1.2.1.3c.1.1.1.1.1.2.2.3.4.6.6.8s.5.4.8.6c.2.1.3.2.5.2h.1c-.1 0-.2 0-.3 0-.6-.1-1.3-.3-1.8-.7 0-.1-.1-.1-.1-.1s0-.1-.1-.1c-.1-.1-.2-.2-.3-.3s-.1-.1-.1-.2c-.1-.1-.2-.2-.2-.3v-.1c-.1-.2-.1-.3-.1-.4v-.1c0-.4 0-.9.1-1.3 0-.5.2-.9.4-1.3s.5-.8.8-1.1c-.3 0-.5.1-.7.3l-.1.1-.1.1.1-.5s-1-2.2-.1-3.9c-1.2.8-2.4 2.1-2.7 3.6 0 0 .1-.3.5-.6v.5s-.5 1.1-.4 1.7c.4-.4 1.2-.4 1.2-.4s-.9.2-1.7 2.6l.2.2s-.1.1-.3.3c-.1.1-.2.3-.3.5-.1.1-.1.2-.2.4-.2.3-.3.8-.3 1.4l.9-.2c-.7.6-1.5 1.3-2.1 2.3-.5.8-1.9 2.7-2.8 5.7.1-1.5 1.1-5.5 2.6-8-.2.1-.3.2-.5.4s-.4.4-.6.6-.4.5-.6.7c-.4.5-.7 1-.7 1 .1-.2 1.3-3 2.6-4.9-.8.7-1.5 1.5-2.1 2.2-.2-.1-.4 0-.5.2 0 .2 0 .3.1.4-.3.3-.6.7-.8 1.1-.1 0-.1 0-.1 0-.2-.1-.5.1-.6.4s0 .6.2.7c0 .1-.1.2-.1.3.3 0 .5.2.5.4s-.2.4-.5.4c-.1 0-.2-.1-.3-.1-.3.7-.5 1.4-.6 2.2.2.1.3.3.3.4-.1.1-.2.1-.4.1-.2 1.2-.2 2.5 0 3.7.1.5.2 1.1.3 1.6.1.4.3.9.4 1.3.2.6.4 1.2.7 1.8.1.3.2.5.3.8s.3.5.4.8l.3.6c3.1 5.9 4.3 10.4 4.5 12v.2.2.4c0 .9-.1 1.9-.3 2.8 0 .2-.1.3-.1.4 0 .2-.1.3-.1.4-.6 2.3-1.7 4.2-3.2 5.7.1-.2.1-.3.2-.5.4-1.1.2-2-.4-2.6-.1 0-.1-.1-.2-.1.3-.1.5-.2.7-.4.3-.3.5-.7.6-1s.1-.5.2-.7c0-.1.1-.2.1-.3v-.1c.1-.1.1-.3.2-.4 0-.1 0-.3.1-.4.1-.3.2-.6.4-.8.1-.2.2-.3.3-.3s.2 0 .4.1c0-.1-.2-.3-.4-.3-.1 0-.2.1-.3.1-.1.1-.2.1-.3.2-.3.3-.4.6-.6.9s-.3.6-.4.9c-.1.1-.1.3-.2.4-.1.2-.1.3-.2.5v.1c-.1.3-.2.5-.4.7.1 0 .1-.1.1-.1.1-.2.1-.3.2-.5.1-.1.2-.3.2-.5.1-.2.1-.3.1-.5 0-.5 0-1-.1-1.5-.2-.8-.6-1.4-1-1.9-.1-.1-.2-.2-.3-.3s-.2-.2-.3-.3c-.3-.2-.6-.3-.9-.4.2 0 .4-.1.6-.2.3-.2.4-.5.5-.8s.1-.6.1-.9c0-.1 0-.3 0-.4v-.2c0-.1 0-.1 0-.2 0-.5.1-1 .3-1.5.1-.2.2-.5.4-.6.1-.1.2-.1.3-.1s.3 0 .4.1c-.1-.1-.3-.2-.4-.2s-.3 0-.4.1c-.2.1-.4.4-.6.6-.4.5-.5 1-.6 1.6v.2.2.4c0 .2 0 .5-.1.7s-.2.4-.3.5c.3-.8.2-1.9-.3-3-.7-1.4-1.8-2.4-2.9-2.8-.3-.1-.6-.1-.9-.1l.1-.1c.1-.2.3-.4.4-.6.3-.4.6-.8 1-1.1.2-.1.4-.3.6-.4.1-.1.2-.1.3-.2s.1-.1.2-.1c.1-.1.1-.1.2-.1.5-.1 1-.1 1.5 0-.3-.1-.5-.2-.8-.2s-.5 0-.8 0c-.1 0-.1 0-.2 0-.1.1-.1.1-.2.1-.2.1-.3.1-.4.2-.2.1-.5.2-.7.4-.4.3-.7.6-1 .9 0-.6-.3-1.2-.8-1.8-.6-.7-1.5-1.2-2.3-1.3.2-.1.4-.3.6-.5.3-.3.7-.6 1.1-.9s.8-.5 1.3-.6h.2.2.4c.2 0 .3.1.4.1.2 0 .3.1.4.1-.4-.3-1-.4-1.5-.4-.5.1-1 .2-1.5.5s-.9.6-1.3.9c.1-.4-.1-1-.4-1.5-.4-.6-1-1.1-1.6-1.4.2-.1.5-.2.7-.3.1-.1.2-.1.3-.2s.2-.1.3-.2c.4-.3.9-.5 1.4-.6.5-.2 1-.2 1.5 0-.2-.2-.4-.3-.7-.3s-.5 0-.8 0c-.3.1-.5.1-.8.2s-.5.2-.8.3c-.2.1-.3.1-.4.2s-.2.2-.3.2c-.2.1-.5.2-.7.2-.4.1-.9.1-1.3.2 0-.1-.1-.2-.1-.3-.2-.7-.7-1.2-1.2-1.5h.2c.3 0 .5 0 .8-.1.2-.1.5-.2.7-.3s.4-.3.6-.4.5-.2.7-.3c.5-.1 1-.1 1.5 0-.4-.2-1-.3-1.5-.2-.3 0-.5.1-.8.2s-.5.2-.7.3c-.5.2-.9.3-1.4.3-.4 0-.8-.1-1.2-.1 0-.2-.1-.5-.1-.7 0-.1 0-.1 0-.2.1.1.3.1.5.1.7 0 1.6-.1 1.6-.7 0-.7-1.3-1.2-2-1.2-.1 0-.2 0-.3 0 0-.2 0-.3 0-.5.3.1.5.2.8.3.5.1 1 .1 1.5 0 .3-.1.5-.1.7-.2s.4-.1.6-.2c.3 0 .5-.1.7-.1h.3c.1 0 .2 0 .3.1-.1-.1-.2-.2-.3-.2-.1-.1-.2-.1-.3-.1-.2 0-.5 0-.7 0s-.5.1-.7.1c-.3.1-.5.1-.7.1-.4.1-.8 0-1.2-.1s-.7-.2-1-.4c0-.2 0-.4 0-.6 1 .2 2.3 0 1.3-1.1.9.4 2.2 0 2.2 0s-1 0-1.8-1.1c1.7 0 2.6.1 3.4 1.3.1-.6-.9-1.8-.9-1.8s2.9 2.5 3.8 1.4-.7-2.9-.7-2.9.9.6 1.2 1.3c.1-1.5-1.8-3.1-3.2-3.5 1.1-.1 2.2.6 2.2.6s-.9-1.2-3.5-1.6c1.3-.5 3.2.3 3.2.3s-.8-.8-1.8-1c1.9-.2 3.2.2 3.6.7-.4-.8-1.3-1.2-1.3-1.2s2.9-1.1 3.5-1.3c.3-.2.7-.3 1-.5.6-.3 1.2-.6 1.8-1 .6-.3 1.2-.7 1.7-1.1-1.2.7-2.4 1.3-3.6 1.8-.6.3-1.3.5-1.9.6-.2 0-.3.1-.5.1l-.5.1c-.3.1-.7.1-1 .2-1.3.2-2.6.6-3.9 1.1s-2.5 1.2-3.6 2c-1.8 1.1-3.5 2.3-5.2 3.5-3.1 2.2-6 4.2-8.4 5.3-3.8 1.7-7.9 1.6-10.6 1.1-1-.2-2.7-.7-2.8-.7-4.5-1.5-6.8-4.8-6.8-9.6 0-3.5 2.4-5 3.8-5.6.6-.2 1.3-.4 2-.5h.4c-1.2.5-2.4 2.1-2.9 3.6-.1-.1-.3-.3-.5-.3-.1 0-.3 0-.4 0s-.2.1-.3.2c-.2.2-.2.5-.2.7 0-.3.1-.5.3-.6.1-.1.3-.2.5-.1s.4.2.5.4.2.4.2.6 0 .4 0 .6-.1.4-.3.5-.4.1-.6 0-.4-.2-.5-.4c0 .3.2.5.4.6.1 0 .4.1.4.1h.1v.3c-.1.1-.2.1-.3.2-.2.2-.3.5-.3.8v.3c0 .4.2.8.6 1.2s.8.6 1.2.7c.4 0 .7 0 1-.2 0 .1 0 .2-.1.3-.2.2-.4.2-.4.5-.1-.1-.3-.1-.5.1-.2-.4-.5-.8-.9-1.1-.9-.6-2-.6-2.4 0-.1.2-.2.4-.2.6 0 .5.3 1.2 1 1.6.4.2.9.4 1.3.4s.8-.2 1-.5c.1 0 .1-.1.1-.1.3.4.9.3 1.3 0 .3.1.6.2 1 .2s.7-.1 1-.2c0 .6.4.7.8.5.1.2.3.3.6.4.4.1.9.1 1.3 0 .5-.2 1-.5 1.2-.8l.9.6c-.5.1-.8.4-.9.7-.4-.3-1.1-.5-1.8-.3-.3.1-.6.2-.8.3-.4-.2-.9-.2-1.3.2-.2-.6-.9-1-1.8-1.1-.5 0-1 0-1.4.2 0 0-.1 0-.2.1-.4.1-.8.3-.9.7 0 .3.2.6.9.8.2.2.5.3.8.4.4.4.9.8 1.4 1.1.7.4 1.4.6 2.1.8-.7-.2-1.4-.6-2-1-.4-.2-.6-.4-.9-.7.7 0 1.3-.2 1.6-.5.2 0 .4 0 .5-.1 0 .1.1.2.2.4.1.3.4.6.9.7.6.4 1.3.9 2 1.2.3.2.7.3 1.1.4s.8.1 1.2-.1c-.3.2-.7.1-1.1 0-.3-.1-.7-.3-1-.5-.5-.2-.9-.6-1.3-.9.1-.1.3-.1.4-.1.5-.1.9-.3 1.2-.6.2-.2.3-.4.4-.6.1-.1.2-.3.2-.3h.3v.1c0 .1 0 .3.1.4 0 .1.1.1.2.2.6.4 1.1.7 1.7 1 .3.1.6.3.9.4s.6.3.9.3c-.3-.1-.6-.2-.9-.4s-.5-.4-.8-.6-.5-.4-.8-.6c.3 0 .7-.2 1-.4.4-.3.7-.6.9-1 0-.1.1-.2.1-.3.4.5.9.9 1.5 1.2.4.1.7.3 1.1.4.3.1.7.2 1.1.2-.7-.2-1.4-.6-2-1-.3-.2-.7-.5-.9-.9.5 0 1.1-.3 1.6-.7.4-.3.7-.8.9-1.2.1-.1.1-.2.1-.3.1.1.3.2.4.3l1.2.6c.4.2.8.3 1.2.4.5.1.9.1 1.3 0-.4 0-.8-.1-1.2-.2s-.7-.3-1.1-.5-.7-.4-1-.7l-.1-.1c.7-.1 1.4-.5 2-1.2s.8-1.5.7-2.2c0 0 0 .1.1.1.5.2.9.4 1.4.5.9.2 1.9.2 2.8 0-1 0-1.9-.1-2.7-.4-.4-.1-.8-.3-1.1-.6-.1-.1-.1-.1-.1-.1.8-.1 1.6-.9 2-2 .2-.6.3-1.1.3-1.6.1.1.3.2.4.3.3.2.6.3.9.3.3.1.6 0 .9 0s.8-.1.8-.1h.8c.6 0 1.1.1 1.6.3-.4-.3-.9-.5-1.5-.6-.2-.1-.5-.1-.8-.1s-.5 0-.8 0-.6 0-.8-.1-.4-.2-.6-.3-.3-.2-.4-.3c.3 0 .6 0 1-.1.6-.1 1.2-.5 1.7-1.1.7-.8 1-1.6 1-2.3.1 0 .2.1.3.2.4.3.9.5 1.4.7s1.1.2 1.6.2 1-.2 1.4-.6c-.4.3-.9.3-1.4.3s-1-.2-1.4-.4-.8-.5-1.2-.8c-.1-.1-.1-.2-.2-.2.5 0 1.1-.2 1.7-.5s1.1-.7 1.4-1.2c.2-.3.3-.6.3-.8 1 .8 2.4 1.2 4.5.6-1.6 0-2.5-.2-3.4-1.3.3-.2.6-.4.8-.6.3-.1.5-.2.8-.3h.1c1.1.7 2.6 1.4 4.6.9-1.6-.1-2.8-.4-3.7-1.2.1 0 .1-.1.2-.1.3 0 .5-.1.5-.1s-.1-.5.3-.4 1.5.4 2.1.3c.3 0 .5-.3.5-.3 1.9.5 4.6-.1 4.6-.1l.3-.1h.5c-.2 0-.4 0-.6 0-.5-.2-2-.5-3-.6-.7-.5-1.6-.7-2.4-.8 0 0 1.6-1.5 3.7-.7-1-.5-2.1-.5-3-.1s-2.2.6-2.8.4c-.5-.2-.9-.5-1.4-1-.1-.2-.2-.3-.4-.5 0-.1-.1-.1-.1-.1l-.1-.1c.5-.5 1.6-1 2.2-1.1.7-.2 2.4-.1 2.4-.1s-1.4-.5-3.1-.2c-.9.1-1.5.3-1.9.5.1-.1.1-.3.1-.4 0-.4-.1-.9-.3-1.3s-.5-.8-.8-1c.3-.1.7-.2 1-.3s.6-.2.9-.2c.4 0 .7-.1 1 0-.3-.2-.7-.2-1-.2s-.7 0-1 0-.5.1-.8.1c.2-.4.1-1-.1-1.5-.2-.4-.5-.8-.8-1h.1c.4-.1 1.2-.1 1.2-.1h1.2c.2 0 .4.1.6.1.1 0 .3.1.5.2-.1-.1-.3-.2-.5-.3s-.4-.1-.6-.2c-.4-.1-.8-.2-1.2-.2-.4-.1-.8-.1-1.2-.1.3-.5.4-1.2.1-1.8-.2-.5-.6-.9-1.1-1.1h.5 1c.4 0 .7.1 1.1.1-.3-.2-.7-.3-1-.4-.4-.1-.7-.1-1.1-.2-.2-.1-.5-.1-.7-.1.3-.5.3-1.2 0-1.9-.1-.3-.3-.6-.5-.8h.6c.4.1.8.1 1.2.2s.8.2 1.2.3c-.3-.2-.7-.4-1.1-.5-.4-.2-.8-.3-1.2-.4-.3-.1-.6-.2-.9-.2.5-.7.6-1.7.2-2.7-.3-.7-.8-1.2-1.3-1.5.2-.1.3-.1.4-.1.5-.1.9-.1 1.4 0s1 .2 1.4.4c.5.2.9.4 1.3.7-.3-.4-.7-.7-1.1-1-.5-.2-.9-.4-1.4-.6-.4-.1-1-.2-1.5-.2-.1 0-.1 0-.2 0 .5-.8.6-1.9.1-3.1-.3-.7-.8-1.3-1.3-1.7.1.1.2.1.3.1.6.1 1.2.4 1.8.8.1.1.3.2.4.3s.3.2.4.3l.8.7c.3.2.5.5.8.7s.6.5.9.6c-.3-.2-.6-.5-.8-.7-.2-.3-.5-.5-.7-.8l-.7-.8c-.2-.1-.3-.3-.4-.4-.1-.2-.3-.3-.4-.4-.5-.5-1.2-.8-1.9-1.1-.3-.1-.7-.2-1.1-.2-.1 0-.2 0-.3 0 .2-.4.2-.8.2-1.2-.1-.7-.4-1.4-.9-2-.2-.2-.4-.4-.6-.6.3.1.5.2.8.3.5.3.9.5 1.4.7.2.1.5.2.7.3l.3.2c.1.1.2.1.3.2-.8-.7-1.7-1.3-2.6-1.8-.4-.2-.9-.5-1.4-.7l-.4-.2c-.1 0-.3-.1-.4-.1-.2 0-.5-.1-.7-.1-.1-.1-.1-.3-.2-.5zm-16.5 63.3c-.9-.6-1.6-2.4-1.8-4.4.1-.3.6-.2 1-.1s.7.6.6 1.1c-.2.9-.1 1.8.2 2.4.4.8 1.1 1.4 2 1.7h.1.3c-.3.1-1.3.1-2.4-.7zm25.6 0c.2-.1.3-.1.5.3v.3c-.1 0-.2 0-.3 0s-.2.1-.2.2v.3l.1-.1c0-.1.1-.2.2-.2h.1c-.1.5.4 1.3.8 1.7l.1.1c-.1 0-.1 0-.2 0 0 0-.1 0-.2 0s-.2-.1-.3-.1c.1.2.2.3.4.4h.4c.1 0 .2-.1.3-.2 0-.1.1-.2.1-.3.1 0 .3.1.4.2v.2c-.1.1-.2.2-.3.3-.1 0-.1.1-.2.1h-.1c-.1 0-.3 0-.4-.1-.5-.1-1-.6-1.3-1.2-.3-.5-.3-1-.2-1.4 0-.1 0-.2.1-.3 0-.1.1-.2.2-.2 0 0 .1 0 0 0zm-8.1-1.1c1.4-.1 2.7 0 4.4.1.7.2 1.3.6 1.8 1 1.1.9 1.7 2.2 1.7 3.7 0 1.2-.3 2.2-1.1 2.9-1.1 1-2.7 1.2-3.8 1.1-.7-.1-1.3-.3-1.7-.7-.7-.6-1.1-1.5-1-2.3 0-.6.2-1.1.6-1.5.1-.1.2-.2.4-.3.3-.2.8-.3 1.3-.3s.9.2 1.2.5c.4.5.4 1.2.4 1.5-.1.4-.4.7-.8.9-.3.2-.6.2-.9.1.2-.1.4-.2.5-.4.1-.1.1-.2.2-.3.2-.3.2-.6.1-.9-.2-.5-.7-.8-1.2-.7s-.9.5-1 1.1v.2c0 .4.1.8.3 1.1l.1.1v.1c.5.8 1.5 1.1 2.6 1 .4 0 .6-.2.9-.3.1 0 .1-.1.2-.1.3-.2.7-.4.9-.7.3-.4.4-.7.6-1.1-.3.3-.5.5-.8.7.2-.6.2-1.3.1-1.7-.4-1.2-1.9-3.2-5.4-2.7-1 .2-1.9.5-2.7 1 .1 0 .1-.1.2-.2s.2-.3.3-.4c.1-.2.1-.3.2-.5-.5.3-1.1.6-1.6 1-.1.1-.3.2-.4.3-.2.1-.3.2-.4.3-.2.3-.4.5-.6.8-.4.5-.6 1.2-.8 1.8 0 .2-.1.3-.1.5s-.1.3-.1.5c0 .4-.1.7-.1 1v.1c-.1 1-.2 3.2.6 5.4 1.1 2.8 3.2 4.7 6.5 5.7-1 1.3-2.9 2.1-3 2.1 0-.1 1.1-1 1.2-1.8-1.3 1.3-2.6 1.7-3.8 1.8-.2-.2-.4-.3-.7-.5-.1 0-.1-.1-.2-.1.8-.2 1.5-.4 1.5-.4-2.8.3-4.1-.8-4.6-1.5 0 0 0-.1 0-.2.1.1.3.2.5.3.3.1.7.2 1.1.3.3.1.7.1 1.1.1s.7-.1 1.1-.1c-.4 0-.7 0-1.1-.1s-.8-.2-1.1-.3c-.4-.1-.7-.2-1-.4s-.6-.4-.8-.6c-.1-.1-.5-.6-.7-1.3.2 0 .3.1.4.1.3.1.7.2 1 .3l1 .2c.4.1.7.1 1 .3-.3-.2-.6-.4-.9-.5l-.9-.4c-.3-.1-.6-.3-.9-.4s-.6-.2-.8-.4c-.5-.5-1-1.6-.9-2.9 0 0 .1.1.2.1.3.1.5.3.8.4.5.2 1.1.5 1.6.7-.5-.3-.9-.7-1.4-1-.3-.1-.5-.3-.7-.5s-.4-.4-.6-.6c-.3-.2-.3-.6-.3-1.1 0-.2 0-.4.1-.6s.1-.4.2-.6c.1.2.2.4.4.6.1.2.3.4.5.6.2.1.4.3.6.5-.1-.3-.3-.5-.4-.7-.2-.2-.3-.5-.4-.7-.2-.5-.4-1-.4-1.4 0 0-.1-1.2.6-2.1.1.2.2.5.3.7.2.4.4.8.7 1.2-.2-.4-.3-.9-.4-1.3-.1-.5-.2-.9-.1-1.3.1-.9.6-1.5 1-2v.3c0 .2 0 .4.1.6s.1.4.2.6c0-.2 0-.4 0-.6.1-.2.1-.4.1-.6s0-.4.1-.6c0-.2.1-.3.2-.4 0 0 .6-.6 1.6-1.3-.1.4-.1.7-.1 1.1.2-.3.3-.7.5-1 .1-.1.2-.3.3-.4s.2-.1.3-.2c.4-.3.9-.5 1.4-.7.1-.1.1-.1.2-.1-.1.2-.2.5-.2.7.2-.3.4-.5.6-.7.1-.1.2-.1.3-.2l1.2-.3c.3 0 .5-.1.8-.1zm-6.4 23.3c0-.1 0-.1 0-.2 0 .1.1.1.2.2v.1c.1.1.1.2.1.2v-.1l.1-.1h.1c0 .2.2.3.3.5.3.3.8.6 1.1.7-.1 0-.1 0-.1 0-.2 0-.3 0-.5 0 .2.2.3.2.5.3h.3.2c.1 0 .1 0 .2-.1.1.1.2.1.3.2 0 0-.1.1-.2.1-.4.1-1-.1-1.5-.5s-.9-.9-1.1-1.3zm2.9 2.5c.1-.1.1-.1.2-.2.1 0 .2-.1.4-.1h.1.2c.3 0 .6.1.9.1.5.2 1 .5 1.2.9l.1.1c.1.1.1.2.1.3v.1c0 .1-.1.1-.2.2-.4.1-1 .1-1.6-.2-.8-.3-1.3-.9-1.4-1.2zm7.6 2.6c-.3.3-1 .4-1.8.4-1-.1-1.8-.7-1.9-1.1 0-.1 0-.3.1-.4.1 0 .2-.1.4-.2 0 0 .1-.1.2-.1.1-.1.4-.1.4-.1h.1.2.1 1c.5.1 1 .3 1.2.6.1.1.2.4.2.4v.1c0 .1 0 .2-.1.3zm3.4 1.4c-1.1-.2-2.1-.7-2.4-1.3-.1-.1-.1-.1-.1-.2s0-.1 0-.2 0-.2.1-.3c0-.1 0-.1 0-.1.2-.2.5-.4.8-.5.1 0 .3-.1.5-.1.4.1.7.2 1.1.2h1.1c.6.2 1 .5 1.3.8.1.2.2.3.2.4v.2.2c0 .2-.1.3-.2.4-.5.3-1.4.5-2.4.5zm23.6 8.4c-.2-.1-.4-.2-.5-.3s-.2-.2-.2-.3 0-.1 0-.1c0-.2.1-.5.3-.7.3-.2.6-.3 1-.4.8-.1 1.5.3 1.6.8v.1c0 .1-.1.2-.1.3-.1.1-.1.3-.3.4-.2.2-.5.3-.9.4-.3.1-.6.1-.9-.2zm4.2-.7c-.1-.1-.2-.2-.3-.3s-.1-.1-.1-.2 0-.1 0-.2v-.1c0-.2.1-.3.2-.5 0-.1.1-.1.2-.2.2-.2.5-.4.8-.5.7-.1 1.4 0 1.7.3.1.1.2.2.2.3v.2.2c0 .1-.1.3-.2.4-.3.3-.7.6-1.1.7-.5.2-1.1.1-1.4-.1zm5.8-2.3c-.3.2-.7.3-1 .3-.1 0-.3 0-.4 0 0-.1-.1-.1-.2-.1-.2 0-.3-.1-.4-.2s-.2-.1-.2-.2c-.1-.3-.1-.6.1-1s.5-.8 1-1c.9-.5 1.9-.4 2.2.2v.1c.1.1.1.2.1.3v.1c0 .2-.1.3-.2.6-.2.4-.5.7-1 .9zm2.6-2.7c-.2.1-.4.1-.6.1-.1 0-.2 0-.3-.1-.4-.3-.1-1.5.9-2.5 1-1.1 2.1-1.4 2.5-1 0 .1.1.1.1.2.1.1.1.2.1.3v.2c-.1.1-.1.2-.1.3-.1.2-.2.5-.4.8-.2.2-.4.5-.6.7-.1.2-.3.3-.4.4-.4.4-.8.6-1.2.6zm3.4-4c-.2 0-.4 0-.5 0h-.1c-.5-.3-.5-1.5.1-2.8.1-.1.1-.3.2-.4.4-.7.9-1.2 1.4-1.6.3-.2.6-.3.8-.3.1.1.2.1.3.2s.2.1.2.1h.1c.1 0 .1.1.1.1.1.2.1.4.1.6v.1.1c0 .6-.2 1.3-.6 2-.3.7-.8 1.2-1.2 1.5-.3.2-.5.3-.9.4zm3.5-5.4c-.2.1-.4.2-.5.2s-.1 0-.2 0l-.1-.1c-.1 0-.1-.1-.2-.2-.1-.2-.2-.4-.2-.6-.1-.6-.1-1.6.2-2.6.2-.5.4-1 .6-1.4.3-.5.6-.9.9-1.1l.1.1h.2.1.2s.1-.1.2-.1c0 .1.1.1.1.2.1.3.2.7.2 1.2s-.1 1.1-.3 1.8c-.3.8-.7 1.6-1.1 2.1-.1.2-.2.3-.2.5zm2.6-9.1c-.1.9-.3 1.7-.6 2.3-.1 0-.1.1-.2.2l-.3.3c-.1 0-.1.1-.2.1s-.1 0-.1 0c-.1.1-.2.1-.3.1s-.1 0-.1 0c-.1-.1-.1-.1-.2-.1 0 0-.1-.1-.2-.2-.4-.5-.7-1.6-.6-2.9 0-.1 0-.1 0-.2.1-.9.3-1.7.6-2.3 0-.1.1-.1.1-.2h.3s.1-.1.2-.1c.2-.1.3-.1.4-.2 0-.1.1-.1.2-.2l.1.1c.1.1.2.3.3.6.2.4.3 1.1.3 1.9 0 .2 0 .4.3.8zm-1-5.5v.6c-.1.4-.2.7-.3.9v.1c-.1.1-.1.1-.2.2s-.3.3-.5.3h-.1-.1c-.1 0-.1 0-.2 0-.2-.1-.5-.2-.8-.5-.1-.1-.1-.2-.2-.3-.4-.5-.6-1.1-.8-1.7-.1-.4-.1-.7-.1-1.1 0-1.1.4-1.9 1-2.1.3-.1.7.1 1.1.4l.1.1c.2.3.4.6.6.9s.3.6.4 1 .2.8.1 1.2zm-8-8.2c.3.4.6.9.9 1.4-.1-.1-.1-.3-.1-.4s-.1-.3-.1-.4 0-.3-.1-.4-.1-.3-.2-.4c-.1-.2-.1-.3-.2-.4-.1-.2-.1-.3-.2-.4 0-.1-.1-.2-.2-.3 0-.1-.1-.2-.2-.3 2.3 1.3 4.1 2.6 5.5 4l.1.1.3.3c-.1.2-.1.5-.2.9-.1-.2-.2-.5-.4-.7-.4-.5-1-.8-1.5-.9.5.3.9.7 1.2 1.1.1.2.2.5.2.7s0 .5-.1.7c-.2.4-.6.8-1 1-.5.2-1 .3-1.5.3-.1 0-.1 0-.1 0-.1-.1-.2-.1-.3-.2-.4-.1-.7-.2-1.1-.3-.4-.3-.6-.8-.7-1.2-.1-.5.1-.9.4-1.3s.8-.7 1.3-.9c-.6 0-1.1.1-1.6.5 0-.1.1-.3.1-.4 0-.3 0-.7-.1-1s-.3-.6-.5-.8c-.5-.5-1.1-.7-1.7-.8.6.2 1.1.5 1.5 1 .2.2.3.4.4.7s.1.5 0 .8c-.1.5-.4 1-.9 1.3s-1 .5-1.6.5c-.2 0-.5 0-.8-.1s-.6-.2-.8-.3c-.5-.3-.9-.7-1-1.2s0-1 .3-1.5.8-.9 1.3-1.2c-.6.1-1.2.4-1.6.8-.1-.6-.5-2.2-1.3-3.1.4.7.5 1.5.6 2.1-.5-.6-1.3-1.1-2.3-1.2-.8-.1-1.5 0-2.1.3-.1-.4-.1-.8-.1-1.2-.1-.3-.1-.7 0-1.1s.2-.7.5-1c-.1.1-.3.2-.4.4-.1.1-.2.3-.3.5-.1.4-.2.8-.3 1.2s-.1.7-.2 1.1c-.4-.6-1.1-1.1-1.9-1.3h-.1c.5-.5 1.1-1.8.7-2.8 0 1.4-1 2.5-2.6 2.8.9-.5 1.8-2 1.6-3.5-.5 2.7-2.6 3-4 2.5 2.3.1 3.5-2 3.1-3.7.7 0 2.9.5 4.7 1.2.9.5 1.7 1.2 2.4 2 .9 1 1.6 2.1 2.3 3.2-.2-.7-.5-1.3-.8-1.9s-.7-1.2-1.1-1.7c-.1-.1-.1-.1-.2-.2.9.5 1.9 1.1 3.1 1.7l.6.3c.4.2.8.5 1.2.8.5.3.8.7 1.2 1.1.4.3.7.8 1 1.2zm-24.1-9.8c0 .2-.2.4-.4.4s-.4-.2-.4-.4.2-.4.4-.4c.3 0 .4.2.4.4zm-.4 1.7c.2.1.2.1.2.2s-.1.2-.2.2c-.1-.1-.2-.1-.2-.2s.1-.2.2-.2c0 0 .1 0 0 0zm2.4-1.1c-.1.4-.2.7-.2 1.1-.2 2.2-.2 4.2 0 6.3v.3.3c.1 1.1.3 2.1.5 3.2.1.1.1.2.1.3.1 0 .1.1.1.2.1.1.1.2.1.3s.1.3.1.5c.3 1.3.7 2.6 1.1 4-.5-1.3-1.1-2.8-1.5-4.3-.1-.2-.1-.4-.2-.6 0-.1 0-.1 0-.1 0-.1-.1-.2-.1-.3v-.1c0-.1 0-.1 0-.2-.2-.6-.3-1.3-.4-1.9 0-.3-.1-.5-.1-.8 0-.1 0-.2 0-.3s0-.2 0-.3c-.2-2.7 0-5.4.5-7.6zm-12 14.1c.2.1.4.1.5.2.4.2.8.7 1.1 1.3.2.5.3.9.3 1.2 0 .2 0 .4-.1.5 0 .1-.1.2-.1.2-.1 0-.1.1-.2.1h-.1c-.1 0-.3 0-.4-.1-.4-.2-.8-.5-1.2-1.1-.6-.9-.7-2-.2-2.3.1 0 .3-.1.4 0zm1.4 4c0-.1.1-.2.2-.2h.1c.3-.1.6 0 .8.1.5.2.9.6 1.3 1.1.1.7.4 1.5.8 2.2 0 .1.1.1.1.2 0 .4-.1.7-.2.9 0 .2-.1.2-.2.3s-.3.2-.4.2c-.5 0-1.2-.4-1.8-1.1-.1-.1-.2-.2-.3-.4s-.1-.3-.2-.4c0-.1-.1-.2-.1-.3-.3-.8-.4-1.6-.2-2.1.1-.2.2-.3.1-.5zm14.1 28.9c-.1-.1-.2-.3-.3-.4l-.1-.1h.3l.1.1c.1.1.2.3.2.4s0 .2-.1.3c0-.1 0-.2-.1-.3zm15.9-33.4c.7 0 1.3-.2 1.9-.6l.3-.3c-.1.2-.1.4-.1.7s.1.6.3.9l.1.1c-.3 0-.5.1-.7.1-.8.1-1.5.5-2 1 .1-.3.1-.5.1-.7-.1-.5-.3-1-.7-1.4.2 0 .5.1.8.2zm-20.5 15.8-.6.3c-.1 0-.1 0-.1 0-.1 0-.2 0-.3 0-.3 0-.5-.1-.8-.2-.7-.4-1.4-1.3-1.7-2.4 0-.1 0-.1 0-.1-.1-.4-.1-.8-.1-1.2v-.1c0-.2.1-.3.1-.5.1-.2.1-.3.2-.5 0-.1 0-.2.1-.3.2-.4.6-.6 1-.7h.2c.3 0 .5.1.8.2.1 0 .3.1.4.2s.2.2.3.3c.4.5.8 1.1 1 1.9.1.1.1.3.1.4v.6c0 .3 0 .5-.1.8 0 .3-.1.5-.3.8-.1.2-.2.3-.2.5zm-9-19.4c.3.4.4.8.4 1.2 0 .2 0 .4-.1.5-.1.3-.3.4-.6.5-.3 0-.5 0-.8-.1-.1 0-.2-.1-.3-.1-.1-.1-.2-.1-.3-.2s-.3-.3-.4-.4c-.2-.1-.4-.4-.5-.6 0-.1-.1-.2-.1-.3-.1-.2-.2-.3-.2-.5 0-.1 0-.1 0-.1s0-.1 0-.2 0-.2 0-.3v-.1c0-.2.1-.3.2-.4.1 0 .1-.1.2-.1.7-.3 1.9.2 2.5 1.2zm-19.1 20c.1 0 .1 0 0 0zm1.8.6c0 .1.1.1.1.1.4.3.8.7.9 1l-.1.1c0-.1-.1-.2-.1-.3-.1-.2-.2-.3-.3-.4-.2-.3-.5-.4-.8-.5-.1 0-.1 0-.1 0-.1 0-.1 0-.2 0s-.2 0-.3 0-.2.1-.2.2c-.1.1-.1.2 0 .3 0-.1.1-.2.1-.2h.1c.1.2.3.5.3.5l.3.3c.2.2.5.3.7.4h-.1c-.1 0-.2 0-.3 0 .1.1.2.2.4.2h.3.1v.1c-.1 0-.2-.1-.3-.1s-.2-.1-.3-.1c-.2-.1-.3-.2-.5-.3-.1-.1-.1-.1-.1-.1-.1-.1 0 0-.1-.1s-.1-.1-.2-.2-.1-.1-.2-.2c-.3-.4-.5-.7-.4-.9 0-.1.1-.1.2-.2.2-.1.6-.1 1.1.4zm18.8 3.9c.3-.1.6-.3.9-.5.8-.5 1.3-1.2 1.5-2 .1-.6.1-1.2-.1-1.7 0 0 .1 0 .1.1.2.3.3.6.3 1s0 .7-.1 1.1c.1-.4.3-.7.4-1.1s.2-.9 0-1.3c-.2-.3-.4-.7-.7-.9.2-.1.4-.3.6-.5-.1.3-.1.5-.1.7 0 .8.4 1.4 1.1 1.6-.8.8-1.2 1.8-1.2 2.6v.1c0 .4.2.8.4 1.1-.6-.1-1-.1-1.4-.1-.6-.1-1.2-.2-1.7-.2zm33.6-16.6c.2-.5.3-1 .2-1.5 0-.3-.2-.6-.4-.9.4.1.8.2.8.2-.1.7.6 1.2.8 1.3v.1c.1.4.2.8.4 1.2-.7-.2-1.4-.3-1.8-.4zm.6 9c.1-.2.3-.3.4-.4l.6-.6c0 .4.4.7.8 1-.2.4-.4.9-.6 1.5-.2.7-.3 1.4-.3 2v.1l-.3-.3c0-.1.1-.2.1-.3.1-.3.2-.6.2-1 .1-.4 0-.7-.1-1.1-.1-.2-.2-.3-.3-.5s-.3-.3-.5-.4c0-.1 0-.1 0 0zm.3 5.5c-.6.4-1.1 1-1.5 1.7l-.3-.8c.3-.2.6-.5.8-.7.1-.1.2-.3.3-.4 0-.1.1-.2.2-.3zm-2.1 3.4c-.1.2-.1.5-.1.7v.2c-.3.1-.6.2-.6.5-.2 0-.4 0-.7.1l.3-.3c.2-.2.4-.4.5-.6.2-.2.3-.5.4-.7 0-.1 0-.1 0-.2zm-6.4 2.5c1-.7 2.2-.8 2.6-.2.1.2.2.4.2.6 0 .6-.5 1.4-1.2 1.9-.5.4-1.1.6-1.6.6s-.9-.1-1.1-.4c0-.1-.1-.2-.1-.4-.1-.6.3-1.5 1.2-2.1zm-2.4 2.9c.1 0 .3 0 .4.1.3.2.6.5.6.8v.1c0 .3-.1.6-.4.9s-.8.4-1.3.5c-.5 0-1-.1-1.4-.3-.3-.2-.6-.5-.6-.8 0-.7.8-1.4 1.8-1.5.4-.1.7 0 .9.2zm-3.8 1.3c.2.1.4.2.5.4 0 0 .1 0 .1.1.1.1.1.1.1.2v.1c0 .2-.1.4-.2.6 0 .1-.1.1-.1.2-.2.3-.6.5-1.1.6-.3.1-.6.1-.9 0-.5-.1-.9-.4-1-.8 0-.1 0-.1 0-.1 0-.1 0-.1 0-.2 0-.2.1-.4.3-.6.1 0 .1-.1.2-.1.2-.2.5-.3.9-.4.5-.1.9-.1 1.2 0zm-4.5 1.1c.3 0 .6.1.9.2h.1l.2.2c.1.1.2.3.2.3v.1c0 .2-.2.4-.4.6-.3.2-.7.3-1.1.3-.6 0-1.2-.2-1.4-.5-.1-.1-.1-.2-.1-.3 0-.2.1-.4.4-.6.1 0 .2-.1.3-.1.3-.1.5-.1.9-.2zm-4.2.8h.6c.5.1.9.3 1.1.5.1.1.2.1.2.2.1.1.1.3.1.3v.1c0 .1-.1.2-.2.3.1-.1 0-.3-.1-.5l-.1-.1c-.3-.3-.8-.6-1.6-.8zm24.7-19.4c0-.1.1-.2.1-.3.2-.6.4-1.2.4-1.8v.1c0 .9.1 1.7.4 2.3-.3-.2-.6-.3-.9-.3zm-2.5-8.3v.4c0 .2-.1.3-.1.5-.2.9-1.2 1.7-2.4 2-1.6.3-3.1-.4-3.4-1.7 0-.1 0-.3 0-.5.1-1.1 1.1-2.1 2.5-2.4.4-.1.7-.1 1.1-.1s.8.1 1.1.3c.2 0 .3.1.4.2.4.4.7.8.8 1.3zm-14.3-8.7c.1.1.1.2-.1.4.1.1.1.2.1.3v.1.3s0 .2-.1.3l-.1.1-.1.1c-.1.1-.2.2-.3.3-.5.3-1.1.4-1.7.3 1.1-.3 1.7-.8 1.7-1.4 0-.5-.4-1.2-1.2-1.8-.2-.1-.4-.3-.6-.4.2 0 .3.1.5.1h.2c.7.3 1.4.7 1.7 1.3zm4.4 4.8c-.5.1-.9.3-1.2.6l-1.7-1.9c.4.1.7.2 1.1.3h.9c.2.4.5.7.9 1zm-5.2 2.3c1.2.1 2-.2 2.2-.8.3-.6-.1-1.7-1.2-2.7.3.1.5.2.7.3.8.5 1.4 1.2 1.5 1.9v.3c0 .3-.1.5-.2.7-.5.7-1.7.8-3 .3zm-5.1-1.9c1 0 1.6-.4 1.7-.9.2-.6-.2-1.5-1.1-2.3.2 0 .3.1.5.2.6.3 1.1.8 1.3 1.4.1.2.1.4.1.5s0 .3-.1.5c-.2.3-.4.5-.8.6-.5.2-1 .2-1.6 0zm12.5.1c.9.3 1.6.9 1.7 1.7v.1c0 .7-.5 1.3-1.2 1.7-.4.2-.9.3-1.4.4-.7.1-1.4 0-2-.4-.5-.4-.8-.9-.9-1.4-.1-.6.3-1.2.8-1.6s1.1-.6 1.8-.7c.4-.1.8 0 1.2.2zm-15.7-2.1c-.1-.1-.1-.2-.1-.3.4-.2.6-.5.7-.8.1-.5-.2-1.5-.9-2.2.1.1.3.1.4.2.6.3 1 1 1 1.7 0 .3 0 .5-.1.7-.2.3-.4.6-.8.7-.1 0-.2 0-.2 0zm10.2-3.2c.5-.3 1.2-.4 2-.3 1.3.2 2.3 1 2.4 1.8v.1.2c-.2.8-1.1 1.4-2.2 1.4-.3 0-.5 0-.7 0-1.1-.1-2-.7-2.3-1.4l.3-.6s.1-.3.1-.5c0-.1 0-.2 0-.3.1-.1.3-.2.4-.4zm6.9 8.8c-.1.1-.1.2-.1.3l-.2-.1c.1-.1.2-.2.3-.2zm-23.6 7.2s-.4.6-.5 1.3c-.4-.9-1.1-1.5-1.9-1.8v-.2c.3-.1.5-.3.7-.6 0-.1.1-.3.1-.4.4 1.4 1.6 1.7 1.6 1.7zm-3.6 5.5h.6c.2 0 .3.1.4.1h.1c.1.1.2.1.3.2s.3.2.4.4c.2.3.3.6.3 1 0 .2 0 .4-.1.6-.2.6-.7 1.2-1.3 1.7-.2.2-.4.3-.6.4s-.3.2-.4.2c-.1.1-.2.1-.3.1-.8.2-1.6 0-2.1-.5l-.1-.1c-.3-.5-.3-1-.2-1.6v-.1c0-.2.1-.3.2-.5.2-.5.5-.9 1-1.2.5-.5 1.2-.7 1.8-.7.1 0 .1 0 0 0zm3.7-2c-.1.1-.1 0 0 0-.1.1-.1.1 0 0zm-6.7 6.3s.1 0 0 0c.2.3.3.5.3.7s-.1.4-.3.6c-.3.3-.8.4-1.3.5h-.1c-.4 0-.7 0-1.1 0s-.8-.1-1.1-.2c-.9-.3-1.6-.8-1.7-1.3-.1-.2-.1-.4.1-.6.1-.2.4-.4.7-.5.2 0 .4-.1.6-.1.2-.1.5-.1.8-.1.9 0 1.7.2 2.3.6.2.2.4.3.8.4zm-13-2c1.1.3 1.9 1 1.9 1.5v.1.1c0 .1-.1.2-.2.3-.2 0-.4.1-.7.1s-.6-.1-1-.2c0-.1-.1-.1-.1-.1s-.1-.1-.2-.1-.2-.1-.3-.1c-.2-.1-.3-.2-.4-.3-.2-.2-.4-.4-.5-.6-.1-.1-.1-.1-.1-.2v-.1c0-.1.1-.1.1-.2 0 0 0-.1.1-.1h.1.1c.1-.1.2-.1.3-.1.3 0 .7-.1.9 0zm4.3 3.4c-1-.3-1.7-.8-1.8-1.3 0 0 0-.1 0-.2s0-.1.1-.2c.3-.4.9-.5 1.7-.5 1.4.1 2.5.9 2.5 1.5 0 .1 0 .3-.2.4s-.6.3-1 .3c-.3 0-.6 0-.9 0-.1 0-.2 0-.4 0zm4.4-3.1c-.1.1 0 .2 0 .3-.3.1-.6.2-.9.4l-.8-.3c.5-.1 1.1-.2 1.7-.4zm6.4-5.1c-.4-.8-.4-1.7-.1-2.3.2-.5.5-.8.9-.9s.9 0 1.4.2c.6.3 1.2.9 1.6 1.7 0 .1.1.2.1.3 0 .2.1.3.1.4.1.2.1.4.1.6 0 .4-.1.7-.2 1-.2.5-.5.8-.9.9h-.1c-.3 0-.5 0-.8 0-.1 0 0 0-.1 0s-.2-.1-.3-.1-.2 0-.3-.1c-.7-.3-1.3-.9-1.4-1.7zm-.2 7.8c-.7.2-1.2.5-1.5.9-.1 0-.3 0-.5 0 .1 0 .1-.1.2-.1.3-.2.5-.6.5-1 .4.1.9.2 1.3.2zm-7 1.1c-.2.1-.3.2-.4.3 0 .1-.1.1-.1.2-.1-.3-.3-.5-.6-.7.4.1.8.2 1.1.2zm2.6-4.7c.2.2.5.5 1 .7.3.1.5.1.7.1v.5c0 .1.1.3.1.4-.2 0-.3-.1-.5-.2-.2-.2-.6-.5-1-.7s-.8-.3-1.1-.3c.4-.2.7-.4.8-.5zm4.7-18.4c.7 0 1.6.5 2.2 1.2.4.5.7 1 .7 1.5v.2c0 .2-.1.4-.3.5s-.4.1-.6.1c-.6 0-1.3-.4-1.9-.9s-1-1.2-1-1.8c0-.2.1-.4.2-.6 0 .1 0 .1 0 0 .2-.2.5-.2.7-.2zm2.3 4c.1 0 .1.1 0 0 .1 0 .1 0 0 0zm1.5.5c.9.3 1.9 1.3 2.5 2.5.3.6.5 1.3.5 1.8 0 .3-.1.6-.2.9-.1.2-.3.4-.5.5-.1 0-.1.1-.2.1-.8.2-2-.5-2.8-1.6-.1-.1-.1-.2-.2-.3-.1 0-.1-.1-.2-.2-.1 0-.1-.1-.1-.1 0-.1-.1-.2-.1-.3-.2-.3-.3-.7-.4-1s-.1-.5-.1-.7c0-.3 0-.6.1-.8.1-.4.3-.6.6-.8 0 .1 0 .1 0 0 .4-.2.9-.1 1.1 0zm4.4 13c.2.1.4.2.5.3.3.3.4.7.4 1.1 0 .3-.1.6-.2.9-.3.6-.6 1.1-1.1 1.5-.1.1-.2.2-.3.3s-.2.1-.3.2c-.5.3-1 .5-1.5.5h-.1c-.2 0-.4-.1-.6-.2-.5-.3-.8-.7-.8-1.3 0-.7.4-1.8 1.3-2.5.3-.2.5-.4.8-.5.4-.2.8-.3 1.1-.3h.2.1.1.2zm5-2.8c0-.1 0-.1 0-.2.6.1 1.2.2 1.6.4.3.2.6.4.8.6 1.1 1 1.8 2.8.4 5-.6.4-1.2.5-1.7.3-.5-.1-.9-.5-1.1-1l-.2-.5-.4.4c-.5.5-.6 1.3-.3 2 .3.9 1.4 1.8 3.2 1.7 1.3-.1 2.5-.8 3.4-2 1.1-1.4 1.4-3.3 1-5.1-.5-2.4-2.4-4.4-5.1-5.4-.4-.1-.8-.2-1.2-.3 0-1.7-.3-3.4-.8-5.1-.6-1.9-1.1-3.6-1.5-5.2 1.9 1.2 4.4 2.6 7.4 3.8 4.2 1.7 6.4 4.3 6.6 7.5.2 2-.5 4.2-1.8 6.6-2.9 5.1-6.3 7.5-10.6 7.2-1.2-.1-2.3-.4-3.1-1-.7-.5-1.3-1.2-1.6-2.1 0-.1.1-.1.2-.2 2.3-1.7 4-4.1 4.8-7.4zm3.4-.9c-.1-.5-.5-1.2-1.2-1.9 1.9 1 3.3 2.6 3.7 4.5.3 1.7 0 3.4-.9 4.6-.7 1-1.8 1.6-2.9 1.7-1.4.2-2.2-.5-2.5-1.2-.1-.2-.1-.5-.1-.7.3.4.7.7 1.2.9.8.2 1.6 0 2.4-.5h.1c.5-.3.9-.8 1.2-1.3.3-.6.6-1.2.6-1.8-.2.3-.3.6-.5.8-.1.3-.3.5-.5.7.5-1.5.1-3-1-4.1.2-.1.4-.3.5-.6.2.3.5.5.6.4.2-.1.2-.4 0-.8-.1-.3-.3-.5-.7-.7zm8.7 17.5c-.1-.1-.3-.2-.5-.2.1-.1.3-.1.4-.2 0 .2.1.3.1.4zm-3.6 1.9c-.2 0-.3.1-.5.1-.1-.5-.5-.9-1.1-1 .5-.1 1-.4 1.3-.7.1-.1.1-.2.2-.3.2.1.4.1.4.1-.5.4-.6 1.2-.3 1.8zm-14.9-7.6s-2-.5-2.8 0c1.3-.8 3.2-.9 3.7-.8-.8-.4-2.2-.6-2.6-.6 1.5-.5 3.7-.3 4.9.5.9.6 2.1 1 3.5 1.1 4.6.2 8.3-2.2 11.3-7.6 1.2-2.1 1.8-4.1 1.9-5.9-.1 1.6-.4 5.1-1.9 7.9 2.1-1.5 4-5 4-5l1.3 4.5-.7-6.1s.5-1.5.6-2.8c.8.8 1.9 2.9 1.9 2.9s-.6-3.5-2-4.7c2.1-.2 3.4-1.5 4.1-2.7.3-.2.6-.5.8-.8.1.2.4.3.9.6-.1 0-.1 0-.2 0-.4.1-.7.3-1 .5s-.5.5-.7.8c-.3.6-.5 1.3-.6 2 .2-.7.5-1.3.9-1.8.2-.3.4-.5.7-.7.2-.1.5-.3.8-.3.3-.1.6 0 .8.2s.4.4.5.7c.2.6.3 1.3.3 1.9 0 .4 0 .7-.1 1s-.2.6-.3.9c-.3.6-.6 1.2-1.1 1.6-.2.2-.5.4-.8.4h-.2c-.1 0-.1 0-.2 0-.1-.1-.3-.1-.4-.2-.2-.1-.3-.2-.4-.3s-.2-.3-.3-.4c-.1-.3-.3-.6-.4-.9 0 .3.1.7.2 1s.3.7.6.9c.1.1.2.1.4.2-.2.1-.5.2-.7.4s-.5.4-.7.7c-.2.2-.4.5-.6.8s-.3.6-.4.9c.2-.3.4-.5.6-.8l.7-.7c.2-.2.4-.4.7-.6.2-.2.5-.3.8-.4h.4c.2 0 .3 0 .4.1.2.1.3.3.4.6.1.6.1 1.2-.1 1.8-.1.3-.2.6-.3.9-.1.2-.3.4-.4.6 0 .1-.1.1-.1.2-.2.3-.4.6-.6.8s-.4.3-.6.5l-.1.1c-.2.2-.5.3-.7.4h-.1c-.1.1-.3.1-.4.1s-.1 0-.2 0c0 0-.1 0-.2 0-.3-.1-.5-.3-.6-.6-.1-.2-.2-.6-.2-.9-.1.3-.1.7 0 1 0 .2.1.3.2.5 0 .1 0 .1.1.2-.3.1-.6.3-.8.5.5-.1.9-.1 1.3-.1.1.1.3.1.4.1s.2 0 .3.1l.3.3c.1 0 .1.1.1.1.1.2.1.3.1.5s0 .5-.1.7c-.1.4-.4.8-.7 1.1s-.7.6-1.1.7c-.1.1-.2.1-.3.1-.3.1-.6.1-.9 0-.4-.1-.6-.4-.7-.8 0-.2 0-.5 0-.7s0-.4.1-.6c-.2.2-.3.4-.4.7l-.4.1s-.1-4-1-4.4c.9.7.6 5.1.6 5.1l-.8.8c-.2.1-.3.2-.5.3-.1.2-.3.3-.4.4-.4 0-.8.4-.8.4s.5-3.6-.2-4.7c.1.3.1 1.2-.1 1.8-.3.7-.4 2.3-.3 3.3-.6-.3-1.2-.3-1.2.3-.1.9.9 1 1.6 1 .1.1.1.2.1.3-.4-.3-1-.4-1.6-.3-1 .1-1.8.7-2.1 1.4 0-.4 0-.9 0-1.3s0-.9 0-1.3 0-.9-.1-1.3c0 .5-.1.9-.2 1.3l-.2.6-.1.6c-.1.4-.2.8-.2 1.3v.4c-.4-.2-.8-.2-1.3-.1-.3 0-.5.1-.7.2 0-.1.1-.2.1-.3.1-.4.2-.9.2-1.4 0-.2 0-.5-.1-.7-.1-.1-.1-.2-.2-.3s-.2-.2-.3-.2c.2.1.2.4.2.6 0 .3-.1.5-.1.7-.1.5-.4 1.3-.4 1.3l-.6 1.2c-.1.2-.3.3-.4.5-.4-.2-.8-.3-1.3-.3-.2 0-.4 0-.6.1l.1-.2c.1-.1.1-.2.1-.3 0-.3 0-.5 0-.7s-.1-.4-.2-.6c0 .4-.1.8-.2 1.2-.2.4-.3.7-.5 1-.2.1-.4.4-.4.6-.1.1-.2.3-.3.4-.3-.3-.8-.5-1.3-.6-.3 0-.6 0-.8 0 .1-.2.2-.3.3-.5.3-.5.7-1 1.1-1.5-.5.4-1 .8-1.4 1.3-.2.2-.4.4-.6.7-.1.1-.2.2-.3.3s-.3.3-.3.5c-.2-.2-.6-.3-.9-.4-.1 0-.1 0-.2 0 .1-.1.3-.2.5-.2-.2 0-.4.1-.6.1s-.3.1-.5.1c.1-.3.3-.6.5-.9l.3-.6c.1-.1.2-.3.3-.5s.2-.3.3-.5l.2-.2s.2-.1.3-.1c-.1-.1-.2 0-.3 0-.1.1-.2.1-.3.2-.1.2-.3.3-.4.5s-.3.3-.4.5c-.2.2-.3.3-.4.5-.3.3-.5.6-.8.9l-.1.1-.1.1-.1.1-.3.3c-.6-.2-1.1-.6-1.6-.9-.1 0-.1 0-.1 0-.1 0-.1 0-.1 0 .1 0 0 0 .1-.1s.1-.1.2-.2c.3-.3.7-.7 1-.8-.6 0-1.3.3-1.3.3.6-.9 1.7-1.5 1.7-1.5s-.9.2-1.5.7c-.1.2-.3.3-.5.4-.1 0-.1.1-.2.1-.1.1-.1.1-.2.1-.2 0-.3.1-.5.1-.2-.2-.5-.4-.7-.6l-.1-.1-.1-.1h.1c.1 0 .1-.1.2-.1.1-.1.1-.1.2-.1.6-.2 1.3-.4 2-.4-.9-.2-1.7-.3-1.7-.3l2.4-.8s-2.3 0-3.1.2c.9-1.1 2.6-2.2 2.6-2.2zm-9.7-7.8c-.1 0-.3-.1-.4-.1.5-.4 1.1-.9 1.6-1.4.5 0 1 0 1.4.1-.4.1-.7.3-1 .5-.5.3-.8.7-1.1 1.2-.2-.1-.4-.2-.5-.3zm18.3 16.8c-.4 0-.8-.1-1.1-.3-.2-.1-.3-.3-.3-.4v-.1c0-.4.7-.8 1.5-.8s1.5.4 1.5.8v.1c0 .2-.1.3-.2.4-.3.2-.8.4-1.4.3zm-14.6-9.2c-.8 0-1.4-.2-1.9-.5-.1-.1-.2-.2-.3-.3 0-.1-.1-.2-.1-.3s0-.1 0-.1c-.1-.3-.1-.5.1-.8.1-.3.4-.5.7-.7s.6-.3 1-.4c.1-.1.2-.1.2-.1h.2.4c.6 0 1.1 0 1.6.2s.9.6 1 1v.2.2c-.1.1-.1.3-.2.4-.1 0-.1.1-.1.1-.3.5-1.1.8-1.9 1-.1.1-.2.1-.4.1.1 0 .1 0 0 0-.1.1-.2.1-.3 0zm-11.2-23.7c0 .2-.1.3-.2.4s-.1.1-.1.1h-.1c-.1.1-.2.2-.3.2-.1-.2-.1-.4-.1-.6 0-.3.2-.5.4-.5s.5.1.5.2c.1.1 0 .2-.1.2zm4.9-7.6c.2-.2.3-.3.4-.3.5-.1 1.2.4 1.5 1.3.1.2.1.4.1.6v.2c-.2.1-.2.3-.3.5.1-.3.1-.7 0-1.1-.3-.7-.7-1.2-1.2-1.3-.1 0-.2 0-.3 0 0 .1-.1.1-.2.1-.1.1-.1 0 0 0zm28-12.7c.7-.3 1.2-.8 1.2-.8s.2.3.5.5 2.1.3 2.8 0c-.2.4-.8.8-1.5.8.6.3 1.2 0 1.2 0v.4c0-.1 0 0 0 0-.3.1-2.5.7-4.2-.9zm5.5-.3s-2.3-1.3-3.3-2.8c.8.7 3.6 2.1 3.7 2.2-.1-.1-1.6-1.2-1.7-2 1.1 1.1 3.7 2.4 3.8 2.4-.1 0-1.5-1-1.9-2 1.1 1.2 4.2 2.7 6.5 3.6-.1 0-.2 0-.3 0-.8-.1-1.5-.2-2-.3-.3 0-.5-.1-.6-.1s-.1 0-.2 0-.3-.1-.5-.1-.4 0-.6-.1c-.4-.1-.7-.3-1.1-.4.3.2.7.5 1 .7.1 0 .1.1.2.1-.7.2-1.5.4-1.8.3-.2 0-.6-.5-.9-1.1 0-.1-.3-.4-.3-.4zm-6.5-.2c0 .1 0 .1 0 0zm16-9c0-.2.1-.3.3-.3s.3.1.3.3-.1.3-.3.3c-.1 0-.2-.1-.3-.3zm-5.4-1.4c-.3 0-.5-.2-.5-.5s.2-.5.5-.5.5.2.5.5c0 .2-.2.5-.5.5zm6.4-.2c0-.1.1-.2.2-.2s.2.1.2.2-.1.2-.2.2-.2-.1-.2-.2zm-4.1-.9c0-.1.1-.2.2-.2s.2.1.2.2-.1.2-.2.2c-.2 0-.3-.1-.2-.2zm5.9-1.1c0-.2.2-.4.4-.4s.4.2.4.4-.2.4-.4.4-.4-.2-.4-.4zm-8.8-1.2c0 .2-.2.4-.4.4s-.4-.2-.4-.4.2-.4.4-.4.4.2.4.4zm8.1-.4c0-.1.1-.2.2-.2s.2.1.2.2-.1.2-.2.2c-.2 0-.2-.1-.2-.2zm12.5-5c0 .1 0 .2-.1.2 0 0-.1-.1-.1-.2s0-.2.1-.2.1.1.1.2zm-1 .9c0 .2-.1.3-.3.3s-.3-.1-.3-.3.2-.3.3-.3c.2 0 .3.1.3.3zm1.1.9c0 .2-.1.3-.3.3s-.3-.1-.3-.3.1-.3.3-.3c.1 0 .3.1.3.3zm2 .6c0 .2-.1.3-.2.3s-.2-.2-.2-.3c0-.2.1-.3.2-.3s.2.2.2.3zm-22.4-10.2c-1.3.4-2.8 1-3.9 1.3l.1-.1c.5-.5 1.3-1 2.1-1.1.3 0 .9-.1 1.7-.1zm-5.6 1c-1.4.1-2.6.8-2.9 1.4 0 0-.5-.3-1.1-.7.9-.8 2.5-1.5 3.8-1.1.1 0 .1.2.2.4zm9.9-.5c-2 0-5.4.9-6.1 1.2.6-.7 1.6-1.3 3.2-1.5s2.9.3 2.9.3zm-3.4-13.5c-1.6.9-3.5 1.6-5.5 2-2.5.6-4.8 1.4-6.7 2.2 1.2-.8 3.1-1.6 3.1-1.6-3.4.5-6.3 3-6.4 3.1.1-.1 1.1-1.3 2.6-2.3-1.6.5-2.8 1.1-4.1 2.9-.2-1.3-.2-2.8-.1-4.3h.1c.4.2.7.5.9.9-.1-.4-.3-.8-.5-1.2-.1-.2-.3-.3-.4-.5 0-.3.1-.6.1-.9.5.1 1 .1 1.5 0 .8-.2 1.5-.6 1.8-1.2v1.1c0 .3-.1.7-.2 1.1-.1.3-.3.7-.5 1 .3-.2.5-.5.7-.9.2-.3.4-.7.5-1.1.1-.3.2-.5.2-.8.6.4 1.4.8 2.4 1 .7.2 1.5.2 2.1.1-.2.2-.4.4-.6.6-.3.3-.6.7-.8 1.1.3-.3.6-.6 1-.9.1-.2.3-.3.5-.4s.4-.2.6-.3c0-.1.1-.1.1-.1h.1.1c.1-.1.2-.1.3-.2.2-.1.4-.3.6-.5.1-.2.3-.5.3-.8.3.1.6.2.9.2 1.2.2 2.2.1 3-.2 0 .1-.1.1-.1.1-.2.1-.5.2-.7.3-.4.3-.9.5-1.3.8s-.9.6-1.2 1c.4-.3.9-.6 1.3-.8.5-.2.9-.4 1.4-.6.2-.1.5-.2.7-.3s.5-.3.7-.4.4-.3.6-.6c.1-.1.1-.2.1-.3.4.4.9.5 1.4-.1.4.1 1.5-.3 1.6-.3 0 .1-.3.8-1.3 1.5-.3.2-.6.4-.9.6zm8.4-14.5c-.1.4-.2.7-.3 1.1-.1.2-.2.4-.3.6-.2.3-.4.5-.6.7-.2.1-.3.2-.5.3-.1.1-.2.1-.3.1-.2 0-.4-.1-.5-.2s-.1-.1-.2-.2c-.5-.6-.7-1.8-.5-3.1.1-.7.3-1.4.6-1.9.2 0 .4 0 .6-.1.1 0 .1-.1.2-.1l-.1.1c-.1.2-.2.3-.3.5-.1.3-.2.7-.3 1 0 .3-.1.7-.1 1s0 .7.1 1c.1.2.1.3.2.5 0 0 0 .1.1.2s.2.2.3.2c.1.1.2 0 .3 0 .1-.1.1-.1.2-.2s.2-.2.3-.4c.2-.3.3-.7.3-1-.1.3-.3.6-.5.8-.1.1-.1.1-.2.2.2-.4.5-1 .6-1.7.1-.2.1-.5.1-.7 0-.5 0-.9-.2-1.2-.1-.1-.2-.2-.3-.2v-.1l.1-.1h.1c.2 0 .3.2.4.3 0-.2-.1-.4-.2-.5 0-.1-.1-.1-.2-.1s-.1 0-.1 0h-.1c0-.1.1-.1.1-.2.1-.2.1-.3.2-.5.1 0 .3.1.4.2l.1.1c.5.6.7 1.6.6 2.8 0 .3 0 .5-.1.8zm-1.5-5.5c0 .4 0 .7-.1 1 0 .1-.1.3-.1.4-.2.4-.4.6-.6.7-.1 0-.2 0-.3 0s-.2 0-.3-.1c-.9-.5-1.7-2-2.2-3.7-.5-1.8-.3-3.3.1-4 0-.1.1-.2.2-.3.1 0 .2-.1.2-.1h.2c.8 0 1.9 1.3 2.6 3.4.1.5.2 1 .3 1.5zm-4.6-7.6c0 .1.1.3.1.4v.3.1.1l-.1.1c-.1.1-.2.1-.3.2-.3.1-.6.1-.9.1s-.7 0-1-.1c.2.1.4.2.6.3l-.9.2c-.1-.1-.2-.1-.3-.1s-.1 0-.2 0-.1 0-.2 0-.2 0-.3.1l-.1.1c.1-.1.1-.2.1-.3s0-.2 0-.3c0-.2 0-.4-.1-.6 0-.1-.1-.2-.1-.3-.1-.3-.2-.6-.4-.9-.2-.4-.4-.7-.7-1-.1-.1-.2-.2-.3-.3-.2-.1-.4-.3-.6-.5-.1-.1-.1-.1-.1-.2-.1-.2 0-.4 0-.6.1-.1.1-.1.1-.2l.1-.1c.1-.1.2-.1.3-.2.1 0 .2-.1.3-.1.3 0 .6 0 .9.1.6.1 1.2.4 1.7.8.6.4 1.1.8 1.5 1.3.2.3.4.5.6.8.1.2.2.4.3.6zm-7-5.6c.2.3.4.5.5.8.1.2.2.5.2.7v.2.1.1c0 .1-.1.1-.1.2l-.1.1c-.1.1-.2.1-.3.2s-.1.1-.2.1c-.5-.4-1.1-.6-1.8-.8-.4-.1-.9-.2-1.3-.1-.1 0-.2.1-.3.1l-.1.1c0-.1 0-.1 0-.2-.1-.4-.2-.7-.4-1s-.5-.5-.7-.7c-.1-.1-.3-.2-.4-.3-.1 0-.3-.1-.4-.2 0-.1 0-.1 0-.2 0 0 0-.1 0-.2.1 0 .1-.1.1-.1.1-.2.2-.4.4-.5s.5-.2.8-.2c.6-.1 1.2.1 1.8.3s1.1.5 1.6.9c.3.2.5.4.7.6zm-7.7-2.6c.5.1.9.3 1.2.5.1.1.2.3.3.4.1 0 .1.1.1.2v.1.1c-.2 0-.3-.1-.5-.1v-.1-.1c0-.1 0-.2-.1-.2-.1-.1-.2-.2-.3-.2s-.1 0-.1 0c-.2 0-.5-.1-.7-.1l.1.1c.2.1.3.2.4.3-.3-.1-.6-.2-1-.2-.6 0-1.2 0-1.5.2-.1 0-.1.1-.1.1-.1 0-.1 0-.1 0-.1 0-.1.1-.1 0s0-.1 0-.1 0-.1.1-.2c-.1 0-.2 0-.3.1v.1.1s.1.1.1.2c.2.2.4.3.6.4 0 .1-.1.1-.2.2l-.1.1c-.2-.2-.5-.4-.9-.5-.1-.1-.1-.1-.1-.2v-.1c0-.1 0-.1 0-.2s.1-.1.1-.2l.1-.1c.1-.1.3-.2.4-.3.4-.1.9-.2 1.3-.2s.9.1 1.3-.1zm-32.4 10.1c1.9-.7 3.7-.4 4.6-.3.9.2 1.7.6 2.3 1-.8-.2-1.5-.4-2.4-.6-1.5-.2-3-.2-4.5-.1zm18.6 35.7c-.2-.1-.2-.4-.1-.5s.3-.1.5.1c.2.1.2.4.1.5s-.3 0-.5-.1zm-2.9.8c.3.3.5.7.8 1.1.3.3.5.7.7 1l.3.5c.1.2.2.3.3.5.5.6 1.1 1.2 1.7 1.7s1.3.9 2 1.4c-.8-.3-1.6-.6-2.3-1.1-.3-.2-.7-.5-1-.8-.4-.3-.6-.6-.9-1-.1-.1-.2-.3-.3-.5l-.3-.5c-.1-.2-.1-.3-.2-.4-.3-.7-.6-1.4-.8-1.9zm8.5 8.6c.5 0 1.1 0 1.6-.2-.3.1-.5.2-.8.3-.3 0-.5.1-.8.1-.5 0-1.1 0-1.6-.1-.6-.1-1.1-.2-1.6-.4s-1-.5-1.4-.8c.5.2 1 .4 1.5.5.1 0 .3.1.4.1s.3.1.4.1c.1.1.3.1.4.1.1.1.3.1.4.1.5.1 1 .1 1.5.2zm-2.8-1.6c.6.1 1.1.2 1.7.3s1.1.1 1.7.2c-.5.1-1.1.1-1.7.1s-1.1-.1-1.7-.2c-.5-.1-1.1-.3-1.6-.6s-.9-.6-1.3-1.1c.5.3 1 .6 1.5.8s1 .4 1.4.5zm-14.1-22.9c-.1 0-.2 0-.2-.3v.1c-.1-.1-.2-.3-.3-.3.2-.9 0-1.8-.2-2.4 0-.1.1-.1.1-.1.2-.1.3-.2.4-.3.2-.2.3-.4.5-.6.1-.1.3-.3.5-.4.1-.2.4-.2.6-.3s.5-.1.7-.1.5 0 .7.1c.5.1 1 .3 1.4.6-.4-.3-.8-.6-1.3-.8-.3-.1-.5-.1-.8-.2-.2 0-.5 0-.8 0s-.5.1-.8.2c-.2.1-.5.3-.7.5-.3.2-.4.4-.6.5 0 .1-.1.1-.1.1.4-.7 1.1-2.5.6-4.1.2-.1.4-.2.6-.3.3-.1.5-.2.8-.2h.4.4.4c.1 0 .3.1.4.1.6.2 1.1.4 1.6.7s.9.6 1.4 1c-.4-.4-.8-.8-1.3-1.2-.5-.3-1-.7-1.6-.9-.1-.1-.3-.1-.4-.2-.2 0-.3-.1-.5-.1-.2-.1-.3-.1-.5-.1-.1 0-.2 0-.3 0 .3-.3.7-.7.9-1.2.2-.6.3-1.2.1-1.6.1 0 .3 0 .4-.1.5.1 1 .2 1.5.4 1 .4 2 1 2.7 1.8-.6-.9-1.5-1.7-2.5-2.2-.3-.1-.7-.3-1-.4.3-.3.6-.6.8-.9.3-.4.4-.8.4-1.2 2.8.4 3.9 2.3 4.5 3.9-.4-.5-1.5-1.6-1.6-1.7.1 0 .3.4.7 1.6.4 1.3 1.8 2.4 2.4 3s.5 1.8.5 2.6v.2 1.2c0 1.2.2 3.2.6 5.6v.2c.7 4.4 2.6 12.6 6.5 17.2-1.3-1-2.9-2.4-3.9-3.8 1.5 3 3.7 5 4.6 5.6-2.4-.9-4.6-3-6.2-5.7.2-.1.3-.2.3-.4 0-.3-.2-.5-.5-.5 0 0-.1.1-.2.1-1.5-2.7-2-4.7-3.2-6.2.9.4 1.7 2 1.7 2s-.7-2.1-2.2-4.3-3.5-2.4-3.5-2.4l1.2 1.6.4 4.7-.8-.7c-.5-1-.9-2-1.5-3-.5-.9-1.1-1.7-1.7-2.5 0-.1.1-.1.1-.2.1-.2.2-.4.4-.5.3-.3.7-.6 1.1-.8-.5.1-.9.3-1.3.5-.2.1-.4.2-.6.4-.1.1-.1.1-.1.1l-.1-.1c-.5-.6-1-1.1-1.6-1.6-.1-.3-.2-.6-.4-.9.2-.1.4-.1.5-.2.3-.2.6-.4.9-.6.3-.1.6-.3.9-.5.3-.1.7-.3 1-.3-.3-.1-.7 0-1 .1-.4.1-.7.3-1 .4s-.6.2-.9.3c-.1 0-.3 0-.4 0zm41.6-.3c0-.1-.1-.1 0 0-.2-.1-.3-.2-.4-.3 0-.1-.1-.1-.1-.2-.3-.7-.2-1.9.4-3.1.5-1 1.2-1.7 1.8-2.1.1.1.3.1.5.1.3 0 .6-.1.9-.3.1.1.2.2.3.4.1.1.1.1.1.2.1.2.1.4.1.7 0 .5-.1 1.2-.4 1.9-.2.6-.5 1.1-.9 1.5-.1.1-.2.2-.3.3-.7.6-1.4 1-2 .9zm-24.7-27.9h.9c.2 0 .4.1.5.2 0 .1.1.1.1.2 0 .3-.5.8-1.4 1.1-.4.1-.7.1-1 .1 0 0-.1 0-.2 0s-.2-.1-.3-.1c0-.1 0 0 0-.1s0-.3-.1-.4c0-.1-.1-.1-.2-.2.1-.2.3-.3.5-.5.3-.1.5-.2.8-.3.1-.1.2-.1.4 0zm-3.9 1.8c.1 0 .1-.1.2-.2.1-.2.3-.4.6-.5.1 0 .2-.1.3-.1s.2-.1.3-.1h.3.1.2c.1 0 .2 0 .2.1v.1.2s-.1.1-.1.2c-.1.1-.1.1-.2.2s-.1.1-.1.1c-.2.2-.3.3-.5.4-.1.1-.1.1-.2.1-.5.3-.9.3-1.1.1-.1 0-.1 0-.1 0v-.1c0-.1 0-.2.1-.5zm6.2-2.4c.1 0 .1 0 0 0 .5-.2 1-.3 1.3-.3h.1.3c.3.1.6.1.8.2.4.2.6.3.8.5 0 .1-.1.2-.1.3v.3c0 .2.1.3.1.4-.1.1-.3.1-.4.2-.4.2-.9.2-1.5.2-.5 0-.9-.2-1.2-.3-.1 0-.2 0-.3-.1-.3-.1-.4-.3-.5-.5 0-.1 0-.1 0-.2s0-.1 0-.1c.1-.2.2-.3.3-.4s.2-.2.3-.2zm-10.5 4.9v.4c0 .3-.1.5-.3.7-.1.2-.4.3-.6.3-.2-.1-.4-.2-.6-.3s-.5-.1-.7 0c-.2-.1-.3-.2-.5-.3-.4-.4-.7-.8-.8-1.3 0-.4 0-.7.1-.9.1-.1.2-.3.3-.4.2-.1.4-.2.6-.2.5 0 1.2.2 1.7.7.1.1.2.2.3.3.3.3.5.6.5 1zm-12.8-2.5c.6 0 1.2.2 1.6.5.1.1.2.3.3.4 0 .1-.1.2-.1.3v.3.4c-.4.4-1 .7-1.8.7s-1.4-.2-1.8-.6c-.2-.2-.3-.5-.3-.7 0-.1.1-.2.1-.3.2-.5.8-.9 1.5-1h.3zm-4.9.6c.6-.1 1.2.1 1.5.4.1.1.1.2.1.3v.1.2c-.1.5-.6.9-1.3 1.2-1.1.4-2.1.2-2.3-.3-.1-.1-.1-.1-.1-.2s0-.1 0-.2c0 0 .1-.1.1-.2.2-.4.6-.7 1.1-1 0 0 .1-.1.2-.1.1-.1.1-.1.2-.1h.1c.1-.1.3-.1.4-.1zm-6.5 7.2c-.1-.1-.2-.2-.3-.4 0-.1 0-.2 0-.3 0-.2.1-.5.2-.7l.1-.1c0-.1.1-.1.1-.2.4-.5.9-.8 1.2-.7l.3.3c.1.1.1.2.1.3v.3c-.1.3-.2.5-.3.7-.2.3-.5.6-.8.7-.2.2-.4.2-.6.1zm1.5-3.9c.1-.3.2-.5.5-.8.1 0 .1-.1.2-.1 0-.1.1-.1.2-.2.3-.2.5-.3.8-.3h.3s.2 0 .3.1.2.2.2.4v.1c0 .4-.3.8-.7 1.2-.7.6-1.5.7-1.8.4-.1-.1-.1-.2-.1-.4 0-.1 0-.2.1-.4zm17.6 4.8c.1 0 .1-.1 0 0 .1-.2.2-.2.3-.3.3-.3.6-.4.9-.5.1.2.3.4.5.6.1.1.2.3.2.4-.3-.3-.7-.3-1.1 0-.1 0-.1 0-.2.1-.3.3-.4.6-.4.9 0-.1 0-.1 0-.1-.1-.1-.1-.4-.1-.6-.1.1-.2.4-.2.6 0 .3.1.5.3.7.2.1.5.2.7.2.3 0 .5-.1.7-.2s.4-.2.5-.4c.1-.1.1-.1.1-.1.2-.2.3-.5.3-.7 0-.3 0-.5-.1-.7.1.1.1.1.2.1h.6v.2.2c0 .5-.3 1-.7 1.4s-.9.6-1.4.7c-.1 0-.1 0-.2 0s-.2 0-.3 0c-.3 0-.5-.1-.7-.3l-.1-.1c-.1-.1-.2-.2-.2-.3-.1-.1-.1-.1-.1-.2s0-.3 0-.4c0-.3.2-.7.5-1.2 0 0 .1-.1 0 0zm16.8 22.3c-.6-.1-1-.4-1.2-.8 0-.2 0-.5.1-.7.2-.4.7-.7 1.3-.8h.4c1-.1 1.9.3 2.1.9.1.1.1.2.1.3s0 .3-.1.4c-.2.4-.7.7-1.3.8-.4.1-.8.1-1.4-.1zm22.2-11.2c-.5.5-1 1.1-1.5 1.9.1-.3.1-.5.1-.7-.1-.4-.3-.7-.7-1l-.1-.1c.6-.3 1.1-.9 1.5-1.6.2.6.4 1.1.7 1.5 0 0 .1 0 0 0zm-.4-4.9c0-.1 0-.2-.1-.3-.3-.4-.7-.7-1.1-.7-.1 0-.2 0-.3 0 0-.1.1-.2.1-.3.1-.4.2-.9.2-1.3v-.1c.5.8 1 1.5 1.6 1.8-.1.3-.2.6-.4.9zm-20.5 2c1.4-1.4 2.2-3.3 2.2-5.7v-.1c0-3.3-1.7-5-3.3-5.9 2.5.5 6.1 2.1 8.5 6.5 1.9 3.5 2.4 6.7 1.4 9-.7 1.4-1.9 2.4-3.6 2.9-1.5 0-2.7.4-3.1 1.2-.3-.2-.6-.3-.9-.4-.7-.3-1.5-.3-2.1-.1-.7.2-1.1.6-1.3 1.2v.1c-.4-.3-.9-.5-1.4-.5s-1 .2-1.4.5l-.1.1c-.3.3-.5.7-.6 1.1-.3-.1-.6-.2-.9-.2-.6 0-1.3.2-1.8.6-.3.2-.6.5-.8.8-.1 0-.1.1-.2.1-.4-2.2-.6-4.1-.6-5.3 0-.4 0-.8 0-1.2 0-1 .2-2 .4-3 .1-.3.1-.5.2-.8 1.4.7 2.8 1.1 3.6 1.1 1.6.1 4-.4 5.8-2zm19.5 9.7s0 .1 0 0v.2c0 .6-1.2 1.6-3.1 2-.6.2-1.1.2-1.6.2-.1-.2-.2-.4-.3-.6l-.1-.1c.2.1.3.1.5.1.3 0 .6-.1.9-.1s.6-.1.9-.2c.2-.1.5-.2.8-.3.2-.2.5-.3.7-.6.1-.1.1-.2.1-.3s-.1-.2-.2-.2c-.1-.1-.3-.1-.4-.1-.2 0-.5 0-.8.1.3.1.5.1.8.2.1 0 .2.1.3.1-.3 0-.9 0-1.6.1-.9.2-1.8.6-1.9.9-.1 0-.2 0-.2 0-.1 0-.1 0-.1 0s0 0 0-.1.1-.3.2-.4c-.2.1-.3.2-.4.3-.1 0-.1.1-.1.1-.1-.2-.4-.3-.6-.4.5-.5 1.3-1 2.5-1.3.1 0 .2-.1.3-.1 1.1-.2 2.2-.2 2.9.1.1 0 .1.1.2.1 0 .1.1.1.1.1.1 0 .1.1.2.2zm-.4-8c-.4.5-.9.8-1.4.8-.2 0-.4-.2-.6-.4-.3-.5-.4-1.3-.1-2.2.4-1.1 1.1-1.9 1.8-2.1.1-.1.3-.1.4-.1.3.1.4.2.6.4.3.5.4 1.2.2 2-.1.6-.5 1.2-.9 1.6zm-13.1 9.5c-1.9-.3-3.5.1-3.9.9-.1-.2-.3-.4-.5-.6.2 0 .4 0 .6-.1.7-.2 1.1-.6 1.3-1.2 0-.1 0-.1 0-.2.5.3 1.2.5 1.9.6s1.3.1 1.9 0c-.3.3-.4.5-.5.8-.2-.1-.5-.1-.8-.2zm2.8-1.3c.3-.2.5-.5.5-.8.5.2 1.1.3 1.7.4.3.1.7.1 1 .1-.1.2-.1.3-.2.5-.2 0-.4-.1-.7-.1-.8-.1-1.6-.1-2.3-.1zm-3.5-2.7c.2.1.4.1.6.1.6.1 1.1.2 1.5.4 0 .1.1.1.1.1.4.2.8.4 1 .7 0 .1.1.2.1.3s0 .2 0 .2v.1c-.1.6-1.4 1.1-3.2.9-.8-.1-1.6-.4-2.1-.7-.1-.2-.2-.5-.4-.7 0-.1-.1-.2-.2-.3 0-.3.5-.6 1.3-.8.4-.1.8-.1 1.3-.3zm6.6-.9c.7.1 1.3.3 1.7.5.1.1.3.2.4.3.1 0 .2.1.2.1.1.1.2.2.3.3.1.2.2.4.2.4v.1c0 .4-.9.8-2.1.9-.5.1-1 .1-1.5 0-.8-.1-1.5-.3-2-.5 0-.1-.1-.1-.1-.2-.1-.2-.4-.4-.6-.6-.1-.1-.2-.2-.4-.3v-.1c.1-.6 1.6-1.1 3.7-.9.2.1.3.1.2 0zm-14.7 3.4c-.3-.4-.9-.7-1.5-.7.2-.1.4-.1.6-.1.5 0 1 .3 1.3.8 0 .1.1.2.1.3.1.1.1.2.1.3 0 .6-.4 1.2-1 1.4.4-.4.6-.9.6-1.4 0 0 0-.1 0-.2v-.1c-.1-.1-.1-.2-.2-.3zm1.3-.1c-.1-.3-.2-.6-.2-.9.1-.3.4-.6.9-.7s1.1-.1 1.7.1c.3.1.6.3.8.4l.2.2c0 .1.1.1.1.1.1 0 .2.1.3.2l.1.1c.2.3.3.5.3.7v.2.2c-.1.3-.4.6-.9.7s-1.1.1-1.7-.1c-.2-.1-.3-.1-.5-.2s-.4-.2-.6-.4c-.1-.1-.2-.2-.3-.3s-.1-.2-.2-.3zm-4.6 2.8c.2-.7.3-1.3 0-1.6-.2-.2-.5-.2-.8-.2s-.6.1-1 .3c-.2.1-.3.2-.5.3l.1-.1.3-.3c.5-.3 1-.5 1.4-.5.2 0 .4.1.6.2l.2.2c0 .1.1.1.1.1v.1c0 .1.1.3.1.5v.1c0 .1-.1.2-.1.3-.1.3-.2.5-.4.6zm18.2-6.7c0-.5.4-1 1.1-1.3.5-.4 1.2-.7 2.1-.9.3 0 .6-.1.9-.1.7-.1 1.3 0 1.8.2.1 0 .3.1.4.2.3.1.4.3.4.5v.1c0 .7-1.2 1.8-3.1 2.2-.1 0-.1 0-.1 0-.3 0-.5.1-.8.1-.1 0-.1 0-.2 0-.5-.4-1.3-.7-2.2-.9-.1 0-.2-.1-.3-.1zm7.1-.5c-.4.8-.6 1.7-.6 2.4 0 .3 0 .6.1.8-.6-.1-1.4-.1-2.2 0 .2-.5-.2-1-.5-1.3 1.4-.3 2.6-1 3.2-1.9zm-8.5 8.2c-.6-.1-1.1-.2-1.6-.4 0-.1 0-.1 0-.1-.3-.4-.8-.8-1.5-1.1v-.1c.1-.6 1.7-1.1 3.6-.9.2 0 .5 0 .7.1.2 0 .3.1.5.1.1 0 .2.1.3.1s.2.1.3.1c.5.3.9.6 1.1.8v.1c.1.1.1.2.1.3v.1c0 .1-.1.2-.2.3-.5.4-1.8.7-3.3.6zm-13.4 1.2c.1.1.1.3.1.5 0 .1 0 .3-.1.4-.1.2-.2.4-.4.6.2-.6.3-1.2 0-1.5-.4-.4-1.3-.4-2-.1.1-.1.2-.2.4-.3.3-.2.7-.3 1.1-.2.4 0 .6.2.9.6zm8.2-.1c-1.1-.2-2.1-.7-2.5-1.2l-.1-.1c-.1-.2-.1-.3-.1-.5 0 0 0-.1.1-.2.4-.5 1.6-.8 3.1-.5.4 0 .8.2 1.1.3.6.3 1.1.6 1.4 1 0 .1.1.2.1.2v.3c0-.1 0 0 0 0-.2.6-1.5 1.1-3.1.7zm-25.2-29.3c.1.1.1.3.1.4v.1c-.3.2-.6.4-.8.8-.4.1-1 .1-1.5-.1-.7-.3-1.3-.8-1.5-1.3-.1-.1-.1-.3-.1-.5 0-.1 0-.1 0-.1 0-.1 0-.1 0-.1 0-.2.1-.3.2-.4s.2-.2.3-.2c.6-.2 1.3-.2 2 .1.7.2 1.2.7 1.3 1.3zm-.3 12.1c-.2 0-.3 0-.4 0s-.2-.1-.3-.2c0-.1-.1-.1-.1-.2v-.1c-.1-.4 0-.8.3-1.3.1-.2.3-.3.4-.5.4-.4.9-.7 1.3-.8l.2.2c.2.1.3.2.5.3.1 0 .2.1.4.1v.1c0 .3-.1.7-.3 1-.2.4-.5.8-.9 1-.3.2-.6.3-1.1.4zm.1.5c.1.2.1.3.1.5s-.1.5-.2.8c-.3.5-.7 1-1.2 1.2-.2.1-.4.1-.6.1s-.3-.1-.4-.3c-.2-.3-.1-.7.1-1.2.3-.7 1-1.2 1.5-1.3.1.1.2.2.3.2h.1zm5.2-10.5h.2c.2.1.4.2.5.3.4.3.6.8.6 1.4 0 .2-.1.4-.1.6-.1.5-.4 1-.8 1.3-.2.1-.3.1-.4.2 0 0-.1.1-.2.1s-.2 0-.3 0c0 0-.1 0-.2 0-.2-.1-.5-.2-.7-.5-.1-.1-.2-.2-.2-.3-.1 0-.1-.1-.1-.2-.2-.4-.2-.8-.1-1.3.2-.8.7-1.4 1.3-1.6.2-.1.4-.1.5 0zm-4.4 2.1c-.4-.3-.7-.7-.8-1.2-.2-.4-.1-.9 0-1.3 0-.2.1-.3.2-.4s.1-.1.2-.2.2-.2.3-.2h.1c.3-.1.6 0 .9.2.4.3.7.7.8 1.2.1.3.1.5.1.7s0 .5-.1.7c-.2.3-.5.6-.8.7s-.7 0-.9-.2zm-3.3 12.4c.1.3.1.7.1.7-.1 0-.5.5-.5.5s.1-.6-.1-.7-.2-.5-.1-.7.5-.1.6.2zm17.9-11c.5 0 1.1.3 1.6.8.7.7 1.1 1.6 1.1 2.4v.1c-.1 1.5-.5 3.3-3 3.2-.8 0-1.5-.4-2.1-1.1-.3-.3-.5-.8-.6-1.2.1.1.3.2.4.3.5.3.9.5 1.4.6.1.1.3.1.4.1.2 0 .3 0 .5-.1.3-.1.6-.5.6-.9 0-.1-.1-.2-.1-.3l-.1-.1-.1-.1c-.1-.1-.2-.1-.3-.2s-.3-.3-.4-.4c-.3-.3-.5-.6-.6-1-.1-.3-.1-.7 0-1.1 0-.2.1-.4.2-.6.4-.2.8-.2 1.1-.4zm18 10.5c.4-.5 1-1 1.7-1.4-.3.4-.3 1.9.4 2.7-.1 0-.3.1-.4.1-.7.1-1.3.3-1.8.6.1-.6.1-1.3.1-2zm4.6-12.5c.2-.1.3-.2.5-.3-.3.6-.5 1.3-.5 2.2v.6c-.3-.5-.7-1.1-1.1-1.5-.1-.1-.1-.1-.2-.2.5-.2 1-.5 1.3-.8zm-27-2.9c-.4 0-.7 0-.7-.6h-.1c.2-.2.6-.7 1.2-1.2.1.1.2.1.3.2.5.2 1 .2 1.4.1s.8-.1 1.2 0c.2.1.4.2.6.3s.3.3.4.5c0-.2-.1-.4-.3-.6s-.4-.3-.6-.4c-.4-.1-.9-.2-1.3-.2h-.3c-.1 0-.2 0-.3 0-.2 0-.4-.1-.5-.2l-.1-.1.1-.1c.3 0 .6-.1 1-.3.3-.2.5-.4.7-.6.2.1.3.1.5.1.3 0 .7 0 1 .1.3 0 .7.1 1 .2.4.1.7.2.9.5-.2-.3-.5-.5-.8-.7s-.6-.3-.9-.4h.2c.7-.2 1.3-.6 1.5-1.1 0 .1.1.1.1.2.2.3.4.4.6.6.4.3.8.6 1.2 1s.7.7 1 1.2c.2.4.4 1 .5 1.5 0-.6-.2-1.1-.4-1.6s-.5-1-.9-1.4c-.3-.3-.5-.5-.8-.8.2.1.4.1.6.1.6 0 1.2-.1 1.7-.3.2-.1.3-.1.4-.2 0 .1.1.1.1.2.1.1.1.1.2.2.3.8.9 1.9 1.5 2.6 1.1 1.2 1.4 2.6 1.4 2.6.2-1.2-1.1-3.3-2.2-4.6.4.2.8.5 1.3.6-.2-.1-.5-.2-.7-.4-.3-.1-.5-.3-.7-.5-.1-.1-.2-.3-.3-.4-.1 0-.2-.1-.2-.2s-.1-.2-.1-.3c0 0 0-.1 0-.2v-.1c0-.1.1-.1.1-.2s.1-.1.1-.2c.2-.1.4-.3.7-.3h.6.2c.3 0 .6 0 .8.1.1 0 .4.1.4.1h.2c.1.1.1.1.2.1.2.1.5.2.7.3.1.1.3.2.4.3 0 .1.1.1.2.2.2.1.3.3.5.5 0 .1.1.1.1.2s.1.1.1.2c.1.1.1.1.1.2v.1.1.1c0 .1 0 .2-.1.3-.1 0-.2.1-.3.2s-.2.1-.3.2c-.2.1-.5.2-.8.3.3.1.6.1.9.1.1 0 .2-.1.3-.1.4.9 1.8 4.9 1.8 7.4.3-1.2.3-2.7.2-4.1.1.1.3.2.5.2-.2-.2-.3-.4-.5-.6-.1 0-.1-.1-.2-.2-.2-.3-.4-.6-.6-.9s-.3-.6-.4-1-.1-.7.1-1c.1-.1.2-.2.3-.3s.1-.1.2-.1.2-.1.3-.1h.4c.3 0 .5 0 .7.1.4.1.7.2 1 .4 0 .1.1.1.1.1.1 0 .1.1.2.1.2.1.4.3.6.4.2.2.5.4.7.6.3.3.6.6.9.9l.2.2.2.2c.1.1.1.1.2.2 0 .1.1.1.1.2.2.3.4.6.5.9s.2.6.1.9v.1.1c0 .1-.1.2-.1.2-.1.1-.3.1-.4.2-.3.1-.6.1-1 .1-.1 0-.2 0-.3 0s-.2 0-.3 0c-.2 0-.4-.1-.6-.1.2.1.3.2.5.3.1.1.3.1.5.2.3.1.8.2 1.2.1h.1c-.8 1.1-2.3 3.4-2.6 4.7 1.4-.8 2.3-1.8 2.8-2.5.1.5.2 1 .4 1.5-.1-.4-.2-.8-.2-1.2 0-.2 0-.3 0-.5s0-.5 0-.7c.1-.4.1-.8.3-1.1.1-.3.4-.6.7-.7s.7 0 1 .2c.2.1.3.2.4.3.2.1.4.2.5.4.5.6.9 1.3 1.2 2s.5 1.4.6 2.2v.3.3.3.3c0 .4 0 .8-.1 1.1s-.3.6-.5.8-.5.2-.8.1c-.4-.1-.7-.3-1-.5s-.6-.5-.9-.8c.2.3.4.6.6.9-.5.3-1.6 1-2.7 2.2-.7-1.9-2.1-3.7-4.9-4.5-.1-.1-.1-.2-.2-.3-2-3.7-4.7-5.4-6.9-6.3-1-.8-2.9-2-5.1-1.6-2.4.4-3.9 1.4-5 2.8-.1.1-.2.2-.3.3 0 .1-.1.3-.2.4-.2.3-.3.6-.5.9.2-.2.4-.4.6-.6.1 0 .2-.1.3-.2s.2-.1.3-.2c.2-.1.4-.2.5-.3 0 .1-.1.2-.1.3-.1.1-.2.3-.3.4-.1.2-.2.3-.3.4 0 .1-.1.3-.2.4-.6 1-1 2.5-.4 4.1.2.6.4 1 .7 1.4.1.2.2.3.3.4s.2.2.3.3c.5.6 1.1.9 1.7 1.1-.1 0-.1 0-.2 0-.4 0-.9 0-1.3.1.4.1.8.2 1.2.3s.9.1 1.3.1.9-.1 1.3-.3.7-.4 1.1-.6c1.3-.5 2-1.7 2.1-3.7.1-.9-.4-2.2-1.2-3-.2-.3-.4-.4-.7-.6h.1c.4.1.7.3 1.1.5s.7.5 1.1.8c-.2-.4-.5-.8-.8-1.1-.4-.3-.7-.6-1.2-.8-.1 0-.3-.1-.4-.1h-.1c-.1-.1-.3-.1-.4-.1-.3-.1-.5-.1-.8-.1-.2 0-.5 0-.7.1-.3.1-.5.2-.7.4-.1.1-.2.2-.3.3s-.1.2-.2.3c-.1 0-.1.1-.1.2-.1.2-.2.3-.2.5v.1c-.1.5-.1 1 0 1.4.1.5.4.9.7 1.3l.5.5c0 .1.1.1.2.2 0 0 0 .1-.1.1s-.1 0-.2 0-.2 0-.3 0c-.4-.1-.8-.3-1.1-.5-.4-.3-.7-.6-.9-1-.1-.1-.1-.3-.2-.5 0-.1-.1-.2-.1-.3s0-.2 0-.3c0-.3 0-.6 0-.9 0-.4.1-.8.2-1.2s.3-.8.5-1.1.5-.6.8-.8c.4-.3.9-.5 1.5-.6.3 0 .5-.1.8-.1s5.5.6 5.5 6.2v.1c0 2.2-.7 4-2 5.2-1.7 1.6-4 2-5.1 1.9-.7-.1-2-.4-3.4-1.2 0 0-.1-.1-.2-.1 0-.1-.1-.1-.1-.1-.1-.1-.2-.1-.3-.2-.5-.4-1.1-.9-1.6-1.5-.2-.4-.4-.7-.4-1.1-.1-.5 0-.9.3-1.3-.4.3-.6.8-.7 1.3v.1c-.4-.7-.7-1.5-.8-2.5 0-.2.1-.5.2-.7.2-.3.4-.6.7-.8-.4.1-.7.3-1 .6-.1.1-.1 1-.1.1s.1-1.7.2-2.5v-.1l.1-.1.1-.1c.1-.2.3-.4.5-.5.4-.3.8-.5 1.3-.7-.5 0-1 .2-1.5.4-.1 0-.3.1-.4.2.1-.7.3-1.3.5-1.9 0 0 .1-.1.2-.2.2-.1.4-.2.6-.2.2-.1.6-.1.6-.1h.5.2c-.1-.1-.1-.1-.2-.1-.1-.1-.2-.2-.4-.2s-.5-.1-.7-.1-.3 0-.5 0c.2-.3.3-.7.5-1.1 0 0 .1-.1.2-.1s.2-.1.3-.1h.1c0-.1.1-.1.2-.1.2-.1.4-.2.6-.2.7-.1 1.3-.2 1.9-.1-.3-.1-.6-.2-.9-.2zm3.2 49.8c0 .2-.1.3-.3.3s-.3-.1-.3-.3.1-.3.3-.3c.1 0 .3.1.3.3zm-18.7-37.2c.1-.7.5-1.2.9-1.4.1.1.2.1.3.2.1 0 .2.1.3.1h.2v.4c0 .2 0 .4-.1.6-.2.7-.6 1.2-1 1.4-.2.1-.3.1-.4.1s-.2-.1-.3-.2c-.1-.3-.2-.8.1-1.2zm1.2-3c.2-.5.6-.9.9-1.1.2-.1.3-.2.5-.2h.2c.1 0 .1 0 .2.1 0 0 .1 0 .1.1.1.1.1.3.1.5v.4s0 .2-.1.4c-.3.6-.7 1-1.1 1.2-.1.1-.2.1-.3.1s-.2 0-.2 0c-.1 0-.1-.1-.2-.1 0-.1-.1-.1-.1-.2-.1-.1-.1-.2-.1-.3-.1-.3 0-.7.1-.9zm-11.5-10.6c-.2-.4.3-1.1 1.2-1.4.7-.4 1.6-.5 1.9-.2l.1.1c.1.1.1.1.1.2-.1 0-.2 0-.3.1s-.2.1-.3.2v-.1s0 0 0-.1c.1-.1 0-.1 0-.2-.1 0-.1 0-.1 0 0-.1-.1-.1-.1-.1-.1 0-.2 0-.3 0 0 0-.1.1-.2.1.1.1.2.1.3.1h.1c.1.1.1.2.1.1s-.1-.1-.1-.1c-.2-.1-.6 0-1 .2s-.6.4-.7.6v-.1s.1-.1.1-.2l-.2.2c-.1 0-.2.1-.2.2s0 .2 0 .2v.1c.1 0 .1.1.1.1.1.1.2.1.3.1.4 0 .7-.1 1-.3-.1.1-.2.3-.2.5-.2 0-.3.1-.5.1s-.3 0-.4 0-.1 0-.1 0c-.2 0-.3 0-.4-.1s-.1-.1-.2-.3c0 .1 0 .1 0 0zm16.3-3.2c.5.1 1 .3 1.3.6.2.1.4.3.5.5 0 .1.1.3.1.4v.1c-.1.3-.4.5-.8.6-.5.1-1.2.1-1.8-.1-.7-.2-1.2-.5-1.6-.9-.1-.2-.2-.3-.3-.5-.1-.1-.1-.3-.1-.4s.1-.2.2-.3.3-.1.5-.2c0 .1 0 .1 0 0 .5-.1 1.1 0 2 .2zm-3 93.2c-.1-.6-.1-1.1-.6-1.4.5.6 1.2 1.1 1.8 1.1v.1c0 .1.3-.1-.1.1s-.5.6-.5 1.1c0 .6.2 1.2.6 1.8.5.7 1.1 1.2 1.7 1.4-.1.1-.1.3-.2.4-.1.2-.1.5-.1.8 0 .6.2 1.3.5 1.9.1.2.2.3.3.5-.3 2.2-.7 3.9-1.5 5.1-.3.4-.6.7-1 1-.3.2-.7.4-1.2.5-.4.1-.9.2-1.5.2s-1.3 0-1.9-.1-1.4-.3-2.2-.5c-.2-.1-.4-.1-.6-.2-1.8-.6-3.1-1.4-4.1-2.3-.5-.5-.9-1-1.2-1.5-.8-1.2-1.2-2.6-1.3-3.8-.1-.4-.1-.9-.1-1.3 0-.6.1-1.1.1-1.5.1-2 2-4.9 5.5-5.4 3.7-.5 4.5 1.9 4.6 2.2s.2 1.1-.2 1.6c-.2.3-.6.5-1.1.6-.2 0-.4 0-.6 0h.1c.7-.3 1.1-.9 1.2-1.5.1-.2.1-.5 0-.9s-.2-.8-.5-1.1c-.4-.4-1-.7-1.8-.7-1.7 0-3 1.1-3.1 2.8-.1 1.6 1.1 3.4 3.4 3.7h.5c.5 0 1.1-.1 1.7-.2.3-.1.7-.2 1.1-.4.3-.2.7-.4 1-.7.2-.2.4-.5.6-.7.5-.7.7-1.6.7-2.7z"/><path d="m57.4 2.9c0-.1-.1-.1-.2-.3-.1-.1-.2-.1-.3-.1-.2 0-.4 0-.6 0 .1.1.2.1.3.2-.2 0-.4 0-.7 0-.6 0-1 .2-1.2.4-.1 0-.1 0-.1 0s.1-.1.1-.2c-.1.1-.2.1-.3.2v.1.1c0 .1.1.2.1.2h.1c.2.1.3.2.5.2.4.1.8.1 1.2 0 .2-.1.4-.1.6-.2.1 0 .2-.1.2-.1h.1c0-.1.1-.2.2-.3z"/><path d="m73.3 18.2c.2.4.4.7.6 1.1.1.2.3.3.4.5.1.1.3.3.5.4.1.1.3.1.4.1.2-.1.2-.2.3-.3.1-.2.1-.4.1-.6 0-.4-.1-.8-.2-1.2 0 .4 0 .8-.1 1.2 0 .1-.1.2-.1.3.1-.5.1-1.4-.2-2.3-.3-1.4-1-2.6-1.6-2.5 0-.1 0-.1 0-.2v-.1h.2c.1.1.3.2.5.3-.1-.2-.2-.4-.4-.5 0-.1-.2-.1-.3-.1s-.2.1-.3.2c-.1.2-.2.6-.2.6v.6c0 .4.1.8.2 1.2s.2.8.2 1.3z"/><path d="m75.7 11.3c0-.1 0-.1 0-.2s0-.2 0-.2c0-.2-.1-.4-.2-.5-.2-.3-.4-.6-.7-.8.1.2.1.3.2.4 0 .1.1.3.2.5v.1.1c-.1 0-.1-.1-.1-.1-.2-.3-.5-.7-.9-1.1-.1-.1-.1-.1-.2-.2-.7-.6-1.3-1-1.8-1.1-.2 0-.4 0-.5.1l-.1-.1v-.1c-.1 0 0-.1 0-.1h.1c.1-.1.2-.1.4-.1-.1-.1-.3-.1-.5-.1-.1 0-.2 0-.2 0l-.1.1c-.1.1-.1.1-.1.2v.1c0 .3.2.6.3.8 0 .1.1.1.1.2.2.3.4.6.7.8.2.3.5.5.8.7s.6.4.9.5c.2.1.5.2.5.2h.6c.1 0 .1-.1.2-.1s.1-.1.4 0z"/><path d="m69.1 6.7c0-.1 0-.1 0 0 .1-.2.1-.2 0 0 0-.1 0-.1 0-.2v-.1c-.1-.1-.2-.3-.3-.4-.2-.3-.5-.4-.8-.6.2.3.4.5.6.8.1 0 .1.1.1.1-.1-.1-.1-.1-.2-.2-.3-.3-.7-.6-1.2-.9-.8-.5-1.7-.7-2.1-.5l-.1.1-.1-.1c-.1 0-.1-.1-.1-.1v-.1c.1-.1.2-.1.4-.2-.2-.1-.3-.1-.5 0-.1 0-.2.1-.2.2v.3c.1.2.2.4.3.5s.2.2.3.3c.2.2.5.4.8.6s.6.4.9.5.7.2 1 .3h.5c.2 0 .3-.1.4-.1.1-.1.2-.1.3-.2-.1 0 0 0 0 0z"/><path d="m58.6 5.1c0-.1-.1-.2-.1-.2-.2-.3-.8-.5-1.4-.5-.1 0-.1 0-.2 0-.4-.1-.9 0-1.1.2h-.1c0 .1-.1.2-.1.3v.1l.1.1c.2.3.7.6 1.4.6.6 0 1.2-.1 1.4-.3.1-.1.1-.2.1-.3zm-2.8-.3c.3-.2.8-.3 1.3-.2.5 0 .9.1 1.1.3-.6-.2-1.7-.3-2.5.1 0-.1 0-.2.1-.2z"/><path d="m70 12.4h.6c.1 0 .1-.1.2-.1 0-.1.1-.1.1-.2 0-.2 0-.3 0-.4 0-.3-.1-.4-.2-.6-.3-.4-.5-.6-.8-.9.2.3.4.7.5 1 .1.1.1.2.1.3-.2-.4-.7-1-1.3-1.6-1-.9-2.1-1.5-2.5-1.1 0-.1-.1-.1-.1-.2s0-.1 0-.1c0-.1 0-.1 0-.1s0-.1.1-.1c.1-.1.3-.1.3-.1h.2c-.1 0-.3-.1-.4-.1s-.1 0-.2 0-.2.1-.3.2-.1.2-.1.2v.2c0 .2.1.4.2.6s.2.3.3.5c.3.3.5.6.8.9.3.2.6.5.9.7s.6.4 1 .6c.2.1.4.2.6.4z"/><path d="m78.4 31.9c.1.1.2.1.3.1s.2-.1.3-.1l.1-.1c.1 0 .2-.1.3-.2.2-.2.4-.5.5-.8-.3.2-.5.4-.8.6-.1 0-.1.1-.2.1.3-.3.7-.8 1-1.4.5-1 .7-1.9.3-2.2.1-.1.1-.1.1-.1 0-.1.1-.1.1-.1h.1c.1.1.2.2.3.4 0-.2 0-.3-.1-.5 0-.1-.1-.2-.2-.2s-.2 0-.3 0c-.2.1-.4.2-.5.3-.2.1-.3.3-.4.4-.2.2-.4.5-.6.8-.1.3-.3.6-.4.9s-.2.7-.2 1v.5c0 .1.1.2.1.3.1.1.1.2.2.3z"/><path d="m61.5 6.8c.3.1.6.2.8.4.3 0 .6.1.9.1h.5s.3-.1.5-.2c.1-.1.1-.2.1-.3s-.1-.2-.1-.3c-.1-.1-.2-.2-.3-.3-.3-.2-.5-.3-.8-.4.2.2.4.4.6.6-.3-.2-.7-.5-1.2-.7-.9-.3-1.8-.4-2-.1-.1-.1-.1-.1-.1-.1-.1-.1-.1-.1-.1-.1v-.1s0-.1.1-.1.1-.1.2-.1c-.1 0-.3 0-.4.1 0 0-.1.1-.1.2-.1.1 0 .2 0 .3.1.3.4.5.6.7.3.1.5.3.8.4z"/><path d="m79.8 18.9c.1-.2.1-.4.1-.6 0-.4-.1-.7-.2-1.1v-.1c0 .4 0 .7-.1 1.1 0 .1-.1.2-.1.3 0-.6 0-1.4-.2-2.3 0-.1-.1-.3-.1-.4-.3-1.1-.8-2-1.2-2.1h-.1v-.1c0-.1 0-.2 0-.2 0-.1 0-.1.1-.1s.2.1.2.1h.1c.1.1.2.1.3.2-.1-.2-.2-.4-.4-.5 0 0 0 0-.1 0s-.1.1-.2.1l-.1.1c0 .1-.1.1-.1.2-.1.2-.1.6-.1.6v.6c0 .4.1.8.2 1.2 0 .4.2.8.3 1.2s.3.7.5 1.1c.1.2.2.3.3.5.1.1.3.3.5.4h.2s.1-.1.2-.2c.1 0 .1-.2 0 0z"/><path d="m67.3 31c0-.1.2-.2.4-.4-.1 0-.3 0-.4.1 0 0-.1.1-.1.2-.1.1 0 .2.1.1v.2c.1.1.3.2.4.3s.3.1.4.2c.3.1.6.1.9.2s.6.1.9.1.6 0 .9 0 .6 0 .9-.2c0-.1.1-.1.1-.2v-.1c0-.1 0-.2-.1-.3s-.3-.1-.4-.2c-.3-.1-.6-.2-.9-.2.2.1.5.2.7.4.1.1.1.1.2.2-.3-.2-.9-.4-1.6-.5-.9-.1-1.8-.1-2.1.2h-.1-.1c-.1 0-.1 0-.1-.1z"/><path d="m68.2 36.6c.3.1.9.1.9.1h.9c.3-.1.6-.1.9-.3l.1-.1c.1-.1.1-.1.1-.2s0-.1 0-.1c0-.1-.1-.2-.1-.2-.1-.1-.3-.1-.4-.2s-.1-.1-.2-.1c-.2 0-.3-.1-.4-.1-.1-.1-.2-.1-.3-.1.1.1.2.1.3.2.2 0 .3.1.4.2l.1.1.1.1c-.3-.2-.8-.4-1.5-.5-.9-.1-1.8-.1-2.1.2-.1 0-.2-.1-.2-.1-.1 0-.1 0-.1 0v-.1c0-.1.2-.2.3-.3-.1 0-.3 0-.4.1 0 0-.1.1-.1.2 0 .2 0 .2.1.3s.3.2.4.3.3.1.4.2c.2.1.5.1.8.4z"/><path d="m61.8 32s.1-.1.3-.3c-.1 0-.3 0-.4.1 0 0-.1.1-.1.2s.1.1.1.2l.3.3s.3.1.4.2c.3.1.5.1.8.2s.5.1.8.1h.8c.3 0 .5-.1.8-.3 0-.1.1-.2.1-.3s0-.1-.1-.2c-.2-.1-.3-.1-.4-.2-.3-.1-.5-.2-.8-.2.3.1.5.2.7.4.1.1.2.1.2.2-.3-.1-.8-.3-1.4-.4-.9-.1-1.7-.1-1.9.2 0-.1-.1-.1-.2-.2 0 .1 0 .1 0 0z"/><path d="m63 37.6c.2 0 .5.1.9.3h.8c.2-.1.5-.1.8-.3 0-.1.1-.2.1-.3 0-.2-.1-.2-.1-.3-.1-.2-.2-.2-.3-.3-.3-.2-.5-.2-.8-.3.2.2.4.3.6.5 0 .1.1.1.1.2-.3-.1-.8-.4-1.4-.5-.8-.1-1.7-.1-1.9.1l-.1-.1c-.1 0-.1 0-.1 0v-.1c.1 0 .2-.1.3-.2-.1 0-.3 0-.4.1 0 0-.1.1-.1.2 0 0 .1.1.1.2l.3.3c.2.1.3.1.4.2.3.1.5.2.8.3z"/><path d="m56.2 37.2c.2.2.4.3.6.3h.2c.4 0 .8 0 1.1-.1.2-.1.4-.2.6-.3 0 0 .1-.1.2-.2s.1-.3.1-.4-.1-.2-.2-.3c-.1 0-.2-.1-.3-.1-.2 0-.4 0-.6 0 .2 0 .3.1.5.2.1.1.1.1.1.1-.3 0-.6-.1-.9 0-.2 0-.3.1-.4.1-.4.1-.6.3-.7.5-.1 0-.1 0-.1 0s-.1 0-.1-.1 0-.2 0-.3c-.1 0-.2.1-.2.2s0 .2.1.4z"/><path d="m58.3 32.4c-.4.1-.6.3-.7.5v.3s.1.1.1.2c-.1-.1-.2-.1-.3-.2-.1 0-.1 0-.2-.1l.1.1c0 .1.1.2.2.3s.1.2.2.2c0 0 .1.1.2.1h.1c.1.1.3.1.4.2.2 0 .5.1.8.1h.4s.3-.1.4-.2.2-.3.2-.5-.1-.4-.2-.5-.2-.2-.3-.3c-.2-.1-.3-.1-.4-.2-.3-.1-.5-.2-.8-.2s-.5 0-.8 0c.1.1.3.1.6.2z"/><path d="m53.2 3.5c-.1 0-.2 0-.4.1-.1 0-.3 0-.4.1.1 0 .1.1.2.1-.1 0-.2.1-.4.1-.4.2-.7.3-.8.5v.1s0-.1 0-.2c-.1.1-.2.2-.2.2v.2l.1.1c0 .1.1.1.2.1h.2c.2-.1.5-.1.7-.2.1-.1.1-.1.2-.1 0-.1.1-.1.1-.1.1-.1.2-.1.3-.2s.1-.1.2-.2c0-.1.1-.2.1-.3.1-.1 0-.1 0-.2 0 0 0-.1-.1-.1z"/><path d="m54.1 5.3c0-.1 0-.1-.1-.3-.2-.1-.7-.2-1.2 0-.2 0-.3 0-.4.1-.3.1-.5.3-.6.5v.2.1.1c0 .1.2.2.3.2.3 0 .6 0 1-.1.5-.1.9-.4 1-.6zm-.4-.2c-.6.1-1.3.3-1.8.8v-.1c.1-.1.4-.4.9-.5.4-.1.7-.1.9-.2z"/><path d="m49.4 6.8c0 .1-.1.1-.1.2v.1.1c.1.2.6.1 1-.1.2-.1.3-.2.4-.3.2-.2.3-.3.3-.4v-.1-.1s0-.1-.1-.1c0 0-.2 0-.3 0s-.2.1-.3.1-.2.1-.3.1c-.2.1-.4.3-.6.5zm0 .3.1-.2c.1-.1.2-.3.5-.4.1 0 .2-.1.3-.1.1-.1.2-.1.3-.1-.1 0-.2 0-.3.1-.2.1-.4.2-.6.4 0 .1-.1.2-.3.3z"/></g></svg>