<svg width="167" height="175" viewBox="0 0 167 175" fill="none" xmlns="http://www.w3.org/2000/svg">
<path d="M15.6366 58.7419L14.6397 61.7458L17.5282 62.7043C18.9724 63.1836 19.2815 63.9916 18.946 65.0025C18.6105 66.0135 17.8797 66.4764 16.4355 65.9972L5.51713 62.3741C4.07291 61.8948 3.73497 61.0772 4.07044 60.0663C4.40591 59.0553 5.16559 58.602 6.60982 59.0812L8.77616 59.8001L9.77299 56.7961L7.80884 56.1443C4.57377 55.0708 2.18841 56.0749 1.15323 59.1945C0.11806 62.314 1.42991 64.5449 4.66498 65.6185L15.179 69.1074C18.414 70.1809 20.7994 69.1768 21.8346 66.0573C22.8697 62.9377 21.5579 60.7068 18.3228 59.6332L15.6366 58.7419Z" fill="white"/>
<path d="M21.4513 51.1495L7.09808 45.7794L4.78618 49.8212L23.2781 60.3986L24.7287 57.8625L11.6523 50.3828L25.9678 55.6963L27.5393 52.9489L15.4263 43.3558L28.6877 50.9413L30.2592 48.1939L11.7672 37.6165L9.45531 41.6584L21.4513 51.1495Z" fill="white"/>
<path d="M19.0306 36.4643L27.3154 43.818C29.8646 46.0807 32.5132 46.0307 34.6951 43.5726C36.877 41.1144 36.6123 38.4786 34.0631 36.2159L25.7782 28.8622C23.229 26.5995 20.5804 26.6494 18.3985 29.1076C16.2166 31.5657 16.4814 34.2016 19.0306 36.4643ZM29.697 41.4557L21.0935 33.8192C19.9555 32.809 19.9675 31.9245 20.6746 31.1278C21.3817 30.3312 22.2586 30.2143 23.3966 31.2245L32.0001 38.861C33.1381 39.8711 33.1261 40.7557 32.419 41.5523C31.712 42.349 30.8351 42.4658 29.697 41.4557Z" fill="white"/>
<path d="M24.7465 22.7141L26.6587 25.0817L29.3814 22.8827L40.8543 37.0883L43.4587 34.9849L31.9858 20.7793L34.7085 18.5803L32.7964 16.2127L24.7465 22.7141Z" fill="white"/>
<path d="M40.5415 11.3758L36.2611 13.8222L46.8322 32.3177L49.7386 30.6566L45.7669 23.7075L47.1409 22.9223C50.0473 21.2611 50.5529 18.8338 48.8615 15.8746L47.4873 13.4701C45.7959 10.5109 43.4479 9.7146 40.5415 11.3758ZM40.6777 14.8033L42.0516 14.018C42.9764 13.4894 43.72 13.6253 44.4751 14.9464L46.0608 17.7207C46.8159 19.0418 46.5555 19.7515 45.6307 20.28L44.2568 21.0653L40.6777 14.8033Z" fill="white"/>
<path d="M55.3653 14.2003L53.3002 8.63663L58.7212 6.62455L57.6622 3.77141L49.1028 6.94838L56.5157 26.9204L65.0751 23.7434L64.0161 20.8903L58.5952 22.9023L56.4242 17.0534L60.7325 15.4543L59.6735 12.6012L55.3653 14.2003Z" fill="white"/>
<path d="M61.0027 2.7201L61.5989 5.70447L65.0309 5.01889L68.6079 22.9251L71.8907 22.2693L68.3137 4.36311L71.7457 3.67752L71.1496 0.693151L61.0027 2.7201Z" fill="white"/>
<path d="M76.4553 21.4085L81.3834 21.2674C84.7297 21.1716 86.3193 19.2689 86.2218 15.8617L86.1425 13.0934C86.0449 9.68628 84.3491 7.87764 81.0028 7.97346L79.4209 8.01876L79.1918 0.0180664L75.8455 0.113885L76.4553 21.4085ZM81.2963 18.2253L79.7145 18.2706L79.508 11.0608L81.0899 11.0155C82.1546 10.9851 82.7466 11.4552 82.7901 12.9763L82.8816 16.1705C82.9251 17.6915 82.3611 18.1948 81.2963 18.2253Z" fill="white"/>
<path d="M94.8057 21.6863L109.919 26.3799L116.237 6.03508L113.04 5.0422L107.625 22.4806L104.863 21.6231L110.279 4.18471L107.082 3.19183L101.666 20.6302L98.9053 19.7727L104.321 2.33434L101.124 1.34146L94.8057 21.6863Z" fill="white"/>
<path d="M119.267 13.119L113.767 22.7349C112.075 25.6936 112.666 28.2758 115.519 29.9077C118.372 31.5396 120.898 30.7405 122.59 27.7818L128.091 18.1659C129.783 15.2072 129.191 12.625 126.338 10.9931C123.485 9.36116 120.96 10.1603 119.267 13.119ZM116.567 24.5819L122.279 14.5963C123.034 13.2754 123.903 13.1059 124.827 13.6348C125.752 14.1637 126.046 14.998 125.29 16.3189L119.579 26.3045C118.823 27.6254 117.955 27.7949 117.03 27.266C116.106 26.7371 115.812 25.9028 116.567 24.5819Z" fill="white"/>
<path d="M130.3 33.5001L143.244 23.6141L140.558 21.3696L134.707 25.9979L130.918 29.2966L133.325 24.8035L136.589 18.0516L134.043 15.9242L127.053 31.5002L126.913 31.6208C125.707 32.6361 124.765 32.245 123.535 31.0586L121.623 33.347C125 36.5667 127.234 35.9348 130.3 33.5001Z" fill="white"/>
<path d="M149.564 30.584L146.383 26.8174L130.108 40.5627L132.268 43.1203L138.383 37.956L139.404 39.165C141.564 41.7226 144.042 41.7804 146.647 39.5811L148.762 37.7942C151.366 35.595 151.724 33.1416 149.564 30.584ZM146.218 31.3386L147.239 32.5476C147.927 33.3614 147.928 34.1174 146.765 35.0992L144.324 37.161C143.161 38.1428 142.416 38.0152 141.729 37.2014L140.708 35.9924L146.218 31.3386Z" fill="white"/>
<path d="M138.763 51.7562L148.616 49.2678L153.829 47.8214L140.858 55.3609L142.372 57.9658L160.79 47.2605L158.939 44.0768L149.959 46.1285L145.295 47.4312L156.951 40.6563L155.453 38.0777L137.034 48.783L138.763 51.7562Z" fill="white"/>
<path d="M145.668 57.5311L142.796 58.5377L142.968 59.026C144.075 62.1852 145.974 63.003 149.69 61.8294L161.96 57.916L162.926 60.6731L145.694 66.7129L146.821 69.9296L166.926 62.8831L163.795 53.9511L148.421 58.7593C146.534 59.3562 146.172 58.9671 145.668 57.5311Z" fill="white"/>
<path d="M151.34 115.805L152.337 112.801L149.448 111.842C148.004 111.363 147.695 110.555 148.03 109.544C148.366 108.533 149.097 108.07 150.541 108.549L161.459 112.173C162.904 112.652 163.242 113.469 162.906 114.48C162.571 115.491 161.811 115.945 160.367 115.465L158.2 114.746L157.203 117.75L159.168 118.402C162.403 119.476 164.788 118.472 165.823 115.352C166.858 112.233 165.547 110.002 162.311 108.928L151.798 105.439C148.562 104.366 146.177 105.37 145.142 108.489C144.107 111.609 145.419 113.84 148.654 114.913L151.34 115.805Z" fill="white"/>
<path d="M145.525 123.397L159.878 128.767L162.19 124.725L143.698 114.148L142.248 116.684L155.324 124.164L141.009 118.85L139.437 121.598L151.55 131.191L138.289 123.605L136.717 126.353L155.209 136.93L157.521 132.888L145.525 123.397Z" fill="white"/>
<path d="M147.946 138.082L139.661 130.729C137.112 128.466 134.463 128.516 132.281 130.974C130.099 133.432 130.364 136.068 132.913 138.331L141.198 145.684C143.747 147.947 146.396 147.897 148.578 145.439C150.76 142.981 150.495 140.345 147.946 138.082ZM137.279 133.091L145.883 140.727C147.021 141.738 147.009 142.622 146.302 143.419C145.595 144.215 144.718 144.332 143.58 143.322L134.976 135.686C133.838 134.675 133.85 133.791 134.557 132.994C135.264 132.198 136.141 132.081 137.279 133.091Z" fill="white"/>
<path d="M142.23 151.833L140.318 149.465L137.595 151.664L126.122 137.458L123.518 139.562L134.991 153.767L132.268 155.966L134.18 158.334L142.23 151.833Z" fill="white"/>
<path d="M126.435 163.171L130.715 160.724L120.144 142.229L117.238 143.89L121.21 150.839L119.836 151.624C116.929 153.285 116.424 155.713 118.115 158.672L119.489 161.076C121.181 164.036 123.529 164.832 126.435 163.171ZM126.299 159.743L124.925 160.529C124 161.057 123.256 160.921 122.501 159.6L120.916 156.826C120.161 155.505 120.421 154.795 121.346 154.267L122.72 153.481L126.299 159.743Z" fill="white"/>
<path d="M111.611 160.346L113.676 165.91L108.255 167.922L109.314 170.775L117.874 167.598L110.461 147.626L101.901 150.803L102.96 153.656L108.381 151.644L110.552 157.493L106.244 159.092L107.303 161.945L111.611 160.346Z" fill="white"/>
<path d="M105.974 171.826L105.378 168.842L101.946 169.528L98.3686 151.621L95.0858 152.277L98.6628 170.183L95.2307 170.869L95.8269 173.853L105.974 171.826Z" fill="white"/>
<path d="M90.5212 153.138L85.593 153.279C82.2467 153.375 80.6571 155.278 80.7547 158.685L80.834 161.453C80.9315 164.86 82.6274 166.669 85.9737 166.573L87.5556 166.528L87.7847 174.529L91.131 174.433L90.5212 153.138ZM85.6801 156.321L87.262 156.276L87.4685 163.486L85.8866 163.531C84.8218 163.562 84.2299 163.091 84.1864 161.57L84.0949 158.376C84.0513 156.855 84.6154 156.352 85.6801 156.321Z" fill="white"/>
<path d="M72.1708 152.86L57.0575 148.167L50.7392 168.512L53.9362 169.504L59.3519 152.066L62.113 152.923L56.6973 170.362L59.8943 171.355L65.3101 153.916L68.0711 154.774L62.6554 172.212L65.8525 173.205L72.1708 152.86Z" fill="white"/>
<path d="M47.7092 161.428L53.2094 151.812C54.9018 148.853 54.3103 146.271 51.4572 144.639C48.6042 143.007 46.0785 143.806 44.3861 146.765L38.8859 156.381C37.1935 159.339 37.7851 161.922 40.6381 163.553C43.4912 165.185 46.0168 164.386 47.7092 161.428ZM50.4093 149.965L44.6976 159.95C43.942 161.271 43.0738 161.441 42.1492 160.912C41.2246 160.383 40.9305 159.549 41.686 158.228L47.3978 148.242C48.1533 146.921 49.0216 146.752 49.9462 147.281C50.8708 147.809 51.1648 148.644 50.4093 149.965Z" fill="white"/>
<path d="M36.6763 141.046L23.7328 150.932L26.4181 153.177L32.2699 148.549L36.0583 145.25L33.6514 149.743L30.3877 156.495L32.933 158.622L39.9231 143.046L40.0636 142.926C41.2691 141.911 42.2115 142.302 43.4411 143.488L45.3538 141.2C41.9763 137.98 39.7426 138.612 36.6763 141.046Z" fill="white"/>
<path d="M17.412 143.963L20.5931 147.729L36.8688 133.984L34.7088 131.426L28.5938 136.591L27.5727 135.382C25.4127 132.824 22.9341 132.766 20.33 134.965L18.2141 136.752C15.61 138.952 15.252 141.405 17.412 143.963ZM20.7582 143.208L19.7371 141.999C19.0498 141.185 19.0488 140.429 20.2113 139.447L22.6527 137.386C23.8152 136.404 24.5603 136.531 25.2476 137.345L26.2687 138.554L20.7582 143.208Z" fill="white"/>
<path d="M28.2139 122.79L18.3609 125.279L13.1471 126.725L26.1188 119.186L24.6047 116.581L6.18655 127.286L8.03703 130.47L17.0175 128.418L21.6812 127.115L10.0251 133.89L11.5239 136.469L29.9421 125.764L28.2139 122.79Z" fill="white"/>
<path d="M21.308 117.015L24.1801 116.009L24.0089 115.521C22.9016 112.361 21.0026 111.544 17.2861 112.717L5.01662 116.631L4.05025 113.873L21.2824 107.834L20.155 104.617L0.0507812 111.663L3.18143 120.595L18.5557 115.787C20.4426 115.19 20.8047 115.579 21.308 117.015Z" fill="white"/>
<path d="M156.596 79.8373C156.919 79.0248 158.069 79.0248 158.392 79.8373L159.692 83.1093C159.83 83.4563 160.155 83.6928 160.528 83.7167L164.041 83.942C164.914 83.998 165.269 85.0917 164.596 85.6499L161.886 87.8974C161.599 88.1357 161.475 88.5184 161.567 88.8802L162.438 92.2914C162.655 93.1385 161.724 93.8145 160.986 93.3469L158.011 91.464C157.695 91.2643 157.293 91.2643 156.977 91.464L154.002 93.3469C153.264 93.8145 152.333 93.1385 152.55 92.2914L153.421 88.8802C153.513 88.5184 153.389 88.1357 153.102 87.8974L150.392 85.6499C149.719 85.0917 150.074 83.998 150.946 83.942L154.46 83.7167C154.833 83.6928 155.158 83.4563 155.296 83.1093L156.596 79.8373Z" fill="white"/>
<path d="M7.11272 80.0972C7.43556 79.2846 8.5856 79.2846 8.90844 80.0972L10.2085 83.3691C10.3464 83.7161 10.6719 83.9526 11.0445 83.9765L14.5581 84.2018C15.4306 84.2578 15.7859 85.3516 15.113 85.9097L12.4029 88.1572C12.1155 88.3956 11.9912 88.7782 12.0836 89.14L12.955 92.5512C13.1714 93.3983 12.241 94.0743 11.5022 93.6067L8.52727 91.7238C8.21175 91.5241 7.80941 91.5241 7.49389 91.7238L4.51893 93.6067C3.78016 94.0743 2.84976 93.3983 3.06616 92.5512L3.93758 89.14C4.03001 88.7782 3.90567 88.3956 3.61825 88.1572L0.908198 85.9097C0.235215 85.3516 0.590594 84.2578 1.4631 84.2018L4.97664 83.9765C5.34928 83.9526 5.67478 83.7161 5.81266 83.3691L7.11272 80.0972Z" fill="white"/>
</svg>
