<svg width="39" height="40" viewBox="0 0 39 40" fill="none" xmlns="http://www.w3.org/2000/svg">
<path fill-rule="evenodd" clip-rule="evenodd" d="M29.3723 37.9339C31.5216 40.0832 35.0063 40.0832 37.1556 37.9339C39.3049 35.7846 39.3049 32.2999 37.1556 30.1507L27.2739 20.269L37.1511 10.3918C39.3004 8.24248 39.3004 4.7578 37.1511 2.60851C35.0018 0.459224 31.5172 0.459221 29.3679 2.60851L19.4907 12.4857L9.61284 2.60791C7.46355 0.458627 3.97887 0.458626 1.82959 2.60791C-0.319698 4.7572 -0.319699 8.24188 1.82959 10.3912L11.7074 20.269L1.82513 30.1513C-0.324156 32.3005 -0.324155 35.7852 1.82513 37.9345C3.97442 40.0838 7.4591 40.0838 9.60838 37.9345L19.4907 28.0522L29.3723 37.9339Z" fill="white"/>
</svg>
