<svg width="22" height="21" viewBox="0 0 22 21" fill="none" xmlns="http://www.w3.org/2000/svg">
<path d="M15.1195 0.726177C14.0527 0.796623 13.0415 1.18614 12.1254 1.87402C11.7289 2.17238 2.14003 12.1756 1.81485 12.6273C1.11294 13.6011 0.819486 14.8567 1.0019 16.0543C1.52537 19.4149 5.18562 21.0186 7.87034 19.0544C8.1519 18.8472 16.3012 10.3938 16.8802 9.7059C17.364 9.12991 17.5821 8.59949 17.6257 7.87018C17.6575 7.35634 17.5663 6.9088 17.3323 6.39911C17.1816 6.07174 17.0983 5.95157 16.8088 5.65322C16.5273 5.35486 16.4043 5.25955 16.0911 5.09794C15.6033 4.84517 15.2464 4.77058 14.7031 4.79544C14.4017 4.80787 14.1995 4.84517 13.9695 4.91975C13.3032 5.14767 13.4896 4.96948 8.91726 9.73491C5.99857 12.7765 4.67803 14.1771 4.62647 14.2931C4.45992 14.6619 4.61061 15.1053 4.96751 15.296C5.11028 15.3747 5.45132 15.383 5.58218 15.3084C5.6377 15.2794 7.55706 13.3069 9.84522 10.92C13.8069 6.78863 14.021 6.57315 14.2669 6.46127C15.0798 6.09246 15.9879 6.61045 16.1267 7.51795C16.1704 7.79144 16.1109 8.15196 15.9879 8.38816C15.9205 8.52076 14.481 10.0498 11.4394 13.224C7.09308 17.7533 6.98205 17.8693 6.66876 18.035C5.81616 18.4909 4.86837 18.5157 4.05146 18.1055C3.02833 17.5916 2.4097 16.564 2.4097 15.3705C2.4097 14.6371 2.62384 14.0031 3.06402 13.4437C3.18299 13.2945 5.43149 10.9242 8.06862 8.17682C13.2477 2.77324 13.1129 2.90584 13.8663 2.57019C16.7652 1.27316 19.9496 3.55643 19.8068 6.83421C19.7711 7.67127 19.5332 8.42131 19.0811 9.14234C18.9344 9.37439 17.7725 10.6175 14.0012 14.5625C10.5511 18.1759 9.09572 19.7257 9.05209 19.8335C8.97278 20.0365 8.97675 20.223 9.06796 20.426C9.15123 20.6167 9.2821 20.7534 9.44072 20.8156C9.59935 20.8819 9.8928 20.8694 10.0395 20.799C10.2259 20.7037 19.8425 10.6341 20.1042 10.2529C20.5008 9.68104 20.715 9.26251 20.9132 8.65751C21.2582 7.62569 21.3296 6.56486 21.1234 5.51233C20.8855 4.26917 20.3422 3.24149 19.4579 2.35885C18.284 1.19029 16.7692 0.618437 15.1195 0.726177Z" fill="#535353"/>
</svg>
