<svg viewBox="0 0 143.3 89.6" xmlns="http://www.w3.org/2000/svg"><g fill="#fff"><path d="m85.9 43.1s-4.1-4.3-4.1-4.8-.1-3.6.2-4.1 3.1-5.5 3.5-5.8 2.2-1.1 4.2-1.3 4.7-.2 5.2.4c.5.5 3.5 2.2 3.5 3.1s1.5 3.2 1.5 3.2l-.2 4.8-2.3 3.4s-6.6 1.4-7 1.5-4.5-.4-4.5-.4z"/><path d="m88.9 40.2c3.1.8 10.4 1.1 10.1-3.8-.2-2.9-2-7.3-5.1-8-2.6-.6-9.9.2-10.7 6.7-.1.6-.1 1.2.3 1.8 1.2 1.9 3.4 2.8 5.4 3.3zm3-9.1c.8-.2 1.7.3 1.9 1.1s-.3 1.7-1.1 1.9-1.7-.3-1.9-1.1c-.2-.9.3-1.7 1.1-1.9z"/><path d="m89.4 73.7c1.1-.8 2.1-1.6 3.2-2.5-1 .3-2 .6-3 .8-.1.6-.1 1.1-.2 1.7z"/></g><path d="m125.6 37.3c-.8.3-1.6.5-2.4.8-5-7.5-8.6-15.7-16.9-20.4-4.9-2.8-11.3-3-16.8-2.4-1 .1-2 .3-3 .4-.1 0-.1-.1-.2-.1-.4-.1-1.7-1.3-2.3-1.7-1.6-1.1-3.3-2.1-5-3.1-3.1-1.7-6.3-2.8-9.8-3.3-3.2-.4-7 .5-10.1 1.2-3 .7-6.6 1.7-9 3.8-4.2 3.5-5.9 8.9-3.8 14 1.4 3.3 4.2 5.1 7.5 5.9-2.9 2.8-5.4 6.2-7.1 9.9-3.7-4.9-9.8-8.7-14.3-11.7-5.7-3.7-14.7-9.4-21.9-7.8-2.7.6-3.9 3-4 5.5-.2 4.5 2.5 8.3 5.6 11.2 4.6 4.2 10.6 7 16.3 9.4 2.6 1.1 5.4 2 8.1 3-7.2 1.8-14.2 5.4-19.3 10.5-4.4 4.5-10.2 14.1-1.4 17.5 7.9 3.1 16.1-1.2 22.7-5.5 4.1-2.7 8-5.8 11.8-9 4.5 4.8 10.8 7.4 17.4 8.4-.4.8-.7 1.7-.7 2.6-.5 4.7 3.4 8 7.8 8.3 5.1.3 10.4-3 14.4-5.7 2.3-1.5 5.1-4.1 12.3-11.2 2.8-1.3 5.4-2.7 8-4.2 8.9-5.3 17.4-13.5 18.8-24.2 0-1.3-1.5-2.4-2.7-2.1zm-93.3-3.6c4.1 2.6 8.8 5.8 12.2 9.8-10.5-6.1-21.3-11.8-31.8-17.9 6.7-.3 14.3 4.7 19.6 8.1zm-9.2 31.9c3.7-3.5 8-5 12.4-6.1-6 3.7-11.6 8.1-17.5 12 1.1-2.3 3.5-4.3 5.1-5.9zm-5.5 8.1c8.5-5.3 16.1-11.8 25.1-16.1.6-.2 1.3-.4 1.9-.6-8.8 4.5-16.8 11-23.9 17.8-1.3-.1-2.6-.3-3.1-1.1zm6 .8c6.8-6 14-11.8 22.2-15.9.1.2.1.3.2.5.1.1.1.3.2.4-6.5 6.5-14 12.9-22.6 15zm20.9-24.6c-3.3-.9-6.6-2.2-9.9-3.3-5.2-1.8-10.3-3.8-15.1-6.5-2.8-1.5-5.7-3.4-7.6-6 10.3 6.1 22 9.2 32.8 14.5-.1.5-.1.9-.2 1.3zm.5-2.9c-11.4-5.6-24-8.8-34.8-15.7-.1-.2-.2-.5-.2-.7-.5-1.7-.6-3.4.6-4.3 11.2 7.1 23.2 13.1 34.8 19.6-.2.3-.3.7-.4 1.1zm30-33.4c2 1 3.8 2.2 5.6 3.6-2.2.6-4.3 1.3-6.4 2.2-1.4-3.1-3.3-5.8-5.8-7.9 2.1.3 4.3 1 6.6 2.1zm-10-2.3c3.4 2.1 5.8 5.2 7.6 8.7-.9.4-1.8.8-2.6 1.2-3.2-3.9-7-7.2-11.8-9 2.4-.6 4.7-.9 6.8-.9zm-9.3 1.6c.1.1.2.2.4.3 5 1.5 9.1 4.7 12.4 8.6-.8.4-1.6.9-2.4 1.3-3.8-3.7-8.3-6.7-13-9.1.9-.3 1.7-.7 2.6-1.1zm-4.2 2.3c4.8 2.3 9.3 5.3 13.2 8.9-.7.4-1.3.8-2 1.2-4.8-2.2-9.7-4.3-14.7-5.8.6-1.7 1.9-3.1 3.5-4.3zm-2.6 11.4c-.4-.7-.8-1.4-1-2.2-.4-1.2-.4-2.3-.3-3.4 4.7 1.5 9.2 3.3 13.6 5.3-.8.5-1.5 1.1-2.2 1.7-3.3-.4-6.5-1.1-9.7-1.4-.2 0-.3 0-.4 0zm1.5 1.8c2.3.3 4.6.7 6.9.9-.6.5-1.1.9-1.7 1.4-2-.3-3.8-1-5.2-2.3zm9.5 37.3c-12.3-5.9-8.7-21.2-5.1-25.6 4.5-5.5 10.6-9.8 17.2-12.8-2.3 5.5-2.7 11.9-2.2 17.5.8 8.7 4.4 17.5 11.2 23-7.3 1.3-14.8 1-21.1-2.1zm10.7 8.4c.8.1 1.5.1 2.3.1-.8 1.8-1.6 3.5-2.1 5.3-1.1-1.5-1.1-3.7-.2-5.4zm2.8 7.1c-.5-.1-.9-.2-1.3-.4.1-.1.1-.2.1-.3.6-2.2 1.6-4.1 2.4-6.2h.2c.5 0 1 0 1.6-.1-1.1 2.2-1.7 4.6-2.2 7.1-.2-.1-.5-.1-.8-.1zm2.5 0c.5-2.5 1.2-5 2.4-7.2.6 0 1.1-.1 1.7-.2-.8 2.2-1.3 4.4-1.7 6.7-.8.3-1.6.6-2.4.7zm4.2-1.4c.4-2 .9-4.1 1.6-6v-.1l2.1-.3c-.6 1.7-1.2 3.5-1.6 5.3-.7.3-1.4.7-2.1 1.1zm7.6-4.8c-1.2.8-2.3 1.6-3.4 2.3.4-1.4.8-2.8 1.3-4.2 0-.1 0-.1 0-.2.8-.2 1.6-.3 2.4-.5-.2.9-.3 1.7-.3 2.6zm1.7-1.3c0-.6.1-1.1.2-1.7 1-.3 2-.5 3-.8-1 .8-2.1 1.7-3.2 2.5zm-3-6.9c-8.1-6.3-12.4-13.8-13.7-21.4-1.1-6.7-.4-13.7 2.8-19.5 3.7-1.4 7.5-2.5 11.2-3.2 4.8-.9 9.8-.9 14.4.8 7.1 2.5 10.6 10.9 14.3 17.4-11.4 4.4-22.6 9.4-34.4 12.9-1.1.3-.7 2 .5 1.7 7.5-1.7 14.5-4.5 21.6-7.3 4.4-1.7 15.7-6.5 20.4-7.9.2.3-5.4 23.1-37.1 26.5z" fill="#252525"/><path d="m101.6 33.6c-1.2-4.6-4.3-8.4-9.3-8.5-4.5 0-8.7 3.1-11 6.8-2.7 4.3-2 9.6 2.1 11.8 10.5 5.8 19.7-4.5 18.2-10.1zm-18.4 1.6c.8-6.5 8.1-7.4 10.7-6.7 3.1.7 4.9 5.1 5.1 8 .3 4.9-7 4.6-10.1 3.8-2-.5-4.2-1.4-5.3-3.2-.5-.7-.5-1.3-.4-1.9z" fill="#252525"/><path d="m92.7 34c.8-.2 1.3-1.1 1.1-1.9s-1.1-1.3-1.9-1.1-1.3 1.1-1.1 1.9c.2.9 1.1 1.3 1.9 1.1z" fill="#252525"/><path d="m130.2 27s-.4 1 1.2 1.7 2.2-.1 2.2-.1l-.7 2.5-2.7.4-1.7-2.1s.1-3.4 1.7-2.4z"/><path d="m123.8 9.7s-.6 1.5 1.3 2.5c1.9.9 2.7-.3 2.7-.3l-1.2 3.8-3.3.9-1.8-3s.4-5.2 2.3-3.9z"/></svg>