<svg viewBox="0 0 250.941 81" xmlns="http://www.w3.org/2000/svg"><path d="m80.92 43.626c9.008 0 9.023-14 0-14-9.008 0-9.023 14 0 14z" fill="#ffe30e"/><path d="m90.795 49.626c9.008 0 9.023-14 0-14-9.008 0-9.023 14 0 14z" fill="#ffe30e"/><path d="m77.795 53.876c9.008 0 9.023-14 0-14-9.008 0-9.023 14 0 14z" fill="#ffe30e"/><path d="m70.67 47.126c9.008 0 9.023-14 0-14-9.008 0-9.023 14 0 14z" fill="#ffe30e"/><path d="m79.87 41.576c.083-.083.167-.167.25-.25 1.269-1.269 2.05-3.155 2.05-4.95 0-1.717-.763-3.768-2.05-4.95-1.334-1.225-3.085-2.134-4.95-2.05-1.857.083-3.61.711-4.95 2.05-.083.083-.167.167-.25.25-1.269 1.269-2.05 3.155-2.05 4.95 0 1.717.763 3.768 2.05 4.95 1.334 1.225 3.085 2.134 4.95 2.05 1.857-.083 3.61-.71 4.95-2.05z" fill="#ffe30e"/><path d="m77.795 39.501c9.008 0 9.023-14 0-14-9.008 0-9.023 14 0 14z" fill="#ffe30e"/><path d="m68.295 49.001c9.008 0 9.023-14 0-14-9.008 0-9.023 14 0 14z" fill="#ffe30e"/><path d="m62.795 49.001c9.008 0 9.023-14 0-14-9.008 0-9.023 14 0 14z" fill="#ffe30e"/><path d="m84.795 42.001c9.008 0 9.023-14 0-14-9.008 0-9.023 14 0 14z" fill="#ffe30e"/><path d="m87.92 40.251c9.008 0 9.023-14 0-14-9.008 0-9.023 14 0 14z" fill="#ffe30e"/><path d="m94.42 55.564c.483 0 .483-.75 0-.75-.482 0-.483.75 0 .75z" fill="#fff"/><path d="m94.658 55.302c-.866.816.506 1.667 1.275.916.385-.377.376-.69.113-1.115-.172-.277-.37-.937-.77-.999-.719-.112-1.572 1.395-.858 1.87 1.147.763 2.127-1.837 2.093-2.564-.006-.12-.065-.272-.186-.324-1.018-.433-1.701.994-2.157 1.658-.52.759-.922 1.977.345 2.336.841.239 1.715-.879 2.11-1.459.329-.484.524-1.022.496-1.612-.023-.481-.219-1.455-.603-1.81-1.27-1.175-4.044 1.311-2.958 2.718.502.65 1.353.415 1.365 1.436.005.417-.085.567.22.919.55.634 1.521.588 1.758-.271-.241 0-.482 0-.723 0-.018.135-.036.27-.053.405h.723c-.007-.187-.013-.374-.02-.561.094-.471-.628-.673-.723-.199-.07.349-.068.616.02.96.097.382.603.329.723 0 .135-.371.121-.417.053-.804-.066-.378-.631-.336-.723 0-.499-.018-.646-.181-.443-.489.004-.033.009-.066.013-.1-.108-.333.048-.263-.11-.606-.162-.351-.474-.558-.795-.749-.374-.222-.782-.239-.711-.896.041-.374.43-.741.711-.936 1.26-.874 1.752.788 1.385 1.749-.103.27-.864 1.467-1.238 1.475-1.235.027.715-2.506.719-2.505.078.034-.41 1.064-.379 1.012-.095.126-.19.252-.285.378.182-.135.167-.224-.046-.266.072.34.531.642.19.964.351-.332-.18-.862-.531-.531z" fill="#fff"/><g clip-rule="evenodd" fill-rule="evenodd" fill="#252525"><path d="m11.306 39.704c-1.18.264-3.852.482-4.854-.105.883-1.495 3.981-.495 4.854.105z"/><path d="m2.021 44.874c.328-.004.469.72 0 .633-.23-.22.053-.301 0-.633z"/><path d="m23.441 45.296c.721.017.976.5 1.477.739-.352.404-.998-.299-1.583-.316-.013-.189.129-.223.106-.423z"/><path d="m22.702 46.352h.949c.032.275-1.002.379-.949 0z"/><path d="m20.802 47.513c-.146.242-.115.658-.527.632-.199 2.233-.677-.917.527-.632z"/><path d="m27.028 48.778c.495-.069 1.15.606 1.371 1.161-.81-.034-1.023-.665-1.371-1.161z"/><path d="m22.069 50.15c-.301.229-1.283.332-1.688.106.196-.466 1.29-.131 1.688-.106z"/><path d="m33.464 50.994c.711.028.894.583 1.055 1.161-.373.051-1.211-.671-1.055-1.161z"/><path d="m4.343 51.416c.195-.257.072.696.105.949-.195.257-.071-.695-.105-.949z"/><path d="m22.702 53.421c.352.055.239.949.105 1.161-.688-.032-.224-.769-.105-1.161z"/><path d="m34.625 53.421c.921-.041 1.677.081 2.004.633-.942.064-1.597-.161-2.004-.633z"/><path d="m9.302 55.742c-.324 1.706.751 2.428 1.794 3.06-.653.46-1.573-.404-2.11-.738-.462.207-.657.68-.844 1.16-.829.418-2.189.078-2.427-.738.145-.593.586-.892.844-1.372.457.15.001.625 0 .95.19.162.323.38.738.317.731-.753.529-2.981 2.005-2.639z"/><path d="m31.037 55.742c-.135.301-.995.274-1.266.106.264-.312.855-.196 1.266-.106z"/><path d="m39.056 56.058c.739.179 1.214 1.055.95 1.9-.163-.787-.964-.937-.95-1.9z"/><path d="m35.257 58.485c-.486.171-1.623.171-2.11 0 .494-.166 1.941-.808 2.11 0z"/><path d="m39.056 58.38c-.27.365-1.361.223-1.793.105.292-.299 1.366-.281 1.793-.105z"/><path d="m11.729 58.802c.338-.092.219.274.421.317-.057.37-.612.169-.844.105.034-.248.501-.062.423-.422z"/><path d="m241.849 61.335c-.178.58-.59.532-.949.21-2.781.173-5.281.628-8.441.423-1.435 1.014-3.055-.316-5.064 0-.394-.042-.044.658-.317.738-.876.929-2.227-.498-3.587-.738-1.499-.266-2.344.18-3.693.526 1.035.726 2.405.242 3.587.316 1.697.108 3.18 1.053 4.748 1.161-.783.519-2.718-.115-3.481.423.488 1.201 3.227.512 3.271 1.899.047 1.481-5.415 1.357-6.12.21.236-.678 1.363-.466 2.216-.526-1.239-.555-1.958-1.631-3.904-1.478.141-.211.468-.235.739-.316-.713-.482-2.139-.253-2.216-1.373-1.164.146-2.067-.047-3.376 0-1.105 1.322-3.099 1.755-4.959 2.321 1.149.392 2.907-.244 4.326.211.325.279.071.355-.105.634.928.196 2.157.094 3.06.316-.694.662-2.534.675-3.587.632-.292-.29.095-.44.105-.738-.79.266-2.081.03-2.638.528-1.96-.576-3.881 1.322-5.908.421.529-.772 1.637-.966 2.743-1.16-.633-.494-2.268.016-3.06-.317 2.409-1.636 6.781-1.309 8.969-3.166-4.808-.129-8.521 2.569-12.45 4.115-1.11.437-2.281.583-3.166 1.056-1.253.669-1.71 2.348-3.165 2.638-1.823.362-3.185-.791-5.275-.528-1.673.211-3.043 1.647-4.643.845.406-.791 1.428-.963 2.321-1.268-.939-.561-2.52-.691-3.693-.949-1.273-.279-2.998.03-3.482-1.055.348-.533.987-.218 1.477-.212 3.15.046 6.563.41 9.918.422.037-.387-.385-.319-.633-.422.749-.596 1.915.09 2.004.844 4.899-.727 8.942-2.312 12.345-4.537.23-.221-.052-.3 0-.633 5.566-1.476 11.842-3.223 18.781-2.637.332.23.573.551.844.843 5.431.236 11.7-.496 16.458.321zm-22.473-.212c.968.152 2.439.199 3.27-.106-.842-.356-2.522-.271-3.27.106zm2.954 3.377c.708-.105 1.565.387 2.004-.105-.483-.169-1.663-.211-2.004.105zm-28.91 4.537c1.146-.016 2.508.187 2.849-.633-.96-.184-2.103.261-2.849.633zm-4.01-.423c.253-.063.766.133.844-.105-.232-.063-.786-.265-.844.105z"/><path d="m27.872 62.495c-1.257 1.162-4.207-.188-3.482-1.899 1.277.516 1.803 1.785 3.482 1.899z"/><path d="m29.033 60.596h.527c.162.323-.689.323-.527 0z"/><path d="m28.399 61.017c-.095.188-.254.309-.316.528-.895.085-1.023-.594-2.005-.422.65-.292 1.692-.346 2.321-.106z"/><path d="m29.665 60.913c.186.061.62-.127.633.104.074.397-.798.258-.633-.104z"/><path d="m48.658 61.545c-.292-.095-.99.217-.95-.21.252-.076 1.007-.308.95.21z"/><path d="m14.893 61.756c-.258.202-.722.262-1.055.105.298-.316.707-.341 1.055-.105z"/><path d="m47.392 61.861c-.05.405.964.652 1.688.633.217-.029.025-.466.316-.421.61.377.958-.155 1.583.104-.521 1.696-2.829.267-4.326.423.188-.304.85-.134.739-.739z"/><path d="m14.893 62.495c-1.045.305-3.082.691-4.326.106.001-.281-.04-.603.106-.739 1.359.259 2.593.642 4.22.633z"/><path d="m40.639 62.073c-.018.333-.074.628-.422.633-.084-.197-.176-.386-.211-.633.309-.095.323-.095.633 0z"/><path d="m43.805 62.284c-.266.097-.724.203-.739-.21.265-.098.723-.204.739.21z"/><path d="m42.749 62.178v.423c-.192.161-.863.161-1.056 0 .203-.264.581-.768 1.056-.423z"/><path d="m238.262 62.495c-.658.134-1.871.215-2.426.106.593-.197 1.806-.369 2.426-.106z"/><path d="m243.222 62.601c-.727 1.046-2.292-.258-3.588 0-.189.03-.217-.1-.105-.106 1.341.058 2.743-.436 3.693.106z"/><path d="m249.974 62.706c-.384.473-1.874.559-2.426.211.173-.641 2.19-.942 2.426-.211z"/><path d="m24.284 62.495c-.062.337.198.327 0 .528-.299-.053-.151-.552-.633-.422-.323-.164.458-.094.633-.106z"/><path d="m55.832 63.234c-.994 1.335-2.436-.478-3.587-.633.606-.034 3.286-.339 3.587.633z"/><path d="m37.263 62.706c.295.091.224.549.422.738.32-.171.675-.309 1.16-.315.166.186.03.673.317.738 4.08-.489 8.643-1.081 11.922.528-2.172 1.301-6.505-.391-8.652.844.363.235 1.182.014 1.583.211-.663.561-2.729.247-2.954-.632-2.187-.241-4.115 1.184-5.909.315-.446-1.09.631-1.445 1.688-1.371.338-.155.341-.646.423-1.056z"/><path d="m36.102 62.917c-.641.168-.913.706-1.899.527.232-.525 1.213-.799 1.899-.527z"/><path d="m235.308 63.655c-1.062.239-2.523.08-3.587.316-.029.382.462.242.633.423-.568.435-1.712-.118-2.216-.423-.671.003-1.363.027-1.477-.527.309-.936 1.288-.458 1.899-.315 1.442.335 3.631-.142 4.748.526z"/><path d="m31.881 63.234c-.002.289-.497.25-.633.105.141-.15.469-.279.633-.105z"/><path d="m16.582 64.395c-2.02.315-5.67.477-7.386-.211.004-.453.468-.447.422-.95 2.314.394 5.035.382 6.964 1.161z"/><path d="m31.143 63.55c-.177.491-.624.712-1.372.633.002-.25-.182-.312-.106-.633.453-.013 1.084-.263 1.478 0z"/><path d="m200.067 63.867c-.119.96-2.308 1.254-3.693.95 1.011-.361 2.386-.357 2.849-1.267.354.033.665.109.844.317z"/><path d="m195.214 64.5c-1.546.016-3.364.273-4.854 0 1.196-.503 3.779-.898 4.854 0z"/><path d="m32.514 65.872c-.43-.133-.927-.198-1.371-.316.099-1.348 2.176-.888 1.371.316z"/><path d="m56.571 66.399c-1.525.287-3.7.328-3.587-1.372 1.306-.807 2.792.644 3.587 1.372z"/><path d="m189.516 65.132c-.257.405-1.001.109-1.372 0 .11-.604 1.152-.242 1.372 0z"/><path d="m60.264 65.132c-.159.195-.712.312-.95.106.065-.378.711-.176.95-.106z"/><path d="m181.708 65.661c-.588.953-2.252 1.54-3.482 2.216-.426.234-.818.732-1.266.844-2.763.69-6.361-.582-8.757-.527 1.164-.254 2.268-.248 3.482-.421.313-.046.708-.304 1.056-.318 1.328-.051 2.729.473 4.115.212.482-.091 1.385-.435 2.004-.739 1.038-.511 1.736-2.214 2.848-1.267z"/><path d="m67.122 66.294c-.36.572-1.292.179-1.899.105.24-.539 1.57-.549 1.899-.105z"/><path d="m40.428 67.771c-1.488.45-3.998.237-4.326-1.162.152-.059.257-.164.316-.316.94.185 1.696.554 2.426.949.628.076 1.496-.086 1.584.529z"/><path d="m127.792 67.349c-.77 1.022-2.238.319-3.377.211-1.958-.186-4.191.225-6.014-.106-.825.361-1.722 1.129-2.955.739.325-.273 1.275.079 1.161-.633-.482-.608-2.11-.07-2.532-.739-.029-.171.1-.182.105-.317.085-.019.105-.105.211-.105 3.903.881 9.526.041 13.401.95z"/><path d="m13.311 66.504c.291-.045.099.394.316.422-.026.115-.209.072-.211.211-.15-.14-.278-.469-.105-.633z"/><path d="m209.458 67.666c.26-.015.508-.016.633.106-.002.16-.782.23-.633-.106z"/><path d="m212.623 67.771c-.447.105-.755.586-1.161.421.234-.263.676-.746 1.161-.421z"/><path d="m64.801 68.404c-.358 1.3-1.901.104-2.954.21.607-.466 2.071-.334 2.954-.21z"/><path d="m160.606 68.509c-.814.114-2.024.349-2.849.105.493-.567 1.933-.081 2.849-.105z"/><path d="m146.784 69.353c-.456.832-2.399.657-3.587.422-.564-.111-1.267-.386-1.477-.633 1.655-.119 3.775-.434 5.064.211z"/><path d="m171.157 69.987c-.247.174-.804.42-.316.738-.569.297-1.35.354-2.005.105-.494-.013.115-.153 0-.422-.68-.375-1.995-.115-2.532-.633 1.064-1.573 3.246.317 4.853.212z"/><path d="m109.538 69.353c.146-.24.735-.039 1.055-.105-.146.241-.734.039-1.055.105z"/><path d="m131.379 69.564c-.569 1.295-3.01.717-4.643.95 1.029-.785 2.953-1.493 4.643-.95z"/><path d="m81.894 69.987c-1.315.323-1.537-.124 0 0z"/><path d="m138.87 70.303c.754.159 2.179-.351 2.427.317-.63.578-1.764-.012-2.427-.317z"/><path d="m182.763 71.886c-2.199.312-5.391.612-6.647-.633.733-1.048 2.637-.65 4.221-.632.648.581 1.372 1.088 2.426 1.265z"/><path d="m196.902 71.146c-.583.691-2.805.749-3.482.106.703-1.32 2.241-.271 3.482-.106z"/><path d="m93.5 70.725c-.624.865-2.771.806-3.904.527.46-1.043 2.682-.556 3.904-.527z"/><path d="m122.622 70.83c-.101.897-1.263.836-2.111.951-2.022.272-5.061.463-7.175.632-1.366.109-2.539-.341-3.692-.422 2.167-1.159 5.299-.514 8.124-.739 1.636-.13 3.127-.993 4.854-.422z"/><path d="m105.318 70.83c.013-.232.447-.044.633-.105-.002.289-.498.25-.633.105z"/><path d="m103.313 71.463c-.865.897-2.613-.029-4.01.105-.42-.184.764-.097.844-.105 1.039-.109 2.63-.849 3.166 0z"/><path d="m82.844 71.569c.376-.524 1.21.057 1.899-.105.38-.043.144.193-.106.105-.466.093-1.352.222-1.793 0z"/><path d="m189.199 72.202c-.619.142-3.619.633-4.22-.211 1.111-1.083 2.687.382 4.22.211z"/><path d="m159.973 72.202c-.303 1.021-1.808.322-2.427.105.727-.168 1.661-.269 2.427-.105z"/><path d="m24.495 50.783c2.762-.438 4.346 1.209 6.225 2.004-.753.039-2.575-.187-3.904-.527-.939-.24-2.287-.6-2.321-1.477z"/><path d="m202.072 68.509c-.685.123-.723.895-1.583.843.267-.52 1.011-.958 1.583-.843z"/><path d="m48.025 47.196c-.024 1.593.028 3.263-1.372 3.481-.716-1.335-.885-4.857 1.372-3.481z"/><path d="m19.431 13.644c.434 2.204.806 4.469 1.583 6.33.112.394-.222.342-.317.528.486 3.605 1.291 8.055.633 11.711-.49 2.725-1.635 5.283-1.794 8.125 1.341.647 3.411 1.066 4.854 1.267 1.939 1.332 5.177 1.364 6.014 3.798-2.149-.63-3.673-1.885-5.487-2.849-1.775-.249-3.902-.646-5.486-.739-.39.243-.303.963-.316 1.583.457.492 1.115.785 1.688 1.161-.348.538-1.364-.098-1.793.211-.493 3.757-.68 9.403.95 12.028.05 1.983 2.078 3.016 1.371 5.064-.897-.333-.631-1.83-1.583-2.109-.224.515-.235 1.242-.633 1.583.113.238.32.383.633.421-.867.469-1.408.553-2.427.212-.096 1.543 1.977 1.817 3.587 2.003-.134.253-.344.431-.739.423.391.171.775.351 1.372.316-.459.81-2.876 1.238-3.481.316-.124-.581.61-.303.844-.527-.238-.5-.723-.755-1.478-.739.03-.592-.638-.488-1.055-.632-.091-1.14-.972-1.49-1.478-2.216-.239-.052-.315.582-.421.316-.167-.221-.073-.701-.212-.95-1.672-2.127-2.78-4.816-5.17-6.225-3.084-2.332-2.49-8.341-3.692-12.556 1.011.959 1.513 2.426 2.321 3.588.847-.533 1.023-.9 2.321-.633.678.271.088 1.811.844 2.004-.328.094-.309.535-.633.633-.247-.387.318-1.832-.633-2.004-.625.149-.958.588-1.477.844.995 2.524 2.207 5.74 4.748 7.07-.361-2.981-1.636-5.961-2.11-9.18.156-.336.554-.432.844-.633-.153-1.19 1.119-2.347.422-3.06.771-.506.802-1.556 1.161-2.744.3-.99 1.037-1.97 1.477-2.954.957-2.138 1.28-4.258 1.793-6.964-.088-.229-.273-.361-.211-.738.921.918 1.667 1.953 1.372 4.008-.236 1.638-1.661 3.283-1.899 5.382-.203 1.786-.266 3.388-.211 5.276 1.389-4.1 3.116-8.053 4.432-12.661.274-.962.536-2.441.316-4.01-.497-3.552-1.292-7.278-1.688-10.973.152-.06.257-.165.317-.317.2.046.264.228.527.212zm-1.899 26.482c1.431-1.945 1.546-5.206 2.743-7.385-.065-.392.172-1.086-.211-1.162-.477 3.147-2.164 5.644-2.532 8.547zm-3.377 5.699c-.725-2.567.703-5.684.317-8.125-.916 1.936-1.716 6.036-.317 8.125zm2.955-5.065c-.55 3.708-1.437 8.95-.211 12.556.267.137.694-.318.949-.528-1.766-3.246-.794-8.337-.21-12.134-.14-.001-.097-.184-.211-.21-.06.152-.165.257-.317.316zm-3.377 6.541c.577.584.704 1.617 1.266 2.215.252-1.091.118-2.532-.633-2.954.082.539-.673.241-.633.739zm-4.431 4.643c.025-.605-.521-1.41-.949-1.899-.06 1.008.601 1.297.949 1.899zm2.427 2.427c1.307.733 1.534 2.545 2.532 3.587.285-2.082-1.21-3.289-2.11-4.537-.117.341-.152.763-.422.95zm6.541 2.109c.217-.348.1-1.11-.105-1.371-.15.37-.181 1.132.105 1.371zm-2.215 4.116c-.076-.487-.263-.862-.527-1.161-.378.566.334.826.527 1.161z"/><path d="m27.872 36.012c1.115.812.556 2.401 1.055 3.481.621 1.345 2.47.932 3.272 2.111 1.823.217 2.423-.778 4.009-.527-.259-2.785 2.426-2.531 4.537-2.427-1.653-1.631-5.71-.867-5.592 2.004-.413-1.057-.186-2.163.316-2.638.421-.398 2.41-1.025 3.376-1.055 2.168-.066 3.853 1.516 5.17 2.532.681.525 2.465 1.911.739 2.216-.977.172-1.63-1.105-2.532-1.477-1.515-.626-2.595-.198-4.115-.316-1.872 1.359.402 2.147 2.11 2.954 2.369 1.12 3.409 2.288 4.643 4.537.566 1.032 1.199 2.329 1.371 3.164.246 1.188.286 4.126-1.16 4.432.878.846 1.86 1.586 2.849 2.322 1.736-.667 2.821.726 4.22 1.055-1.124.21-2.703-.484-4.009-.106-.153 1.384 1.452 1.01 1.477 2.216 1.548-.28 3.163.148 4.326-.528.013-.641-.478.129-.633-.316-.074-.213.491-.39.422-.527-.209-.417-.485-.541-1.266-.633.743-.458 1.699-.059 2.215.316-.063.853.385 1.053.422 2.005 1.072.543 2.741.601 3.166-.527-.896-.422-1.496.234-2.322.106.005-.181-.079-.273-.211-.316-.011-1.263 1.179-.391 2.005-.316.537.048 1.174-.275 1.688-.211.762.092 1.308.789 2.005.633.341.292.543.723.844 1.055 1.301.142 2.592.292 3.166 1.161.082.61-.133.922-.317 1.266 2.659.845 5.576 1.606 8.546 2.427 1.535.424.945-1.631 2.881-1.331 1.411.22 1.165 3.048-.877 2.808-2.08-.245-4.396-.954-6.752-1.477-4.862-1.081-9.607-3.19-14.455-4.114-2.184-.417-4.363-1.417-6.647-1.162-.479.054-1.075.367-1.688.422-1.867.168-4.154-.123-5.803.106-2.69.371-6.247.921-8.968.949 3.403-2.879 10.912-2.638 16.46-1.899-.277-.638-.815-1.014-.845-1.899-1.152-.781-2.142-1.727-3.376-2.427-.421.916.888 1.011.633 2.11-.35.448-.992.315-1.372 0-.116-.446-.121-1.003-.105-1.582-.46-.456-.884-.945-1.689-1.055.462-.583 1.237.105 1.899 0-.706-.983-2.258-2.033-3.06-3.271 1.608.291 2.591 1.208 3.798 1.899 1.393-2.187-.032-5.147-1.055-7.279-1.141-2.378-2.249-3.229-4.854-4.221-1.225-.466-2.004-1.018-3.693-.949-.327.19-.056.323-.105.738-2.994-.172-5.369-.961-6.436-3.06-1.214.624 1.172 1.889 0 2.85-1.191.017-1.615-.632-2.638-.528.296-.372.771-.566 1.267-.739-.102-.285-.171-.604-.317-.844.744-1.299.111-3.972 2.005-4.118zm33.13 26.272c.356.092 1.226.116 1.478-.21-.655.135-1.127-.201-1.478.21z"/><path d="m134.544 63.023c-1.247.266-3.075-.051-4.326.211 3.228.713 6.97 1.467 10.34 1.688-.398-.517-1.139-.69-1.899-.844 2.356-.48 5.695-.243 7.385.633-.076.239-.602.031-.527.421.422.283.915.328 1.477.211.29-.06.464-.395.633-.421.804-.127 1.805.102 2.321.633 1.137-.696 3.799-.344 5.487-.423 2.019-.093 3.926.447 6.014.633 1.868.167 3.783-.394 5.381-.316.924.045 2.022.211 2.743.316.554.081 1.141.428 1.689.422.517-.005.906-.322 1.266-.422 1.327-.372 2.701-.689 3.693-1.371.953-.656 1.938-2.167 2.743-2.321.767-.147 2.866.232 4.115.316 1.177.079 2.417.152 3.376.316.242.042.677-.007.738.423-.213.738-1.436.724-2.638.632-.876-.066-2.042-.191-3.059-.317-1.01-.125-1.96-.526-2.533-.421-1.267.231-1.367 1.687-2.427 2.215.543.196 1.242.235 2.005.211-1.571.374-3.922 2.075-5.803 1.899-.352-.033-.609-.336-.95-.422-2.041-.519-4.552.065-6.964-.316.225.585 1.131.487 1.478.95-3.263.851-7.495.073-11.185-.211-1.833-.142-3.816.142-5.064-.633-2.34-.126-5.737.025-8.441.421-1.273-.82-3.018-.519-4.643-.949-.131.29.243.844.739.844-2.353.488-4.804.47-7.281-.106-.216-.205-.165-.68-.316-.949-1.069.082-1.853-.118-2.638-.317.259-.445 1.135-.272 1.688-.422-6.794-.766-14.973-.706-20.68 1.056.181.241.595.248.95.316-.332.407-.795.683-1.583.633-1.257.326-2.345 1.383-3.904 1.055-.583.042.01-.479-.317-.738-2.042.125-4.194.149-6.12-.106 1.915-.741 3.909-.92 6.331-1.371 3.553-.662 6.391-2.399 10.657-2.216.399-.164.313-.812.632-1.056 1.785-.856 3.664-.319 5.803-.316.665.002 1.304-.198 1.899-.105 1.081.169 1.624 1.256 2.427 1.477 1.086.3 2.246-.116 3.06 0 .152-.483-.513-.449-.422-1.056.159-1.053 2.517-.957 4.326-.738 1.093.133 2.284.348 2.324.951zm-13.188.106v.315c.341-.045.912.139.949-.21-.339-.014-.699-.325-.949-.105zm-1.478.21c.136.145.458.104.739.105-.013-.438-.522-.263-.739-.105zm12.662 2.639c1.18.186 2.907.976 3.587-.106-1.286-.256-2.76-.34-3.587.106z"/><path d="m65.63 3.284c-.088-.002-.141.03-.193.064-.049.014-.074.055-.063.129.459 1.058.694 2.341.897 3.656.313-.112.325.244.513.064.209-.369.163-.937.128-1.347-.097-1.151-.655-2.104-1.282-2.566zm6.349 6.671c-.234-.279-.782-.09-1.09-.065-1.797.152-3.493.611-5.258.962-1.633.326-3.345.793-5.067 1.155-1.617.34-3.519.586-5.195 1.026-.354.094-.711.283-1.155.385-.379.087-.853.086-1.346.193-.472.101-1.302.213-1.989.321-.362.057-.525.023-.577.257-.132.599.841.308 1.154.256.453-.075.984-.117 1.476-.193 1.061-.164 1.911-.482 2.694-.64 3.804-.775 7.355-1.54 11.031-2.31 1.393-.292 2.832-.498 4.168-.834.402-.102.986-.215 1.154-.513zm-7.311 2.758c-1.156.215-2.294.583-3.464.832-2.902.623-5.726 1.26-8.594 1.861-.161.053-.552-.126-.512.128-.073.611.457.455.769.449 1.358-.024 2.539-.418 3.591-.64 3.184-.673 6.126-1.475 9.235-2.054 1.357-.252 2.905-.497 4.233-.705.134-.021.514.116.513-.192-.351-.407-1.244-.369-1.86-.321-1.251.097-2.639.405-3.911.642zm-9.877 5.002c2.086-.471 4.151-1.023 6.222-1.476.808-.176 1.664-.322 2.372-.513.233-.062.621-.011.706-.32-.408-.113-1.069-.113-1.668-.063-1.385.11-2.538.518-3.783.768-.957.193-1.85.376-2.758.643-.921.27-1.869.395-2.757.64-.693.193-1.361.443-1.988.579-.209.043-.569-.069-.706.191-.064.256.192.193.129.449 1.706-.023 2.828-.582 4.231-.898zm-7.953 12.185c-.057-.289-.303-.591-.384-.962-.128-.58-.009-1.31-.129-2.053-.069-.428-.291-.879-.384-1.346-.204-1.017-.316-2.089-.449-3.015-.08-.554-.072-1.073-.128-1.603-.035-.325-.169-.648-.193-.962-.065-.852.013-1.699-.192-2.245-.108-.287-.203-.648-.578-.578-.081.027-.131.083-.128.193-.238.838-.863 1.24-1.283 1.861-1.008 1.484-1.972 3.498-2.116 5.643-.084 1.237.116 2.476.384 3.336.114.364.198.776.321 1.089.503 1.285 1.361 2.458 1.988 3.529.334.568.588 1.142.962 1.474.206.184.643.342 1.026.577.657.404 1.106.86 1.989.449-.031-.752-.422-1.419-.513-2.309-.098-.954.008-2.073-.193-3.078zm-1.218-1.219c-.329.292-.469.769-.962.898-.231-.626.439-.879.706-1.218.177.015.146.238.256.32zm-.321-1.796c-.046.196.066.234.065.385-.227.244-.42.521-.77.643-.129-.462.253-.938.705-1.028zm-.257-1.41c.01.12.043.214.129.257-.413.72-1.082 1.184-1.732 1.667.479-.697.84-1.511 1.603-1.924zm-.384-2.758c-.189.302-.359.624-.706.769.129-.382.357-.668.578-.962.06.048.097.117.128.193zm-1.86-.257c.461-.655.942-1.288 1.475-1.796.329.193.096.615.128 1.026-.908.716-1.427 2.164-2.437 2.565-.044-.649.454-1.256.834-1.795zm-.962 2.566c.372-.179.29.193.642.192-.156.273-.454.402-.578.705-.148-.173-.022-.617-.064-.897zm0 1.602c.343-.33.758-.4 1.091-.705.652-.599.995-1.534 1.731-2.051.59.554-.194 1.179-.642 1.667-.192.209-.385.456-.578.641-.459.442-1.112.781-1.154 1.283.058.311.618.298.899.193-.199.421-.424.816-.899.961-.214-.555-.518-1.362-.448-1.989zm1.603 4.297c-.458-.375-.646-1.02-.897-1.603.062-.002.05-.078.064-.128.198-.145.706.022.833-.193.194.136-.184.238-.192.385.058.263.196.445.321.641.288.031.48-.034.706-.064-.244.357-.402.796-.835.962zm.642 1.284c-.107-.236-.3-.385-.257-.77 1.163.006 1.073-1.575 1.988-1.603.172.474-.209.93-.449 1.218-.347.416-.82.904-1.282 1.155zm1.154.321c.11-.446.392-.721.77-.899-.05.286.085.385.064.641-.289.076-.4.328-.834.258zm.642 1.603c-.047-.326.159-.397.257-.578.258.128.236.533.321.835-.191-.089-.423-.135-.578-.257zm9.876-16.098c-.503.145-1.06.421-1.603.576-.483.139-1.475.238-1.283.962 2.624-.573 5.111-1.428 7.952-1.732.352-.037.838.015 1.09-.321-2.058-.211-4.359-.004-6.156.515zm2.95 2.374c.284.165.622.136.834-.065-.219-.359-.758-.471-1.154-.514-.5-.052-1.118.04-1.731.129-1.553.226-3.118.493-4.361.769-.043.342.05.549.192.706 2.13-.031 4.049-.823 6.22-1.025zm-1.731 1.539c.854-.253 1.791-.351 2.565-.576.226-.067.578-.167.706-.386-2.763-.367-4.55.794-6.798 1.154.012.244.057.457.128.642 1.223-.035 2.322-.516 3.399-.834zm.641 18.854c.265.12.616.056.899.192.397.193.627.714 1.025.899.427.198.973.055 1.347.384-.688.225-.87.984-.642 1.796.658.468 1.372.601 2.374.384 1.117-.239 2.424-.858 3.077-1.282-.362-.879-1.474-1.004-2.116-1.603.257-.428.954-.414 1.154-.898-.803-.712-1.303.149-2.501.32-.504.073-.704.088-1.026.193-.496.163-1.087.333-1.539-.064.655-.35 1.264-.19 1.924-.386.206-.06.383-.249.578-.32.581-.212 1.248-.311 1.796-.577.591-.289 1.043-.825 1.475-.962.31-.098.675-.009.963-.065 1.311-.249 2.357-.791 3.398-1.475-.233-.528-.983-.531-1.667-.384-.681.145-1.4.608-2.116.769-.73.164-1.286.155-1.795-.128.278-.183.74-.296 1.154-.385.427-.091.97-.017 1.154-.385-.426-.475-1.596-.359-2.181-.321.112-.315.432-.423.384-.898-.951-.011-.737 1.144-1.667 1.154-.156-.67.438-1.314.898-1.667.618-.474 1.58-.748 2.437-.963.451-.113 1.038-.378 1.347 0-.175.329-.494.511-.835.705-.318.183-.835.255-.961.641.947-.01 1.806-.558 2.437-.962.22-.141.533-.281.642-.512.027-.476-.605-.295-.578-.77.412-.399.797-.589 1.475-.449.053-1.523 1.991-2.597 3.271-2.566.283.007.565.163.833.193.252.111.178.55.257.834-.523.561-1.136 1.144-1.732 1.54-.205.136-.674.115-.578.512.223.269.806.177 1.283.193.905-.613 1.898-1.138 2.309-2.245.188.155.435.249.77.257.229-1.208 2.488-1.183 3.463-.706-.324.595-1.102.998-1.86 1.283-.397.148-.908.178-1.155.449.032.559.741.589 1.09.576.888-.028 1.915-.705 2.437-1.026.139-.332.386-.554.449-.963-.302-1.677-2.95-1.499-4.361-1.154-.433.105-.958.304-1.282.256-.268-.039-.513-.326-.77-.449-.313-.151-.662-.14-.833-.385.642-.601 1.057-1.4 1.538-2.118.144-.212.352-.589.706-.512.254.088-.012.695.385.64.258-.062.463-.178.384-.577.551-.519.828-1.309 1.732-1.475-.008.484-.321.662-.321 1.155-.912.656-1.843 1.539-2.18 2.693.368.127.796.137 1.218 0 1.059-.345 2.362-1.86 2.693-2.693.531-1.339-.309-1.933-.641-2.95-.449.037-.964-.263-1.219-.129-.251.132-.601.17-.962.321-.457.191-.825.618-1.154.704-.555.149-1.109-.254-1.732-.191-.267.026-.655.279-.963.449-1.039.573-1.623 1.403-2.18 2.309-.389-.209-.715-.482-1.09-.705-1.004-.032-1.237.369-1.86.833-.329.246-.742.372-.963.578-.341.318-.397.822-.641 1.282-.101.191-.274.321-.385.512-.289.503-.749 1.563-.77 2.117-.025.655.361 1.191.514 1.732-1.8.59-3.904 1.505-3.592 3.784-.388.05-.892-.066-1.411 0-.703.088-2.436.669-2.95.962-.3.171-.893.714-.962.962-.093.34.071.646 0 .962.334.246.482.586.901.775zm3.656 2.373c.307-.398 1.715-.898 2.501-.641-.116.46-.614.381-.962.513-.546.209-1.022.729-1.666.77-.048-.242-.022-.45.127-.642zm14.943-17.765c.669-.442 1.271-.953 2.181-1.154-.078.092-.256.085-.257.257-.331.113-.628.257-.898.449-.402.287-.692.761-1.09.834-.002-.151.11-.189.064-.386zm-5.195 2.438c.524-.618 1.033-1.779 1.732-2.309.195-.147.773-.448 1.219-.448.061.72-.401 1.348-.77 1.859-.367.512-.745.866-1.219 1.346-.292.295-.599.685-1.026.706-.05-.456.097-.716.064-1.154zm-1.86 3.27c-.199.442-.472.812-1.026.898.227-.435.63-.697.962-1.026.074.022.162.114.064.128zm-2.757-.898c.366-.953.739-1.758 1.475-2.373.851-.005.993-.718 1.86-.706-.013 1.162-.508 1.754-1.091 2.565-.397.552-.772 1.156-1.154 1.54-.283.284-.667.459-.897.769-.162.218-.105.562-.449.641-.465-.876-.027-1.702.256-2.436zm-5.708 7.76c.295-.118.854.136 1.218.064-.095.183-.441.114-.321.513.668.187 1.808-.097 2.309.257-.826.348-1.979 1.127-3.206 1.218-.257.019-.535-.074-.771-.063-.708.028-1.827.669-2.437-.193.433-1.024 2.047-1.335 3.208-1.796zm25.139-9.492c-.664.408-1.204 1.141-1.923 1.348-.328.094-.736-.072-1.026.193.035.247-.115.312-.064.577 1.723.299 2.894-.623 3.783-1.411.33-.292.779-.578.898-.77.651-1.038 0-2.034 0-3.334-.838.044-1.662-.069-2.374.128-.44.122-.904.53-1.346.77-.533.289-1.095.489-1.411.77-.197.174-.377.549-.641.833-.264.283-.61.524-.641.834-.109 1.068 1.136 1.226 2.053 1.026 1.367-.297 2.733-1.591 3.784-1.859-.09.567-.614.603-1.092.895zm-.256-1.346c-.371.264-.69.569-1.09.771-.413.209-.848.391-1.283.576-.416.179-.848.445-1.282.45-.016-.855.824-1.445 1.603-1.988.769-.537 1.474-1.098 2.309-.577.288-.063.405-.235.706-.128-.004.504-.619.651-.963.896zm-5.002 6.606c-.913-.257-1.828.4-1.861.962.393.356.958-.222 1.347-.065-.284 1.278-1.255 2.266-2.18 2.951-.441.324-1.042.762-1.475.833-1.064.177-1.729-.773-2.95-.449-.351.376-1.037.417-1.154 1.026.291.444.933.088 1.475.064-.419 1.055-1.661 2.386-3.014 2.565-.856.113-1.121-.41-1.86-.193.144.952.816 1.345 1.923 1.218.686-.077 1.302-.607 2.117-.897.403-.144.892-.158 1.283-.321.772-.325 1.4-.904 2.18-.32-.07.822-.574 1.441-1.09 1.859-.447.362-1.111.68-1.796.963-.742.305-1.616.661-2.181.64-.598-.021-1.234-.584-1.732 0 .019.408.31.544.449.834.484.037.954.14 1.411.129 1.711-.042 3.826-1.04 4.938-2.181.514-.527.881-1.213.962-1.987-.324-.571-.743-1.192-1.539-1.283-.378-.043-.816.222-1.155 0 .068-.316.085-.685.321-.835.71.104 1.245.38 1.86.578.93-.423 1.805-.568 2.822-.962.772-.299 1.722-1.151 2.501-1.283.608-.104 1.295.253 1.924.128.587-.116 1.258-.997 1.668-1.538.943-1.248 2.198-3.197 1.347-5.003-.516-.286-1.108-.471-1.732-.321-1.584.379-3.894 2.07-3.784 3.719-.455-.018-.548-.698-1.025-.831zm1.988 1.219c.83-1.288 2.038-2.196 3.335-3.015.075-.011.114.014.129.064-.069 1.285-.942 2.47-1.732 3.271-.552.559-1.073 1.063-1.86 1.154-.227-.372-.375-.822-.449-1.346.159-.077.376-.093.577-.128zm-1.347 1.795c-.598.342-1.055.825-1.796 1.026.583-.891 1.297-1.652 1.668-2.758.556.285.18 1.159.128 1.732zm-26.487 6.221c1.121.55 2.05 1.114 3.014 1.667 1.562.896 3.204 1.363 4.746 2.31.494.302.956.6 1.475.833 1.646.744 3.035 1.773 4.618 2.437.57.24 1.094.443 1.603.706.517.267.947.576 1.475.898.511.311 1.102.415 1.667.643 1.67.669 3.187 1.666 4.81 2.308 1.011-.487 1.948-1.04 3.014-1.412.559-.193 1.14-.294 1.668-.513.503-.209.973-.503 1.475-.769 1.458-.769 3.077-1.537 4.49-2.18.538-.244 1.069-.385 1.667-.577 1.047-.337 2.041-.876 3.079-1.347 2.565-1.16 5.197-2.316 7.697-3.399 1.315-.57 2.624-1.058 3.976-1.603.383-.155.814-.327 1.219-.449.374-.113.941-.064 1.154-.513-.102-.43-.511-.304-.897-.512-.395-.213-.793-.788-1.347-1.026-.433-.187-1.073-.167-1.732-.32-.55-.13-1.207-.486-1.86-.707-.729-.245-1.515-.447-1.987-.641-.846-.347-1.231-.945-1.796-.192-.695-.674-1.767-.969-2.501-1.604-.155-1.039-1.298-1.518-2.373-1.475-.912.036-1.697.668-2.309.898-.408-.447-.606-1.178-1.155-1.346-.239-.074-.762-.053-1.09 0-1.072.174-2.093 1.184-2.309 2.052.201.669.662 1.221 1.283 1.154.608-.065 1.432-1.458 2.18-1.154-.305.786-.326 1.62-.77 2.18-.633.798-1.706 1.012-2.116 1.988.238.21.589.308.961.385 1.822-.894 2.507-2.923 3.657-4.49.672-.29 1.224-.698 2.052-.833.032.225.096.417.064.704-.528.243-1.168.372-1.475.835-.015.314.113.486.064.835-.276.535-1.091.533-1.346 1.09.407.777 1.752.38 2.437 0 .847-.471 1.499-1.433 2.115-1.732.903.146 1.682.413 2.117 1.026-.406.562-1.1 1.036-1.796 1.283-.558.198-1.326.362-1.989.257-.331-.053-.632-.311-.962-.321-.758-.022-1.708.565-2.309.897-.331.183-.706.366-1.026.577-.304.202-.732.494-.769.898.324.286.67-.116.963-.257.722-.347 1.467-.637 2.18-.898.303-.112.8-.505 1.09-.064-.954 1.911-2.759 3.407-4.617 4.168.003-.355.537-.464.257-.897-.674.159-1.153.515-1.347 1.154.585.62 1.24.76 2.052.45.69-.263 1.377-.935 2.116-1.54.739-.604 1.465-1.22 1.925-1.796.423-.531.595-1.334 1.603-1.154.418.074.593.598 1.026.641.337.034.651-.274 1.026-.321 1.194-.148 2.447.539 3.143.899-.635 1.298-1.944 1.671-3.271 2.309-1.392.669-2.875 1.189-4.233 1.796-.739.33-1.386.778-2.053 1.026-.602.225-1.177.353-1.731.578-.56.226-1.084.458-1.668.577.155-.527.376-1.128.193-1.604-.789-2.045-3.578-1.371-5.003-.384-.682-.515-1.831-.564-2.757-.835 1.181-.465 2.67-1.43 2.116-3.014 1.433.202 2.413-.331 3.207-.899.704-.503 1.107-.747.898-1.668-1.382-1.481-4.018.043-4.618 1.412v.769c-1.06-.508-2.795-.311-3.72.064-.329.134-.766.269-.834.578 1.031.466 3.503-.651 4.426.512-1.037 1.312-2.793 2.185-4.875 2.245-.213-.085.034-.631-.32-.577-.69.13-.226.975.128 1.154.959.519 2.304-.276 3.078.513.347.839 1.029 1.997 1.989 2.373.976.382 1.598.234 2.18-.256.078-.762-.078-1.291-.257-1.796.891-.369 2.364-1.207 3.399-.449.032.386.148.644.064.963-.08.302-.48.767-.77 1.026-.388.348-.999.512-1.283.835-.051.206.414.22.257.319-1.154.834-2.808 1.422-4.297 1.988-.646.247-1.426.572-1.988.642-1.052.132-1.43-.27-2.181-.642-1.363-.672-3.031-1.21-4.168-1.923-.868-.544-1.75-.934-2.694-1.346-.942-.41-1.783-.967-2.629-1.411-1.805-.947-3.571-1.876-5.323-2.757-1.833-.922-3.697-1.735-5.259-2.886.614-.2 1.325-.301 1.54-.899-.089-.254-.47-.214-.641-.385-.941.471-2.724.099-3.4.834.041.711.745.855 1.218 1.087zm33.67-6.477c.035-.52.621-.491 1.154-.513-.435.085-.819.535-1.154.513zm10.775 3.912c-.239.281-.523.689-.385 1.154-.729-.019-1.292-.206-1.924-.321-.082-.309.347-.389.577-.576.223-.184.404-.467.641-.577.075-.33.125-.687.192-1.026h.129c2.219 1.01 4.791 1.666 7.184 2.501-.163.267-.484.459-.706.449-.438-.021-.869-.849-1.54-.449-.226-.201-.467-.388-.705-.578-.927.015-1.903-.321-2.501-.832-.316.089-.669.142-.962.255zm-15.841 1.475c.014-.206-.113-.271-.064-.512.451-.205 1.151-.26 1.603 0-.585.724-1.724 1.218-2.693 1.346-.147-.555.627-.74 1.154-.834zm-3.463 5.836c1.156-.086 2.157.536 2.501 1.475-1.151.559-2.471-.507-2.501-1.475zm-7.183-2.053c-.721.123-2.591 1.082-2.758 1.604-.105.33.084.771 0 1.026 1.507 1.155 3.822-.219 4.746-1.154-.049-.348.102-.497.064-.834-.386-.472-1.039-.814-2.052-.642zm-1.925 2.245c.148-1.073 1.765-.777 2.309-1.475.377-.055.577.065.77.192-.692.722-1.82 1.343-3.079 1.283zm-9.812 6.221c-1.156-.585-2.279-1.234-3.656-1.539-.145.069-.233.196-.256.385.587.525 1.411.758 2.18 1.09.741.32 1.502.908 2.373.835.011-.076-.011-.183.064-.193-.031-.355-.453-.45-.705-.578zm43.674-.64c-1.85.201-3.718 1.027-5.13 1.603-.225.091-.52.097-.642.321.026.803 1.263.321 1.668.193 1.283-.409 2.285-.898 3.463-1.283.605-.198 1.235-.374 1.604-.769-.265-.274-.67-.097-.963-.065zm-.063 2.051c-.777-.314-1.604-.03-2.245.129-.865.214-1.292.351-1.86.769-.303.223-.67.374-.321.835 1.171-.324 2.289-.846 3.4-1.22.358-.121.795-.182 1.026-.513zm-39.828 1.283c-.49-.252-1.438-.382-2.052-.321-.991.101-1.834.828-1.987 1.732-.154.9.383 1.534.577 2.309-1.099-.743-2.728 1.043-2.951 1.604-.282.71-.315 2.164-.192 3.142.222 1.761 1.566 3.633 3.014 3.976 1.299.308 1.588-.177 2.244-.834 1.044-1.044 2.549-2.7 2.18-4.746-.085-.471-.471-1.158-.769-1.668-.499-.848-1.1-1.542-2.053-1.732-.04.532.389.594.449 1.027-.287.077-.563.164-.963.128-.195-.49.063-.863.129-1.283.243 0 .366-.235.641-.321.295-.091.766.08.898-.256-.342-1.037-1.838-.393-2.437-.065-.317-.964.314-1.521.706-1.987 1.15-.429 2.24.086 2.95.64.331.546.619 1.31.514 2.31-.054.507-.442 1.063-.065 1.346.353.056.393-.331.513-.512.308-.468.506-.778.384-1.604-.134-.932-.958-2.491-1.73-2.885zm-2.372 5.387c.15.063.315.112.513.128.624 1.589.088 3.828-1.668 3.848-.208-.322-.46-.607-.512-.963-.195-1.311 1.012-2.395 1.667-3.013zm-.77-.897c.14.618-.388.791-.641 1.09-.276.325-.374.783-.706 1.09.027.691-.249 1.43-.128 2.053.089.455.455.646.512 1.026.64.321 1.142.517 1.86.128.804-.435 1.572-1.437 1.411-2.886-.07-.629-.551-1.221-.321-1.796.404-.221.505.109.705.385.301.415.668.876.576 1.667-.035.306-.241.639-.384 1.026-.123.336-.174.759-.32 1.026-.155.281-.537.672-.833 1.026-.543.647-.926 1.145-1.668 1.475-.619-.054-1.071-.188-1.539-.578-.368-.305-.754-.783-.962-1.346-.419-1.132-.494-3.193-.193-3.976.22-.569 1.184-1.215 1.796-1.538.207-.109.589-.15.835.128zm37.84-1.732c1.359-.568 2.782-1.348 4.168-1.796.494-.161 1.106-.145 1.475-.578-.282-.167-.725-.212-1.026-.193-.859.056-1.892.407-2.693.705-.383.143-.805.326-1.154.513-.354.19-.784.484-1.026.705-.059.359.161.438.256.644zm-23.409 6.862c-.142 3.117.006 6.238.192 9.042.351.029.681.366 1.026.193.155-.357-.035-.785-.064-1.218-.284-4.313.015-8.832.192-13.02.047-1.106.442-3.761-.577-3.912-.092.035-.156.099-.192.191-.232.48-.092 1.445-.129 2.246-.105 2.234-.356 4.449-.448 6.478zm22.253-4.682c1.124.097 2.041-.633 2.951-1.09.498-.251 1-.401 1.538-.577.5-.163 1.216-.257 1.411-.706-.667-.316-1.555-.096-2.309.129-.918.273-1.771.69-2.63 1.154-.5.272-1.258.658-.961 1.09zm.129 2.374c1.31-.174 2.34-1.142 3.527-1.604.297-.116.657-.135.962-.257.45-.179.892-.444 1.347-.642.43-.187 1.068-.368 1.154-.897-.73-.034-1.51.209-2.244.449-1.219.398-2.316 1.058-3.399 1.602-.63.318-2.223.739-1.347 1.349zm-12.506.063c-.503.14-.977.292-1.475.449-.513.161-1.077.263-1.539.449-.35.141-.697.419-1.026.576-.349.169-1.003.201-.962.706.743.185 1.525-.207 2.245-.449 1.78-.598 3.815-1.248 5.58-1.795.362-.113.826-.089.897-.577-.15-.01-.327-.165-.449-.129-.969.294-2.135.455-3.271.77zm-14.43 3.528c.366.188.783.697 1.218.384.042-.518-.562-.687-.897-.897-1.094-.683-2.359-1.534-3.656-1.86-.064 0-.076.052-.128.063-.095.055-.138.162-.129.321.266.326.693.557 1.09.77.831.444 1.678.795 2.502 1.219zm17.765-2.117c-.817.241-1.737.579-2.693.963-.879.353-1.806.846-2.693 1.026-.594.12-.963.129-1.347.321-.185.091-.397.223-.513.385.102.649.834.658 1.475.512.487-.11 1.061-.436 1.604-.706.513-.254 1.104-.492 1.667-.704.88-.333 1.618-.793 2.373-1.155.269-.129.688-.173.706-.512-.113-.309-.418-.177-.579-.13zm2.63.898c-.268-.151-.454-.134-.642-.065-.716.27-1.44.703-2.244 1.026-1.924.777-4.179 1.376-6.093 2.052-.373.132-.942.146-1.09.577.517.712 1.339.321 2.245 0 .565-.201 1.216-.278 1.667-.449.34-.128.782-.465 1.091-.577.732-.262 1.45-.431 2.116-.705.696-.286 1.245-.704 1.86-1.026.397-.208 1.024-.293 1.09-.833zm-25.14.449c.033.33.241.486.32.77 1.142.519 2.317 1.188 3.4 1.667.374.165.804.429 1.218.385.058-.51-.468-.784-.834-1.026-1.119-.745-2.664-1.534-3.976-1.861-.066 0-.077.053-.128.065zm20.266 3.142c-.906.394-1.911.666-2.758.962-.279.097-.656.189-.833.45.562.686 1.498.183 1.988 0 .303-.114.644-.151.898-.258 1.306-.548 2.768-1.487 4.04-2.051.458-.203 1.136-.228 1.283-.77-.107-.164-.304-.233-.449-.192-.96.265-1.611.674-2.501 1.026-.578.227-1.101.586-1.668.833zm-22.062-.769c1.013.503 2.152.666 3.206 1.09.512.206 1.02.436 1.539.641.506.201 1.05.49 1.603.45.19-.546-.467-.729-.898-.963-.429-.233-.945-.451-1.411-.641-1.245-.511-2.594-1.144-4.106-1.283-.004.263-.011.526.067.706zm47.137-28.218c-.482-.273-1.19-.378-1.732-.578-3.713-1.365-7.775-2.649-11.352-4.04-.158-.062-.603-.499-.769-.064-.198.353.268.521.449.64.782.523 1.783.845 2.694 1.155 3.801 1.291 7.647 2.718 11.159 4.105-.198.821-.607 1.621-.833 2.501-.226.882-.354 1.799-.833 2.501-.345.024-.67.05-.962-.065-.348-.136-.84-.586-1.026-.897-.151-.253-.186-.608-.321-.898-.123-.263-.424-.496-.321-.771 1.117-.977 3.284-.905 3.912-2.372-1.132-.379-1.916.455-2.757.769-.38.142-.812.176-1.155.32-.385.165-.67.49-1.026.642-.588.251-1.25.362-1.86.577-1.202.426-2.305 1.049-3.399 1.476-.609.237-1.241.345-1.86.577-.931.348-1.893.742-2.886 1.154-1.919.796-3.823 1.55-5.708 2.373-1.957.856-3.8 1.486-5.708 2.373-.905.421-1.796.937-2.757 1.282-.945.34-1.971.503-3.143.899-1.061.358-2.345 1.014-3.207.834-.446-.094-.729-.575-1.09-.771-.254-.137-.613-.2-.898-.321-.284-.119-.567-.258-.834-.384-1.655-.787-3.184-1.666-4.809-2.501-2.11-1.082-4.379-2.023-6.607-3.142-1.012-.509-2.083-1.113-3.206-1.668-2.246-1.11-3.959-2.421-6.029-3.719-1.064-.668-2.188-1.397-3.271-1.668-.409-.101-.773-.032-1.091-.128-.271-.082-.598-.431-.962-.641-.365-.211-.72-.381-1.026-.577-1.979-1.274-3.136-2.535-4.617-4.362-.893-1.1-1.654-2.445-2.117-3.655-.253-.661-.531-1.507-.705-2.309-.407-1.869-.363-3.973-.192-5.9.056-.64.046-1.303.128-1.924.065-.487.291-1.005.449-1.539.15-.504.206-1.109.385-1.604.156-.431.48-.891.706-1.348.465-.943 1.012-1.717 1.604-2.501.65-.863 1.181-1.451 1.923-2.117.358-.321.7-.688 1.154-.833.115.859.314 1.712.449 2.629.125.859.324 1.789.384 2.693.096 1.428.164 2.894.321 4.362.045.419.221.849.256 1.282.027.336-.029.697 0 1.026.063.723.261 1.437.321 2.18.062.78.105 1.573.128 2.373.09 3.266.381 6.227.898 8.979.115.61.291 1.368.449 2.052.129.557.046 1.67 1.09 1.475-.036-1.218-.494-2.387-.705-3.655-.429-2.58-.665-5.447-.769-8.273-.143-3.842-.833-7.426-1.09-11.095-.08-1.132-.265-2.243-.45-3.335-.188-1.107-.49-2.236-.256-3.335 1.125-.442 2.319-.58 3.527-.769 1.208-.19 2.436-.454 3.72-.641 1.991-.292 4.153-.314 6.029-.449 2.914-.209 5.125-.772 7.759-1.154 1.935-.281 3.893-.592 5.836-.899.978-.154 1.925-.219 2.887-.449 2.839-.675 5.914-.857 8.785-1.41.763.305 1.227.857 1.475 1.667.326 1.062.297 2.393.577 3.721.248 1.176.422 2.433.642 3.655.219 1.225.413 2.559.512 3.783.116 1.415.133 2.786.257 4.041.086.871.612 1.844-.321 2.501-.225-.695-.272-1.441-.385-2.18-.108-.716-.328-1.391-.449-2.117-.296-1.77-.538-3.652-.706-5.451-.058-.628-.245-1.192-.321-1.796-.126-1.017-.102-2.116-.257-3.143-.048-.323-.201-.622-.256-.962-.131-.814.132-1.844-.577-2.374-1.295-.058-2.568.11-3.849.321-.651.107-1.28.177-1.924.256-1.269.159-2.526.45-3.784.578-2.059.209-3.865.549-5.772.77-.697.08-1.379.027-2.053.129-.844.125-1.658.357-2.501.449-.912.099-1.8.183-2.693.321-1.706.263-3.384.67-5.067.898-3.455.469-6.826 1.101-10.069 1.923-.148 1.036.341 1.92.513 2.951.525 3.15.16 6.651.385 10.005.059.883.195 1.754.257 2.63.066.947.047 1.895.129 2.821.027.318.164.652.192.962.027.298-.031.554 0 .835.053.462.271.898.321 1.346.038.341-.031.702 0 1.026.102 1.046.403 2.058.578 3.014.188 1.027.416 1.984.641 2.951.307.142.568.329.833.512 1.343-.289 2.94-.416 4.233-.77.411-.112.918-.158 1.154-.513-1.777-.319-3.867.292-5.387.449-.292-1.651-.702-3.347-.961-5.131-.262-1.795-.522-3.593-.642-5.515-.117-1.897-.324-3.835-.384-5.773-.088-2.824-.021-6.271-.45-8.723-.147-.837-.467-1.646-.384-2.5 1.34-.486 2.782-.694 4.233-.963 1.461-.271 2.986-.556 4.489-.705 1.495-.15 2.965-.463 4.489-.706 1.519-.242 3.091-.364 4.618-.577 1.533-.214 3.086-.306 4.618-.578 1.489-.265 2.996-.496 4.489-.705 1.542-.216 3.099-.362 4.618-.576 1.545-.22 3.068-.566 4.618-.513-.476.93-1.371 1.659-2.052 2.629-.334.475-.57.945-.834 1.54-.229.515-.586 1.052-.77 1.604-.2.601-.356 1.367-.513 2.051-.306 1.344-.519 2.586-.642 4.041-.136 1.633-.234 3.319 1.154 3.592-.547-1.634-.157-3.925.128-5.58.159-.923.249-1.889.449-2.629.075-.28.285-.588.385-.898.119-.366.146-.738.256-1.026.369-.968.933-1.828 1.476-2.566.352-.48.785-.943 1.218-1.154.46 1.401.369 3.165.641 4.809.195 1.18.293 2.355.384 3.529.181 2.323 1 4.509 1.155 6.734.227.307.434.634.769.833-.236.244-.07.608 0 .899.488.128.666-.338 1.026-.129.102.464.314.852.193 1.283-.119.424-.682.417-.705.834.129.576.565.846 1.283.834.117-.203.112-.529.321-.641 2.035-.611 4.759-.13 5.836 1.026-1.116 1.439-3.935 1.409-6.413 1.282.052.653.513 1.445 1.154 1.797.98.536 4.123.7 5.131.192.436-.22.869-.83.641-1.283-.509-.056-.801.358-1.411.513-.752.192-1.496.056-2.373 0-.634-.04-1.271.093-1.732-.192.466-.002.792.091 1.283.064 1.611-.091 4.483-.538 4.426-2.117-.064-1.789-3.244-2.118-4.809-2.373.184-.563.759-1.016.833-1.795.079-.819-.436-1.598-.898-1.731-.63-.184-1.43.129-2.052.256-.287-1.604-.399-3.242-.513-4.873-.241-3.429-.886-6.151-1.347-9.429-.332-2.363-.76-4.623-3.014-5.002-1.142-.193-2.531.374-3.848.577-1.206.185-2.493.253-3.655.449-1.129.19-2.251.551-3.399.705-.933.126-1.853.22-2.694.385-.594.117-1.17.113-1.86.192-1.614.185-3.678 1.15-4.938.449-.882-1.856.247-3.698.834-5.066.405-.193.71-.487 1.154-.64.298.326.719.461.898.897.181.442.224 1.506.256 2.309.024.58-.076 2.532.642 2.117.255-.148.172-.394.193-.835.07-1.485-.073-3.392-.449-4.104-.157-.297-.684-.864-.963-.963-.812-.283-1.938.215-2.372.641-.202.198-.487.832-.706 1.284-.226.466-.527 1.007-.641 1.41-.361 1.272.158 2.314.32 3.463-.448.012-.839.343-1.282.449-.57.136-1.313.133-1.989.192-.698.063-1.395.068-2.053.129-.394.036-.784.184-1.154.193-.291.007-.607-.082-.896-.065-.335.021-.69.181-1.026.193-.278.01-.543-.069-.833-.064-2.075.036-4.434.944-6.157 1.218-.704.112-1.625.015-2.18.192-.521.168-1.068.676-1.539 1.027-.544.403-1.105.718-1.475 1.089-.764.765-1.459 1.834-2.118 2.886-.677 1.084-1.328 2.072-1.731 3.272-.417 1.243-.787 2.613-.898 4.104-.113 1.524-.312 3.16-.192 4.81.115 1.594.587 3.236 1.154 4.617 1.866 4.551 5.489 7.879 9.492 9.876.179 1.295-.043 2.782.064 4.169.097 1.257.5 2.562.642 3.977.138 1.378.088 2.868.192 4.425.068 1.004.246 2.136.321 3.206.078 1.123.192 2.211.321 3.207.129.998.361 1.835.514 3.015.075.582-.041 2.942.64 2.95.878.011.437-2.581.386-2.95-.323-2.332-.786-3.934-.898-6.285-.057-1.19-.26-2.333-.321-3.336-.104-1.712-.072-3.277-.256-4.745-.191-1.524-.541-2.942-.641-4.426-.061-.903-.07-2.4.321-2.822 1.779.493 3.28 1.555 4.745 2.565 1.452 1.001 2.989 1.946 4.554 2.822 2.389 1.338 4.963 2.318 7.376 3.592.608.321 1.221.716 1.731 1.026.198.12.481.144.578.385-4.956-1.598-9.766-3.626-14.238-5.644-.683-.308-1.465-.46-2.116-.769-.298-.142-.499-.525-.897-.449-.38.895-.097 1.785.064 2.501.081.365.078.723.128 1.09.094.696.276 1.385.321 2.118.101 1.664-.118 3.436 0 5.194.188 2.811.99 5.6 1.218 8.017.368.273.376.907 1.026.899.225-.539-.079-1.121-.192-1.668-.126-.604-.145-1.231-.257-1.859-.122-.679-.334-1.321-.45-2.052-.11-.699-.307-1.43-.384-2.181-.159-1.542.061-3.086 0-4.617-.045-1.119-.158-2.319-.257-3.272-.041-.39.001-.809-.064-1.154-.105-.554-.769-1.064-.449-1.732 2.067.747 4.081 1.808 6.029 2.629.714.302 1.463.476 2.18.769.508.209.954.576 1.475.771.735.275 1.508.469 2.244.769.742.302 1.516.471 2.245.769.479.197.918.451 1.411.643 1.498.58 2.996 1.192 4.489 1.795.508.901.131 2.085.449 3.015.048.14.221.273.321.448.346.604.585.931 1.219 1.219.458.209 1.097.371 1.667.257.003-.445-.579-.659-.962-.898-.433-.27-.902-.519-1.219-.834-.301-.617-.217-1.462-.321-2.308-.056-.459-.239-.914-.128-1.283 1.332.324 2.477 1.395 4.041 1.283 1.161-.084 2.488-.734 3.784-1.091 1.297-.358 2.486-.892 3.527-1.346 2.365-1.035 4.794-1.875 6.991-2.823 2.318-1.001 4.583-2.046 6.862-2.887 1.81-.666 3.579-1.342 5.323-1.987 1.142-.422 2.161-1.057 3.4-1.154.07.422.054.928.192 1.283-1.936.745-4.269 1.927-6.349 2.693-1.71.631-3.978.948-4.489 2.629-.057.516.176.975 0 1.41-1.017-.184-2.62.164-2.822.77-.082.248.059.512 0 .835.74.05 1.453-.249 2.052-.129.006.37.014.741-.064 1.027-.298.163-.419.567-.833.706-.319.105-.841-.143-1.027.257.077.695.894.655 1.476.512.455-.113.745-.54 1.026-.385.104.586-.141 1.258-.321 1.861-.163.545-.21 1.378-.833 1.474.097-.27.226-.647.321-1.026.083-.337.354-.864-.064-1.091-.239.015-.338.289-.45.45-.426.616-.611 1.272-1.603 1.282-.009-.205-.145-.282-.385-.257-.559-1.215-.55-3.688-.321-5.131.047-.298.059-.699.128-.898.205-.583.898-.64.898-1.218-.543-.523-1.248-.142-1.797.065-2.947 1.116-5.87 2.386-8.785 3.399-1.169.407-2.371.829-3.207 1.668.131.503.342.707.321 1.026-.036.518-1.022 1.716-1.411 1.988-.277.195-1.105.31-1.026.77.162.933 1.765-.256 1.924-.385.634-.514.993-1.049 1.411-1.603-.032-.802.026-1.514.385-1.923 1.553-.413 2.949-1.172 4.426-1.668 1.498-.504 2.935-1.14 4.489-1.604.427.741.257 1.664.257 2.565 0 .974-.146 2.089 0 2.886.192 1.049 1.245 2.207 2.372 2.245.951.032 1.174-.565 1.86-.769.352-.105.678.004.962-.129 1.26-.585 1.333-3.263 1.539-4.939.078-.639.198-1.229.257-1.859.262.254.537.157.834.129 1.288-.124 2.531-.782 3.784-1.282.956-.383 1.924-.713 2.758-1.092.269-.122.672-.238.706-.576-.307-.148-.728-.05-1.026 0-2.63.445-4.397 1.937-7.055 2.244-.132-.509-.257-1.026-.192-1.731.362-.42.774-.581 1.539-.899.422-.174.906-.318 1.283-.449 2.247-.771 4.145-1.662 6.156-2.565.443-.199 1.086-.526 1.283-.513.473.03.821.642 1.218.898.46.296.784.227 1.155.513-1.251 4.372-2.271 8.974-3.463 13.404-.45.78-1.339 1.129-1.925 1.796-.298.34-.484.804-.705 1.218-.219.409-.541.819-.706 1.282-.752-.385-1.23-.068-1.925.193-1.956.736-3.644 1.445-5.322 2.245-.688.327-1.434.689-2.181.705.126-1.201.256-2.548.256-3.976 0-.915.116-1.875 0-2.5-.06-.324-.301-.905-.705-.963.17 1.363-.032 2.995-.065 4.618-.024 1.198.114 2.398-.257 3.335-4.185 2.163-9.066 3.631-13.275 5.772-.233.027-.043.43-.128.449-.269-.137-.507-.305-.833-.385-.408-1.76-.064-3.999-.064-6.221 0-1.075-.09-2.169-.064-3.207.027-1.115.16-2.195.129-3.143-.024-.719-.301-1.473-.77-1.668-.295.587-.022 1.285-.064 1.924-.024.365-.165.72-.192 1.09-.07.918.101 1.866.128 2.822.08 2.891-.316 5.806-.193 8.658.742.497 1.958.522 2.373 1.347-.467.44-1.295.633-2.052.897-.776.273-1.587.634-2.373.641-1.135.011-1.698-.514-2.309-.962-.251-.183-.656-.334-.706-.641.441-.518 1.038-.998 1.668-1.346.367-.203.964-.209 1.09-.707-.466-.439-1.054-.202-1.476 0-.444.214-.968.472-1.347.707-.432.267-.588.646-1.026.704-.788.107-1.829-.629-2.501-.961-.867-.429-1.684-.809-2.372-1.155-1.232-.618-2.411-1.088-3.592-1.668-.342-.168-.822-.321-.962-.704 2.691.589 4.993 1.69 7.183 2.693.757.346 1.567.751 2.437.77.044-.556-.388-.638-.513-1.026-2.77-1.361-5.996-2.431-9.171-3.528-1.62-.559-3.273-.894-4.746-1.603-1.145-.551-2.168-1.036-3.079-1.668-.268-.187-.584-.509-.961-.512-.307.114-.005.782-.065.832-.781-.223-1.143-.864-1.987-1.025-.148-.021-.072.185-.193.193-.068.304.156.441.257.576.583.781 1.786 1.145 2.887 1.604.843.352 1.612.888 2.372 1.282.816.423 1.74.705 2.565 1.09 3.295 1.538 6.584 3.319 9.748 4.875.872.429 1.825.728 2.502 1.218.474.345.975.988 1.475 1.219.508.235 1.615.489 2.117.577 1.585.276 2.355-.304 3.719-.706 1.336-.394 2.707-.799 3.784-1.283 1.352-.606 2.737-1.113 4.169-1.603 1.43-.489 2.921-.927 4.168-1.539 2.196-1.077 4.369-2.042 6.478-3.078.871-.429 1.74-.807 2.565-1.284.851-.491 1.784-.806 2.565-1.282.617-.375 1.124-1.011 1.924-1.091.395-1.171 1.988-1.591 2.501-2.693.219-.469.126-.902.257-1.668.144-.841.6-1.726.897-2.693.587-1.907.882-4.007 1.412-5.9.42-1.501.775-2.981 1.218-4.298.275-.817.387-1.671.706-2.244.219-.394.54-.633.641-1.026.084-.323.021-.931.064-1.283.056-.458.274-1.098.449-1.604.201-.583.564-1.103.513-1.603-.061-.562-.883-1.467-1.351-1.73zm-21.933-16.034c.377-.438 1.494-1.039 1.924-.257-.215 1.131-.809 1.885-1.924 2.117-.298-.657-.429-1.362 0-1.86zm2.053 34.247c.447.493.686 1.196 1.603 1.218-.711.246-1.671-.267-1.603-1.218zm7.887 9.812c-1.26.687-2.661 1.253-4.041 1.989-1.345.717-2.726 1.352-4.104 1.988-.465.215-.99.352-1.476.577-.91.422-1.803.931-2.758 1.282-1.981.728-4.045 1.246-6.028 2.052-.375-.18-.776-.336-.962-.705 2.102-.743 4.162-1.697 6.221-2.565.701-.295 1.416-.491 2.116-.77 1.122-.449 2.225-1.042 3.335-1.54.565-.253 1.168-.439 1.732-.705.546-.258 1.053-.628 1.603-.833.32-.12.658-.132.961-.257.427-.177.783-.507 1.218-.705.44-.2.941-.286 1.411-.513.877-.423 1.76-.734 2.758-1.09.627-.223 1.144-.452 1.667-.707-.808 1.318-2.254 1.741-3.653 2.502zm5.067-3.463c-.116-.741.654-1.138.898-1.731.736.506-.285 1.558-.898 1.731z"/></g><path d="m98.466 18.545c3.91-5.291 8.114-10.337 12.606-15.142.329-.352-.2-.884-.53-.53-4.536 4.852-8.776 9.953-12.723 15.294-.287.388.363.763.647.378z" fill="#282f39"/><path d="m101.12 25.218c3.966-2.278 7.899-4.615 11.865-6.893.418-.24.041-.889-.379-.648-3.966 2.278-7.899 4.615-11.865 6.893-.418.241-.041.889.379.648z" fill="#282f39"/><path d="m104.041 30.16c7.683-.356 15.298-1.473 23.004-1.158.483.02.482-.73 0-.75-7.705-.315-15.321.802-23.004 1.158-.48.022-.483.772 0 .75z" fill="#282f39"/><path d="m104.696 34.613c5.493 1.644 11.036 3.094 16.63 4.35.47.106.671-.617.199-.723-5.594-1.256-11.137-2.706-16.63-4.35-.463-.139-.661.585-.199.723z" fill="#282f39"/><path d="m52.727 51.543c2.829 1.789 5.842 2.108 9.057 2.793 4.559.971 8.69 2.827 12.589 5.361.336-1.242.673-2.485 1.009-3.727-5.012-.489-10.025-.977-15.037-1.466-2.058-.201-2.605 2.777-1.009 3.727 3.842 2.288 7.85 3.975 12.171 5.123 2.52.669 3.457-2.995 1.063-3.857-4.859-1.75-9.792-2.758-14.937-3.138-1.635-.121-2.769 2.347-1.414 3.414 3.455 2.723 6.994 4.171 11.385 4.613 2.27.228 2.674-3.374.532-3.929-3.787-.981-7.335-1.185-11.2-.559-1.761.285-1.856 2.852-.478 3.655 3.202 1.867 6.471 3.516 9.876 4.981.514-1.219 1.027-2.437 1.541-3.656-2.613-.669-5.05-.979-7.742-.977-2.07.002-2.607 2.653-1.009 3.727 3.557 2.391 7.271 4.227 11.299 5.671.354-1.286.709-2.571 1.063-3.857-2.264-.741-4.527-1.482-6.791-2.223-1.828-.598-3.506 2.066-1.946 3.343 3.245 2.655 6.672 4.451 10.741 5.479 2.497.63 3.562-3.226 1.063-3.857-3.381-.854-6.27-2.236-8.976-4.45-.649 1.114-1.297 2.229-1.946 3.343 2.264.741 4.527 1.482 6.791 2.223 2.467.807 3.462-2.997 1.063-3.857-3.709-1.329-7.078-3.073-10.343-5.267-.336 1.242-.673 2.485-1.009 3.727 2.304-.002 4.447.262 6.679.834 2.103.538 3.693-2.729 1.541-3.656-3.405-1.466-6.673-3.114-9.876-4.981-.159 1.219-.319 2.437-.478 3.656 3.163-.513 5.983-.242 9.073.559.177-1.31.354-2.619.532-3.929-3.256-.328-5.97-1.403-8.556-3.441-.471 1.138-.943 2.276-1.414 3.414 4.807.355 9.346 1.364 13.874 2.995.354-1.286.709-2.571 1.063-3.857-4.004-1.064-7.656-2.6-11.215-4.719-.336 1.242-.673 2.485-1.009 3.727 5.012.489 10.025.977 15.037 1.466 2.111.206 2.53-2.739 1.009-3.727-3.223-2.094-6.612-3.786-10.291-4.922-3.741-1.156-7.993-1.105-11.355-3.232-2.183-1.381-4.192 2.079-2.02 3.453z" fill="#252525"/><path d="m66.804 64.732c1.772 1.97 4.133 3.03 6.737 3.323 1.075.121 2-1.006 2-2 0-1.182-.922-1.879-2-2-1.55-.174-2.885-1.014-3.908-2.151-1.726-1.918-4.548.919-2.829 2.828z" fill="#252525"/><path d="m68.291 62.299c2.231.208 4.442.775 6.493 1.684 2.332 1.034 4.37-2.411 2.019-3.454-2.74-1.215-5.527-1.952-8.512-2.23-2.562-.239-2.545 3.762 0 4z" fill="#252525"/><path d="m71.01 70.274c1.165.67 2.33 1.34 3.494 2.01 2.235 1.286 4.252-2.17 2.019-3.454-1.165-.67-2.33-1.34-3.494-2.01-2.236-1.286-4.253 2.169-2.019 3.454z" fill="#252525"/><path d="m65.052 66.68c-3.274.284-6.112-1.95-9.253-2.547-2.516-.478-3.593 3.376-1.063 3.857 3.545.674 6.579 3.014 10.316 2.69 2.546-.221 2.569-4.223 0-4z" fill="#252525"/><path d="m70.588 54.294c-5.244-2.037-10.58-3.752-16.029-5.152-2.495-.641-3.559 3.216-1.063 3.857 5.449 1.4 10.785 3.115 16.029 5.152 2.401.933 3.441-2.933 1.063-3.857z" fill="#252525"/><path d="m58.599 54.27c-.998-.421-1.997-.841-2.995-1.262-.967-.407-2.242.438-2.46 1.397-.267 1.172.361 2.024 1.397 2.46.998.421 1.997.841 2.995 1.262.967.407 2.242-.438 2.46-1.397.267-1.171-.361-2.024-1.397-2.46z" fill="#252525"/><path d="m81.62 11.257c-.313 4.411-.461 8.824-.443 13.245.011 2.573 4.011 2.578 4 0-.018-4.422.129-8.835.443-13.245.182-2.569-3.819-2.557-4 0z" fill="#252525"/><path d="m82.112 19.035c.7 2.011 1.58 3.929 2.686 5.749 1.335 2.197 4.787.194 3.454-2.019-1.451-2.409-1.952-4.966-1.633-7.754.292-2.553-3.71-2.532-4 0-.393 3.428.401 6.823 2.179 9.773 1.151-.673 2.303-1.346 3.454-2.019-.928-1.528-1.695-3.104-2.283-4.793-.841-2.416-4.707-1.377-3.857 1.063z" fill="#252525"/><path d="m80.809 18.501c-.009 1.205-.232 2.391-.745 3.488-.457.978-.274 2.156.718 2.736.867.507 2.277.265 2.736-.718.819-1.751 1.276-3.568 1.291-5.507.02-2.573-3.98-2.576-4 .001z" fill="#252525"/><path d="m50.782 50.236c1.844.895 3.687 1.79 5.531 2.686.971.472 2.162.265 2.736-.718.513-.878.258-2.263-.718-2.736-1.844-.895-3.687-1.79-5.531-2.686-.971-.472-2.162-.265-2.736.718-.513.877-.258 2.262.718 2.736z" fill="#252525"/><path d="m41.75 22.503c.137 2.954.537 5.878 1.201 8.76.578 2.507 4.435 1.446 3.857-1.063-.586-2.542-.937-5.09-1.058-7.697-.119-2.563-4.12-2.577-4 0z" fill="#252525"/><path d="m96.022 45.673c.209-.121.422-.233.639-.338-.312.151.086-.033.193-.07.4-.138.81-.236 1.227-.307 1.034-.176 1.706-1.504 1.397-2.46-.361-1.116-1.352-1.585-2.46-1.397-1.061.18-2.085.58-3.015 1.119-.905.525-1.301 1.831-.717 2.736.588.913 1.767 1.279 2.736.717z" fill="#252525"/><path d="m99.545 42.501c2.574 0 2.578-4 0-4-2.574 0-2.578 4 0 4z" fill="#252525"/><path d="m81.045 28.001c2.574 0 2.578-4 0-4-2.574 0-2.578 4 0 4z" fill="#252525"/><path d="m83.795 11.751c2.574 0 2.578-4 0-4-2.574 0-2.578 4 0 4z" fill="#252525"/><path d="m63.978 5.244c-.078.667-.156 1.335-.234 2.002-.122 1.043 1.007 2.044 2 2 1.188-.053 1.87-.883 2-2 .078-.667.156-1.335.234-2.002.122-1.043-1.007-2.044-2-2-1.187.053-1.869.882-2 2z" fill="#252525"/><path d="m73.052 64.502c-.101 1.832-.202 3.665-.304 5.497-.142 2.572 3.858 2.564 4 0 .101-1.832.202-3.665.304-5.497.142-2.572-3.859-2.564-4 0z" fill="#252525"/><path d="m52.183 47.456c4.749 2.157 9.474 4.364 14.176 6.62 2.31 1.109 4.341-2.339 2.019-3.454-4.702-2.257-9.428-4.463-14.176-6.62-2.326-1.057-4.362 2.39-2.019 3.454z" fill="#252525"/><path d="m49.78 45.487c-.208-.17-.233-.178-.075-.027-.159-.216-.181-.23-.067-.044-.099-.256-.117-.279-.052-.067-.028-.292-.038-.324-.031-.097.003 1.046.918 2.048 2 2 1.081-.048 2.003-.879 2-2-.004-1.365-.675-2.438-1.756-3.219-.851-.615-2.265-.175-2.736.718-.547 1.035-.191 2.08.717 2.736z" fill="#252525"/><path d="m51.463 55.089c2.916 1.907 5.933 3.63 9.057 5.173 2.3 1.136 4.33-2.313 2.019-3.454-3.124-1.542-6.141-3.266-9.057-5.173-2.161-1.413-4.167 2.049-2.019 3.454z" fill="#252525"/><path d="m55.506 61.952c2.9 1.041 5.756 2.183 8.567 3.446 2.329 1.046 4.366-2.4 2.019-3.454-3.126-1.404-6.297-2.692-9.522-3.849-2.428-.871-3.473 2.993-1.064 3.857z" fill="#252525"/><path d="m51.034 64.731c3.002 2.192 6.253 3.893 9.729 5.201 2.412.908 3.454-2.957 1.063-3.857-3.149-1.185-6.059-2.815-8.773-4.798-2.082-1.52-4.08 1.949-2.019 3.454z" fill="#252525"/><path d="m50.771 58.51c4.265 2.047 8.672 3.696 13.247 4.904 2.491.658 3.554-3.199 1.063-3.857-4.243-1.121-8.334-2.601-12.292-4.501-2.309-1.109-4.341 2.339-2.018 3.454z" fill="#252525"/><path d="m63.762 73.262c1.159.819 2.42 1.434 3.749 1.926.983.364 2.235-.406 2.46-1.397.258-1.133-.345-2.071-1.397-2.46-.872-.323-1.906-.895-2.794-1.523-.882-.624-2.224-.158-2.736.718-.586 1.001-.167 2.111.718 2.736z" fill="#252525"/><path d="m90.878 56.753c.163 1.24.418 2.908 1.304 3.873.996 1.085 2.466.625 3.495-.131.438-.322.646-.864.359-1.368-.246-.432-.934-.678-1.368-.359-.241.177-.55.474-.857.504-.241.023-.203-.061-.32-.317-.312-.685-.514-1.458-.612-2.203-.071-.54-.409-.994-1-1-.487-.004-1.072.466-1.001 1.001z" fill="#252525"/><path d="m95.419 58.894c-.617.388-1.233.777-1.85 1.165-1.086.684-.084 2.416 1.009 1.727.617-.388 1.233-.777 1.85-1.165 1.087-.685.084-2.416-1.009-1.727z" fill="#252525"/><path d="m109.545 49.376c1.287 0 1.289-2 0-2-1.287 0-1.289 2 0 2z" fill="#252525"/><path d="m108.871 48.137c-1.796 5.844-3.068 11.798-3.838 17.863-.081.637.92.631 1 0 .759-5.974 2.034-11.841 3.802-17.597.19-.617-.775-.881-.964-.266z" fill="#252525"/><path d="m107.497 47.747c.271.377.394.781.301 1.243-.125.628.838.897.964.266.143-.716.028-1.414-.402-2.014-.371-.518-1.239-.019-.863.505z" fill="#252525"/></svg>