<svg width="47" height="42" viewBox="0 0 47 42" fill="none" xmlns="http://www.w3.org/2000/svg">
<path d="M16.1706 39.1463H11.4244C11.2639 39.1463 11.1339 39.2764 11.1339 39.4368V39.4368C11.1339 39.5973 11.2639 39.7273 11.4244 39.7273L35.2853 39.7289C35.4465 39.729 35.5771 39.5983 35.5771 39.4371V39.4371C35.5771 39.2759 35.4465 39.1452 35.2853 39.1452H30.5444M16.1706 39.1463L17.4863 32.5579M16.1706 39.1463L30.5444 39.1452M17.4863 32.5579H6.13574C3.9266 32.5579 2.13574 30.767 2.13574 28.5579V24.1531M17.4863 32.5579L29.2327 32.5707M29.2327 32.5707L40.5629 32.6055C42.7768 32.6123 44.5752 30.8195 44.5752 28.6056V24.1531M29.2327 32.5707L30.5444 39.1452M2.13574 24.1531V6.42386C2.13574 4.21473 3.9266 2.42386 6.13574 2.42386L40.5752 2.42386C42.7843 2.42386 44.5752 4.21472 44.5752 6.42386V24.1531M2.13574 24.1531H23.3555H44.5752" stroke="white" stroke-width="3"/>
<circle cx="23.3553" cy="28.2577" r="1.63361" fill="white"/>
</svg>
