<svg width="2010" height="133" viewBox="0 0 2010 133" fill="none" xmlns="http://www.w3.org/2000/svg">
<path d="M0.115 29.22V89.28C0.115 107.76 9.85 118.32 27.67 118.32C45.49 118.32 55.225 107.76 55.225 89.28V29.22C55.225 10.74 45.49 0.179999 27.67 0.179999C9.85 0.179999 0.115 10.74 0.115 29.22ZM18.265 90.435V28.065C18.265 19.815 21.895 16.68 27.67 16.68C33.445 16.68 37.075 19.815 37.075 28.065V90.435C37.075 98.685 33.445 101.82 27.67 101.82C21.895 101.82 18.265 98.685 18.265 90.435ZM67.1849 117H95.8949C114.045 117 123.285 106.935 123.285 88.455V76.08C123.285 57.6 114.045 47.535 95.8949 47.535H85.3349V18H118.005V1.49999H67.1849V117ZM95.8949 100.5H85.3349V64.035H95.8949C101.67 64.035 105.135 66.675 105.135 74.925V89.61C105.135 97.86 101.67 100.5 95.8949 100.5ZM188.136 73.935H170.976V90.435C170.976 98.685 167.346 101.655 161.571 101.655C155.796 101.655 152.166 98.685 152.166 90.435V28.065C152.166 19.815 155.796 16.68 161.571 16.68C167.346 16.68 170.976 19.815 170.976 28.065V40.44H188.136V29.22C188.136 10.74 178.896 0.179999 161.076 0.179999C143.256 0.179999 134.016 10.74 134.016 29.22V89.28C134.016 107.76 143.256 118.32 161.076 118.32C178.896 118.32 188.136 107.76 188.136 89.28V73.935ZM239.409 87.63L258.879 1.49999H239.904L231.654 41.1L227.364 67.995L221.754 40.935L211.854 1.49999H193.869L218.949 90.6L218.784 91.59C217.299 100.005 212.019 101.655 202.779 100.995V117.165C228.024 118.815 235.119 108.42 239.409 87.63ZM318.972 132.51H336.957V100.83H329.037V1.49999H278.217L274.092 85.815C273.762 92.58 272.772 96.87 269.637 100.83H262.542V132.51H280.197V117H318.972V132.51ZM291.912 85.485L295.212 18H310.557V100.83H286.797C289.767 98.025 291.417 94.23 291.912 85.485ZM365.714 117L380.894 64.035L388.319 35.655V117H404.654V1.49999H384.689L369.839 49.185L363.239 74.595V1.49999H347.069V117H365.714ZM412.204 1.49999V18H431.179V117H449.329V18H468.304V1.49999H412.204ZM476.297 117H503.027C521.177 117 530.087 106.935 530.087 88.455V73.44C530.087 54.96 521.177 44.895 503.027 44.895H494.447V1.49999H476.297V117ZM503.027 100.5H494.447V61.395H503.027C508.802 61.395 511.937 64.035 511.937 72.285V89.61C511.937 97.86 508.802 100.5 503.027 100.5ZM584.682 117V18H605.307V117H623.787V1.49999H566.532V117H584.682ZM663.677 1.49999H636.947V117H655.097V73.605H663.677C681.827 73.605 690.737 63.54 690.737 45.06V30.045C690.737 11.565 681.827 1.49999 663.677 1.49999ZM655.097 18H663.677C669.452 18 672.587 20.64 672.587 28.89V46.215C672.587 54.465 669.452 57.105 663.677 57.105H655.097V18ZM697.659 29.22V89.28C697.659 107.76 707.394 118.32 725.214 118.32C743.034 118.32 752.769 107.76 752.769 89.28V29.22C752.769 10.74 743.034 0.179999 725.214 0.179999C707.394 0.179999 697.659 10.74 697.659 29.22ZM715.809 90.435V28.065C715.809 19.815 719.439 16.68 725.214 16.68C730.989 16.68 734.619 19.815 734.619 28.065V90.435C734.619 98.685 730.989 101.82 725.214 101.82C719.439 101.82 715.809 98.685 715.809 90.435ZM782.714 50.175V18H814.064V1.49999H764.564V117H814.064V100.5H782.714V66.675H807.629V50.175H782.714ZM849.071 70.965L866.726 117H885.371L860.126 52.98L885.371 1.49999H867.221L843.461 51.825V1.49999H825.311V117H843.461V81.525L849.071 70.965ZM888.351 1.49999V18H907.326V117H925.476V18H944.451V1.49999H888.351ZM1017.83 1.49999L972.29 117H987.965L1033.5 1.49999H1017.83ZM1065.04 29.22V89.28C1065.04 107.76 1074.78 118.32 1092.6 118.32C1110.42 118.32 1120.15 107.76 1120.15 89.28V29.22C1120.15 10.74 1110.42 0.179999 1092.6 0.179999C1074.78 0.179999 1065.04 10.74 1065.04 29.22ZM1083.19 90.435V28.065C1083.19 19.815 1086.82 16.68 1092.6 16.68C1098.37 16.68 1102 19.815 1102 28.065V90.435C1102 98.685 1098.37 101.82 1092.6 101.82C1086.82 101.82 1083.19 98.685 1083.19 90.435ZM1132.11 117H1160.82C1178.97 117 1188.21 106.935 1188.21 88.455V76.08C1188.21 57.6 1178.97 47.535 1160.82 47.535H1150.26V18H1182.93V1.49999H1132.11V117ZM1160.82 100.5H1150.26V64.035H1160.82C1166.6 64.035 1170.06 66.675 1170.06 74.925V89.61C1170.06 97.86 1166.6 100.5 1160.82 100.5ZM1253.06 73.935H1235.9V90.435C1235.9 98.685 1232.27 101.655 1226.5 101.655C1220.72 101.655 1217.09 98.685 1217.09 90.435V28.065C1217.09 19.815 1220.72 16.68 1226.5 16.68C1232.27 16.68 1235.9 19.815 1235.9 28.065V40.44H1253.06V29.22C1253.06 10.74 1243.82 0.179999 1226 0.179999C1208.18 0.179999 1198.94 10.74 1198.94 29.22V89.28C1198.94 107.76 1208.18 118.32 1226 118.32C1243.82 118.32 1253.06 107.76 1253.06 89.28V73.935ZM1304.34 87.63L1323.81 1.49999H1304.83L1296.58 41.1L1292.29 67.995L1286.68 40.935L1276.78 1.49999H1258.8L1283.88 90.6L1283.71 91.59C1282.23 100.005 1276.95 101.655 1267.71 100.995V117.165C1292.95 118.815 1300.05 108.42 1304.34 87.63ZM1383.9 132.51H1401.88V100.83H1393.96V1.49999H1343.14L1339.02 85.815C1338.69 92.58 1337.7 96.87 1334.56 100.83H1327.47V132.51H1345.12V117H1383.9V132.51ZM1356.84 85.485L1360.14 18H1375.48V100.83H1351.72C1354.69 98.025 1356.34 94.23 1356.84 85.485ZM1430.64 117L1445.82 64.035L1453.25 35.655V117H1469.58V1.49999H1449.62L1434.77 49.185L1428.17 74.595V1.49999H1412V117H1430.64ZM1477.13 1.49999V18H1496.11V117H1514.26V18H1533.23V1.49999H1477.13ZM1541.22 117H1567.95C1586.1 117 1595.01 106.935 1595.01 88.455V73.44C1595.01 54.96 1586.1 44.895 1567.95 44.895H1559.37V1.49999H1541.22V117ZM1567.95 100.5H1559.37V61.395H1567.95C1573.73 61.395 1576.86 64.035 1576.86 72.285V89.61C1576.86 97.86 1573.73 100.5 1567.95 100.5ZM1649.61 117V18H1670.23V117H1688.71V1.49999H1631.46V117H1649.61ZM1728.6 1.49999H1701.87V117H1720.02V73.605H1728.6C1746.75 73.605 1755.66 63.54 1755.66 45.06V30.045C1755.66 11.565 1746.75 1.49999 1728.6 1.49999ZM1720.02 18H1728.6C1734.38 18 1737.51 20.64 1737.51 28.89V46.215C1737.51 54.465 1734.38 57.105 1728.6 57.105H1720.02V18ZM1762.59 29.22V89.28C1762.59 107.76 1772.32 118.32 1790.14 118.32C1807.96 118.32 1817.7 107.76 1817.7 89.28V29.22C1817.7 10.74 1807.96 0.179999 1790.14 0.179999C1772.32 0.179999 1762.59 10.74 1762.59 29.22ZM1780.74 90.435V28.065C1780.74 19.815 1784.37 16.68 1790.14 16.68C1795.92 16.68 1799.55 19.815 1799.55 28.065V90.435C1799.55 98.685 1795.92 101.82 1790.14 101.82C1784.37 101.82 1780.74 98.685 1780.74 90.435ZM1847.64 50.175V18H1878.99V1.49999H1829.49V117H1878.99V100.5H1847.64V66.675H1872.56V50.175H1847.64ZM1914 70.965L1931.65 117H1950.3L1925.05 52.98L1950.3 1.49999H1932.15L1908.39 51.825V1.49999H1890.24V117H1908.39V81.525L1914 70.965ZM1953.28 1.49999V18H1972.25V117H1990.4V18H2009.38V1.49999H1953.28Z" fill="#212121" fill-opacity="0.22"/>
</svg>
