<svg width="3098" height="322" viewBox="0 0 3098 322" fill="none" xmlns="http://www.w3.org/2000/svg">
<path d="M110.6 212.8L108.649 212.359L108.645 212.377L108.641 212.396L110.6 212.8ZM157.8 3.99998L159.751 4.44096L160.303 1.99998H157.8V3.99998ZM111.8 3.99998V1.99998H110.174L109.842 3.59207L111.8 3.99998ZM91.8 100L89.842 99.5921L89.8324 99.6383L89.825 99.685L91.8 100ZM81.4 165.2L79.4416 165.606L83.375 165.515L81.4 165.2ZM67.8 99.6L69.7584 99.194L69.7499 99.1533L69.7398 99.113L67.8 99.6ZM43.8 3.99998L45.7398 3.513L45.36 1.99998H43.8V3.99998ZM0.2 3.99998V1.99998H-2.44068L-1.72519 4.54189L0.2 3.99998ZM61 220L62.9728 220.329L63.0462 219.888L62.9252 219.458L61 220ZM60.6 222.4L62.5696 222.748L62.5712 222.738L62.5728 222.729L60.6 222.4ZM21.8 245.2L21.9425 243.205L19.8 243.052V245.2H21.8ZM21.8 284.4H19.8V286.274L21.6696 286.396L21.8 284.4ZM112.551 213.241L159.751 4.44096L155.849 3.559L108.649 212.359L112.551 213.241ZM157.8 1.99998H111.8V5.99998H157.8V1.99998ZM109.842 3.59207L89.842 99.5921L93.758 100.408L113.758 4.40789L109.842 3.59207ZM89.825 99.685L79.425 164.885L83.375 165.515L93.775 100.315L89.825 99.685ZM83.3584 164.794L69.7584 99.194L65.8416 100.006L79.4416 165.606L83.3584 164.794ZM69.7398 99.113L45.7398 3.513L41.8602 4.48696L65.8602 100.087L69.7398 99.113ZM43.8 1.99998H0.2V5.99998H43.8V1.99998ZM-1.72519 4.54189L59.0748 220.542L62.9252 219.458L2.12519 3.45808L-1.72519 4.54189ZM59.0272 219.671L58.6272 222.071L62.5728 222.729L62.9728 220.329L59.0272 219.671ZM58.6304 222.052C56.903 231.841 53.0664 237.295 47.3282 240.275C41.4044 243.352 33.0912 244.001 21.9425 243.205L21.6575 247.195C32.9089 247.999 42.1956 247.448 49.1718 243.825C56.3337 240.105 60.697 233.359 62.5696 222.748L58.6304 222.052ZM19.8 245.2V284.4H23.8V245.2H19.8ZM21.6696 286.396C52.5143 288.412 72.7695 283.106 86.5987 270.477C100.351 257.918 107.347 238.459 112.559 213.204L108.641 212.396C103.453 237.541 96.6493 255.882 83.9013 267.523C71.2305 279.094 52.2857 284.388 21.9304 282.404L21.6696 286.396ZM303.881 179.6H305.881V177.6H303.881V179.6ZM262.281 179.6V177.6H260.281V179.6H262.281ZM262.281 98.4H260.281V100.4H262.281V98.4ZM303.881 98.4V100.4H305.881V98.4H303.881ZM303.881 177.6H262.281V181.6H303.881V177.6ZM260.281 179.6V219.6H264.281V179.6H260.281ZM260.281 219.6C260.281 229.353 258.129 235.568 254.658 239.347C251.221 243.089 246.155 244.8 239.481 244.8V248.8C246.807 248.8 253.142 246.911 257.604 242.053C262.033 237.232 264.281 229.846 264.281 219.6H260.281ZM239.481 244.8C232.807 244.8 227.742 243.089 224.304 239.347C220.833 235.568 218.681 229.353 218.681 219.6H214.681C214.681 229.846 216.929 237.232 221.358 242.053C225.821 246.911 232.155 248.8 239.481 248.8V244.8ZM218.681 219.6V68.4H214.681V219.6H218.681ZM218.681 68.4C218.681 58.6483 220.832 52.3205 224.32 48.436C227.768 44.5949 232.836 42.8 239.481 42.8V38.8C232.127 38.8 225.795 40.805 221.343 45.7639C216.93 50.6795 214.681 58.1516 214.681 68.4H218.681ZM239.481 42.8C246.127 42.8 251.195 44.5949 254.643 48.436C258.13 52.3205 260.281 58.6484 260.281 68.4H264.281C264.281 58.1516 262.032 50.6795 257.62 45.7639C253.168 40.805 246.836 38.8 239.481 38.8V42.8ZM260.281 68.4V98.4H264.281V68.4H260.281ZM262.281 100.4H303.881V96.4H262.281V100.4ZM305.881 98.4V71.2H301.881V98.4H305.881ZM305.881 71.2C305.881 48.4917 300.204 30.338 288.756 17.8485C277.281 5.33032 260.282 -1.2 238.281 -1.2V2.8C259.481 2.8 275.282 9.06967 285.807 20.5514C296.358 32.0619 301.881 49.1083 301.881 71.2H305.881ZM238.281 -1.2C216.281 -1.2 199.282 5.33032 187.807 17.8485C176.358 30.338 170.681 48.4917 170.681 71.2H174.681C174.681 49.1083 180.204 32.0619 190.756 20.5514C201.281 9.06967 217.082 2.8 238.281 2.8V-1.2ZM170.681 71.2V216.8H174.681V71.2H170.681ZM170.681 216.8C170.681 239.508 176.358 257.662 187.807 270.151C199.282 282.67 216.281 289.2 238.281 289.2V285.2C217.082 285.2 201.281 278.93 190.756 267.449C180.204 255.938 174.681 238.892 174.681 216.8H170.681ZM238.281 289.2C260.282 289.2 277.281 282.67 288.756 270.151C300.204 257.662 305.881 239.508 305.881 216.8H301.881C301.881 238.892 296.358 255.938 285.807 267.449C275.282 278.93 259.481 285.2 238.281 285.2V289.2ZM305.881 216.8V179.6H301.881V216.8H305.881ZM318.178 244.4V242.4H316.178V244.4H318.178ZM318.178 284.4H316.178V286.4H318.178V284.4ZM388.978 213.2L390.977 213.262L390.977 213.257L388.978 213.2ZM393.778 44V42H391.834L391.779 43.9433L393.778 44ZM432.178 44H434.178V42H432.178V44ZM432.178 284H430.178V286H432.178V284ZM476.978 284V286H478.978V284H476.978ZM476.978 3.99998H478.978V1.99998H476.978V3.99998ZM352.578 3.99998V1.99998H350.645L350.579 3.93197L352.578 3.99998ZM345.378 215.6L343.379 215.532L343.379 215.538L345.378 215.6ZM316.178 244.4V284.4H320.178V244.4H316.178ZM318.178 286.4H324.978V282.4H318.178V286.4ZM324.978 286.4C347.244 286.4 363.52 281.34 374.362 269.341C385.144 257.407 390.172 239.013 390.977 213.262L386.979 213.138C386.184 238.587 381.212 255.793 371.394 266.659C361.636 277.46 346.712 282.4 324.978 282.4V286.4ZM390.977 213.257L395.777 44.0567L391.779 43.9433L386.979 213.143L390.977 213.257ZM393.778 46H432.178V42H393.778V46ZM430.178 44V284H434.178V44H430.178ZM432.178 286H476.978V282H432.178V286ZM478.978 284V3.99998H474.978V284H478.978ZM476.978 1.99998H352.578V5.99998H476.978V1.99998ZM350.579 3.93197L343.379 215.532L347.377 215.668L354.577 4.06799L350.579 3.93197ZM343.379 215.538C342.978 228.587 341.142 234.969 337.608 238.293C335.87 239.928 333.563 240.97 330.37 241.593C327.147 242.223 323.162 242.4 318.178 242.4V246.4C323.194 246.4 327.509 246.227 331.136 245.519C334.793 244.805 337.886 243.522 340.348 241.207C345.214 236.631 346.979 228.613 347.377 215.662L343.379 215.538ZM608.256 212.8L606.305 212.359L606.301 212.377L606.298 212.396L608.256 212.8ZM655.456 3.99998L657.407 4.44096L657.959 1.99998H655.456V3.99998ZM609.456 3.99998V1.99998H607.83L607.498 3.59207L609.456 3.99998ZM589.456 100L587.498 99.5921L587.489 99.6383L587.481 99.685L589.456 100ZM579.056 165.2L577.098 165.606L581.031 165.515L579.056 165.2ZM565.456 99.6L567.415 99.194L567.406 99.1533L567.396 99.113L565.456 99.6ZM541.456 3.99998L543.396 3.513L543.016 1.99998H541.456V3.99998ZM497.856 3.99998V1.99998H495.216L495.931 4.54189L497.856 3.99998ZM558.656 220L560.629 220.329L560.702 219.888L560.581 219.458L558.656 220ZM558.256 222.4L560.226 222.748L560.227 222.738L560.229 222.729L558.256 222.4ZM519.456 245.2L519.599 243.205L517.456 243.052V245.2H519.456ZM519.456 284.4H517.456V286.274L519.326 286.396L519.456 284.4ZM610.207 213.241L657.407 4.44096L653.505 3.559L606.305 212.359L610.207 213.241ZM655.456 1.99998H609.456V5.99998H655.456V1.99998ZM607.498 3.59207L587.498 99.5921L591.414 100.408L611.414 4.40789L607.498 3.59207ZM587.481 99.685L577.081 164.885L581.031 165.515L591.431 100.315L587.481 99.685ZM581.015 164.794L567.415 99.194L563.498 100.006L577.098 165.606L581.015 164.794ZM567.396 99.113L543.396 3.513L539.516 4.48696L563.516 100.087L567.396 99.113ZM541.456 1.99998H497.856V5.99998H541.456V1.99998ZM495.931 4.54189L556.731 220.542L560.581 219.458L499.781 3.45808L495.931 4.54189ZM556.683 219.671L556.283 222.071L560.229 222.729L560.629 220.329L556.683 219.671ZM556.287 222.052C554.559 231.841 550.723 237.295 544.984 240.275C539.061 243.352 530.747 244.001 519.599 243.205L519.314 247.195C530.565 247.999 539.852 247.448 546.828 243.825C553.99 240.105 558.353 233.359 560.226 222.748L556.287 222.052ZM517.456 245.2V284.4H521.456V245.2H517.456ZM519.326 286.396C550.171 288.412 570.426 283.106 584.255 270.477C598.007 257.918 605.004 238.459 610.215 213.204L606.298 212.396C601.109 237.541 594.306 255.882 581.558 267.523C568.887 279.094 549.942 284.388 519.587 282.404L519.326 286.396ZM674.338 284H672.338V286H674.338V284ZM718.338 284V286H720.338V284H718.338ZM718.338 44V42H716.338V44H718.338ZM790.338 44V46H792.338V44H790.338ZM790.338 3.99998H792.338V1.99998H790.338V3.99998ZM674.338 3.99998V1.99998H672.338V3.99998H674.338ZM674.338 286H718.338V282H674.338V286ZM720.338 284V44H716.338V284H720.338ZM718.338 46H790.338V42H718.338V46ZM792.338 44V3.99998H788.338V44H792.338ZM790.338 1.99998H674.338V5.99998H790.338V1.99998ZM672.338 3.99998V284H676.338V3.99998H672.338ZM865.231 284V286H866.739L867.154 284.551L865.231 284ZM902.031 155.6L903.954 156.151L903.96 156.129L903.966 156.106L902.031 155.6ZM920.031 86.8H922.031L918.096 86.2938L920.031 86.8ZM920.031 284H918.031V286H920.031V284ZM959.631 284V286H961.631V284H959.631ZM959.631 3.99998H961.631V1.99998H959.631V3.99998ZM911.231 3.99998V1.99998H909.759L909.322 3.40531L911.231 3.99998ZM875.231 119.6L873.322 119.005L873.307 119.051L873.295 119.097L875.231 119.6ZM859.231 181.2H857.231L861.167 181.703L859.231 181.2ZM859.231 3.99998H861.231V1.99998H859.231V3.99998ZM820.031 3.99998V1.99998H818.031V3.99998H820.031ZM820.031 284H818.031V286H820.031V284ZM867.154 284.551L903.954 156.151L900.109 155.049L863.309 283.449L867.154 284.551ZM903.966 156.106L921.966 87.3062L918.096 86.2938L900.096 155.094L903.966 156.106ZM918.031 86.8V284H922.031V86.8H918.031ZM920.031 286H959.631V282H920.031V286ZM961.631 284V3.99998H957.631V284H961.631ZM959.631 1.99998H911.231V5.99998H959.631V1.99998ZM909.322 3.40531L873.322 119.005L877.141 120.195L913.141 4.59465L909.322 3.40531ZM873.295 119.097L857.295 180.697L861.167 181.703L877.167 120.103L873.295 119.097ZM861.231 181.2V3.99998H857.231V181.2H861.231ZM859.231 1.99998H820.031V5.99998H859.231V1.99998ZM818.031 3.99998V284H822.031V3.99998H818.031ZM820.031 286H865.231V282H820.031V286ZM1098.04 284V286H1099.55L1099.97 284.551L1098.04 284ZM1134.84 155.6L1136.77 156.151L1136.77 156.129L1136.78 156.106L1134.84 155.6ZM1152.84 86.8H1154.84L1150.91 86.2938L1152.84 86.8ZM1152.84 284H1150.84V286H1152.84V284ZM1192.44 284V286H1194.44V284H1192.44ZM1192.44 3.99998H1194.44V1.99998H1192.44V3.99998ZM1144.04 3.99998V1.99998H1142.57L1142.13 3.40531L1144.04 3.99998ZM1108.04 119.6L1106.13 119.005L1106.12 119.051L1106.11 119.097L1108.04 119.6ZM1092.04 181.2H1090.04L1093.98 181.703L1092.04 181.2ZM1092.04 3.99998H1094.04V1.99998H1092.04V3.99998ZM1052.84 3.99998V1.99998H1050.84V3.99998H1052.84ZM1052.84 284H1050.84V286H1052.84V284ZM1099.97 284.551L1136.77 156.151L1132.92 155.049L1096.12 283.449L1099.97 284.551ZM1136.78 156.106L1154.78 87.3062L1150.91 86.2938L1132.91 155.094L1136.78 156.106ZM1150.84 86.8V284H1154.84V86.8H1150.84ZM1152.84 286H1192.44V282H1152.84V286ZM1194.44 284V3.99998H1190.44V284H1194.44ZM1192.44 1.99998H1144.04V5.99998H1192.44V1.99998ZM1142.13 3.40531L1106.13 119.005L1109.95 120.195L1145.95 4.59465L1142.13 3.40531ZM1106.11 119.097L1090.11 180.697L1093.98 181.703L1109.98 120.103L1106.11 119.097ZM1094.04 181.2V3.99998H1090.04V181.2H1094.04ZM1092.04 1.99998H1052.84V5.99998H1092.04V1.99998ZM1050.84 3.99998V284H1054.84V3.99998H1050.84ZM1052.84 286H1098.04V282H1052.84V286ZM1343.26 172.4L1345.12 171.684L1343.55 167.583L1341.49 171.462L1343.26 172.4ZM1386.06 284L1384.19 284.716L1384.68 286H1386.06V284ZM1431.26 284V286H1434.19L1433.12 283.266L1431.26 284ZM1370.06 128.8L1368.26 127.919L1367.87 128.712L1368.2 129.534L1370.06 128.8ZM1431.26 3.99998L1433.05 4.88057L1434.46 1.99998H1431.26V3.99998ZM1387.26 3.99998V1.99998H1385.99L1385.45 3.1461L1387.26 3.99998ZM1329.66 126H1327.66L1331.46 126.854L1329.66 126ZM1329.66 3.99998H1331.66V1.99998H1329.66V3.99998ZM1285.66 3.99998V1.99998H1283.66V3.99998H1285.66ZM1285.66 284H1283.66V286H1285.66V284ZM1329.66 284V286H1331.66V284H1329.66ZM1329.66 198L1327.89 197.062L1327.66 197.502V198H1329.66ZM1341.39 173.116L1384.19 284.716L1387.92 283.284L1345.12 171.684L1341.39 173.116ZM1386.06 286H1431.26V282H1386.06V286ZM1433.12 283.266L1371.92 128.066L1368.2 129.534L1429.4 284.734L1433.12 283.266ZM1371.85 129.681L1433.05 4.88057L1429.46 3.11939L1368.26 127.919L1371.85 129.681ZM1431.26 1.99998H1387.26V5.99998H1431.26V1.99998ZM1385.45 3.1461L1327.85 125.146L1331.46 126.854L1389.06 4.85386L1385.45 3.1461ZM1331.66 126V3.99998H1327.66V126H1331.66ZM1329.66 1.99998H1285.66V5.99998H1329.66V1.99998ZM1283.66 3.99998V284H1287.66V3.99998H1283.66ZM1285.66 286H1329.66V282H1285.66V286ZM1331.66 284V198H1327.66V284H1331.66ZM1331.42 198.938L1345.02 173.338L1341.49 171.462L1327.89 197.062L1331.42 198.938ZM1445.68 71.2V216.8H1449.68V71.2H1445.68ZM1445.68 216.8C1445.68 239.534 1451.67 257.689 1463.43 270.171C1475.2 282.672 1492.48 289.2 1514.48 289.2V285.2C1493.28 285.2 1477.17 278.928 1466.34 267.429C1455.49 255.911 1449.68 238.866 1449.68 216.8H1445.68ZM1514.48 289.2C1536.48 289.2 1553.77 282.672 1565.54 270.171C1577.29 257.689 1583.28 239.534 1583.28 216.8H1579.28C1579.28 238.866 1573.47 255.911 1562.63 267.429C1551.8 278.928 1535.68 285.2 1514.48 285.2V289.2ZM1583.28 216.8V71.2H1579.28V216.8H1583.28ZM1583.28 71.2C1583.28 48.4663 1577.29 30.3108 1565.54 17.8289C1553.77 5.32839 1536.48 -1.2 1514.48 -1.2V2.8C1535.68 2.8 1551.8 9.07159 1562.63 20.5711C1573.47 32.0892 1579.28 49.1337 1579.28 71.2H1583.28ZM1514.48 -1.2C1492.48 -1.2 1475.2 5.32839 1463.43 17.8289C1451.67 30.3108 1445.68 48.4663 1445.68 71.2H1449.68C1449.68 49.1337 1455.49 32.0892 1466.34 20.5711C1477.17 9.07159 1493.28 2.8 1514.48 2.8V-1.2ZM1493.68 219.6V68.4H1489.68V219.6H1493.68ZM1493.68 68.4C1493.68 58.6483 1495.83 52.3205 1499.32 48.436C1502.77 44.5949 1507.84 42.8 1514.48 42.8V38.8C1507.13 38.8 1500.79 40.805 1496.34 45.7639C1491.93 50.6795 1489.68 58.1516 1489.68 68.4H1493.68ZM1514.48 42.8C1521.13 42.8 1526.19 44.5949 1529.64 48.436C1533.13 52.3205 1535.28 58.6484 1535.28 68.4H1539.28C1539.28 58.1516 1537.03 50.6795 1532.62 45.7639C1528.17 40.805 1521.84 38.8 1514.48 38.8V42.8ZM1535.28 68.4V219.6H1539.28V68.4H1535.28ZM1535.28 219.6C1535.28 229.352 1533.13 235.68 1529.64 239.564C1526.19 243.405 1521.13 245.2 1514.48 245.2V249.2C1521.84 249.2 1528.17 247.195 1532.62 242.236C1537.03 237.32 1539.28 229.848 1539.28 219.6H1535.28ZM1514.48 245.2C1507.84 245.2 1502.77 243.405 1499.32 239.564C1495.83 235.68 1493.68 229.352 1493.68 219.6H1489.68C1489.68 229.848 1491.93 237.32 1496.34 242.236C1500.79 247.195 1507.13 249.2 1514.48 249.2V245.2ZM1703.08 202.8L1701.1 203.122L1705.05 203.098L1703.08 202.8ZM1670.68 3.99998L1672.65 3.67827L1672.38 1.99998H1670.68V3.99998ZM1609.48 3.99998V1.99998H1607.48V3.99998H1609.48ZM1609.48 284H1607.48V286H1609.48V284ZM1647.88 284V286H1649.88V284H1647.88ZM1647.88 86L1649.85 85.6731L1645.88 86H1647.88ZM1680.68 284L1678.7 284.327L1678.98 286H1680.68V284ZM1722.28 284V286H1724L1724.25 284.299L1722.28 284ZM1752.68 83.2H1754.68L1750.7 82.9006L1752.68 83.2ZM1752.68 284H1750.68V286H1752.68V284ZM1794.28 284V286H1796.28V284H1794.28ZM1794.28 3.99998H1796.28V1.99998H1794.28V3.99998ZM1733.08 3.99998V1.99998H1731.35L1731.1 3.70155L1733.08 3.99998ZM1705.05 202.478L1672.65 3.67827L1668.7 4.32169L1701.1 203.122L1705.05 202.478ZM1670.68 1.99998H1609.48V5.99998H1670.68V1.99998ZM1607.48 3.99998V284H1611.48V3.99998H1607.48ZM1609.48 286H1647.88V282H1609.48V286ZM1649.88 284V86H1645.88V284H1649.88ZM1645.9 86.3268L1678.7 284.327L1682.65 283.673L1649.85 85.6731L1645.9 86.3268ZM1680.68 286H1722.28V282H1680.68V286ZM1724.25 284.299L1754.65 83.4994L1750.7 82.9006L1720.3 283.701L1724.25 284.299ZM1750.68 83.2V284H1754.68V83.2H1750.68ZM1752.68 286H1794.28V282H1752.68V286ZM1796.28 284V3.99998H1792.28V284H1796.28ZM1794.28 1.99998H1733.08V5.99998H1794.28V1.99998ZM1731.1 3.70155L1701.1 202.502L1705.05 203.098L1735.05 4.29841L1731.1 3.70155ZM1870.28 284V286H1872.28V284H1870.28ZM1870.28 44V42H1868.28V44H1870.28ZM1920.28 44H1922.28V42H1920.28V44ZM1920.28 284H1918.28V286H1920.28V284ZM1965.08 284V286H1967.08V284H1965.08ZM1965.08 3.99998H1967.08V1.99998H1965.08V3.99998ZM1826.28 3.99998V1.99998H1824.28V3.99998H1826.28ZM1826.28 284H1824.28V286H1826.28V284ZM1872.28 284V44H1868.28V284H1872.28ZM1870.28 46H1920.28V42H1870.28V46ZM1918.28 44V284H1922.28V44H1918.28ZM1920.28 286H1965.08V282H1920.28V286ZM1967.08 284V3.99998H1963.08V284H1967.08ZM1965.08 1.99998H1826.28V5.99998H1965.08V1.99998ZM1824.28 3.99998V284H1828.28V3.99998H1824.28ZM1826.28 286H1870.28V282H1826.28V286ZM2040.98 122H2038.98V124H2040.98V122ZM2040.98 44V42H2038.98V44H2040.98ZM2116.98 44V46H2118.98V44H2116.98ZM2116.98 3.99998H2118.98V1.99998H2116.98V3.99998ZM1996.98 3.99998V1.99998H1994.98V3.99998H1996.98ZM1996.98 284H1994.98V286H1996.98V284ZM2116.98 284V286H2118.98V284H2116.98ZM2116.98 244H2118.98V242H2116.98V244ZM2040.98 244H2038.98V246H2040.98V244ZM2040.98 162V160H2038.98V162H2040.98ZM2101.38 162V164H2103.38V162H2101.38ZM2101.38 122H2103.38V120H2101.38V122ZM2042.98 122V44H2038.98V122H2042.98ZM2040.98 46H2116.98V42H2040.98V46ZM2118.98 44V3.99998H2114.98V44H2118.98ZM2116.98 1.99998H1996.98V5.99998H2116.98V1.99998ZM1994.98 3.99998V284H1998.98V3.99998H1994.98ZM1996.98 286H2116.98V282H1996.98V286ZM2118.98 284V244H2114.98V284H2118.98ZM2116.98 242H2040.98V246H2116.98V242ZM2042.98 244V162H2038.98V244H2042.98ZM2040.98 164H2101.38V160H2040.98V164ZM2103.38 162V122H2099.38V162H2103.38ZM2101.38 120H2040.98V124H2101.38V120ZM2131.45 3.99998V1.99998H2129.45V3.99998H2131.45ZM2131.45 44H2129.45V46H2131.45V44ZM2177.45 44H2179.45V42H2177.45V44ZM2177.45 284H2175.45V286H2177.45V284ZM2221.45 284V286H2223.45V284H2221.45ZM2221.45 44V42H2219.45V44H2221.45ZM2267.45 44V46H2269.45V44H2267.45ZM2267.45 3.99998H2269.45V1.99998H2267.45V3.99998ZM2129.45 3.99998V44H2133.45V3.99998H2129.45ZM2131.45 46H2177.45V42H2131.45V46ZM2175.45 44V284H2179.45V44H2175.45ZM2177.45 286H2221.45V282H2177.45V286ZM2223.45 284V44H2219.45V284H2223.45ZM2221.45 46H2267.45V42H2221.45V46ZM2269.45 44V3.99998H2265.45V44H2269.45ZM2267.45 1.99998H2131.45V5.99998H2267.45V1.99998ZM2330.83 122H2328.83V124H2330.83V122ZM2330.83 44V42H2328.83V44H2330.83ZM2406.83 44V46H2408.83V44H2406.83ZM2406.83 3.99998H2408.83V1.99998H2406.83V3.99998ZM2286.83 3.99998V1.99998H2284.83V3.99998H2286.83ZM2286.83 284H2284.83V286H2286.83V284ZM2406.83 284V286H2408.83V284H2406.83ZM2406.83 244H2408.83V242H2406.83V244ZM2330.83 244H2328.83V246H2330.83V244ZM2330.83 162V160H2328.83V162H2330.83ZM2391.23 162V164H2393.23V162H2391.23ZM2391.23 122H2393.23V120H2391.23V122ZM2332.83 122V44H2328.83V122H2332.83ZM2330.83 46H2406.83V42H2330.83V46ZM2408.83 44V3.99998H2404.83V44H2408.83ZM2406.83 1.99998H2286.83V5.99998H2406.83V1.99998ZM2284.83 3.99998V284H2288.83V3.99998H2284.83ZM2286.83 286H2406.83V282H2286.83V286ZM2408.83 284V244H2404.83V284H2408.83ZM2406.83 242H2330.83V246H2406.83V242ZM2332.83 244V162H2328.83V244H2332.83ZM2330.83 164H2391.23V160H2330.83V164ZM2393.23 162V122H2389.23V162H2393.23ZM2391.23 120H2330.83V124H2391.23V120ZM2478.09 284V286H2480.09V284H2478.09ZM2478.09 164V162H2476.09V164H2478.09ZM2528.09 164H2530.09V162H2528.09V164ZM2528.09 284H2526.09V286H2528.09V284ZM2572.89 284V286H2574.89V284H2572.89ZM2572.89 3.99998H2574.89V1.99998H2572.89V3.99998ZM2528.09 3.99998V1.99998H2526.09V3.99998H2528.09ZM2528.09 124V126H2530.09V124H2528.09ZM2478.09 124H2476.09V126H2478.09V124ZM2478.09 3.99998H2480.09V1.99998H2478.09V3.99998ZM2434.09 3.99998V1.99998H2432.09V3.99998H2434.09ZM2434.09 284H2432.09V286H2434.09V284ZM2480.09 284V164H2476.09V284H2480.09ZM2478.09 166H2528.09V162H2478.09V166ZM2526.09 164V284H2530.09V164H2526.09ZM2528.09 286H2572.89V282H2528.09V286ZM2574.89 284V3.99998H2570.89V284H2574.89ZM2572.89 1.99998H2528.09V5.99998H2572.89V1.99998ZM2526.09 3.99998V124H2530.09V3.99998H2526.09ZM2528.09 122H2478.09V126H2528.09V122ZM2480.09 124V3.99998H2476.09V124H2480.09ZM2478.09 1.99998H2434.09V5.99998H2478.09V1.99998ZM2432.09 3.99998V284H2436.09V3.99998H2432.09ZM2434.09 286H2478.09V282H2434.09V286ZM2604.8 3.99998V1.99998H2602.8V3.99998H2604.8ZM2604.8 284H2602.8V286H2604.8V284ZM2720 284H2722V282H2720V284ZM2720 321.6H2718V323.6H2720V321.6ZM2762.8 321.6V323.6H2764.8V321.6H2762.8ZM2762.8 244.8H2764.8V242.8H2762.8V244.8ZM2743.6 244.8H2741.6V246.8H2743.6V244.8ZM2743.6 3.99998H2745.6V1.99998H2743.6V3.99998ZM2698.8 3.99998V1.99998H2696.8V3.99998H2698.8ZM2698.8 244V246H2700.8V244H2698.8ZM2648.8 244H2646.8V246H2648.8V244ZM2648.8 3.99998H2650.8V1.99998H2648.8V3.99998ZM2602.8 3.99998V284H2606.8V3.99998H2602.8ZM2604.8 286H2720V282H2604.8V286ZM2718 284V321.6H2722V284H2718ZM2720 323.6H2762.8V319.6H2720V323.6ZM2764.8 321.6V244.8H2760.8V321.6H2764.8ZM2762.8 242.8H2743.6V246.8H2762.8V242.8ZM2745.6 244.8V3.99998H2741.6V244.8H2745.6ZM2743.6 1.99998H2698.8V5.99998H2743.6V1.99998ZM2696.8 3.99998V244H2700.8V3.99998H2696.8ZM2698.8 242H2648.8V246H2698.8V242ZM2650.8 244V3.99998H2646.8V244H2650.8ZM2648.8 1.99998H2604.8V5.99998H2648.8V1.99998ZM2832.03 284V286H2833.54L2833.95 284.551L2832.03 284ZM2868.83 155.6L2870.75 156.151L2870.76 156.129L2870.76 156.106L2868.83 155.6ZM2886.83 86.8H2888.83L2884.89 86.2938L2886.83 86.8ZM2886.83 284H2884.83V286H2886.83V284ZM2926.43 284V286H2928.43V284H2926.43ZM2926.43 3.99998H2928.43V1.99998H2926.43V3.99998ZM2878.03 3.99998V1.99998H2876.56L2876.12 3.40531L2878.03 3.99998ZM2842.03 119.6L2840.12 119.005L2840.1 119.051L2840.09 119.097L2842.03 119.6ZM2826.03 181.2H2824.03L2827.96 181.703L2826.03 181.2ZM2826.03 3.99998H2828.03V1.99998H2826.03V3.99998ZM2786.83 3.99998V1.99998H2784.83V3.99998H2786.83ZM2786.83 284H2784.83V286H2786.83V284ZM2833.95 284.551L2870.75 156.151L2866.91 155.049L2830.11 283.449L2833.95 284.551ZM2870.76 156.106L2888.76 87.3062L2884.89 86.2938L2866.89 155.094L2870.76 156.106ZM2884.83 86.8V284H2888.83V86.8H2884.83ZM2886.83 286H2926.43V282H2886.83V286ZM2928.43 284V3.99998H2924.43V284H2928.43ZM2926.43 1.99998H2878.03V5.99998H2926.43V1.99998ZM2876.12 3.40531L2840.12 119.005L2843.94 120.195L2879.94 4.59465L2876.12 3.40531ZM2840.09 119.097L2824.09 180.697L2827.96 181.703L2843.96 120.103L2840.09 119.097ZM2828.03 181.2V3.99998H2824.03V181.2H2828.03ZM2826.03 1.99998H2786.83V5.99998H2826.03V1.99998ZM2784.83 3.99998V284H2788.83V3.99998H2784.83ZM2786.83 286H2832.03V282H2786.83V286ZM3002.73 284V286H3004.24L3004.65 284.551L3002.73 284ZM3039.53 155.6L3041.45 156.151L3041.46 156.129L3041.47 156.106L3039.53 155.6ZM3057.53 86.8H3059.53L3055.6 86.2938L3057.53 86.8ZM3057.53 284H3055.53V286H3057.53V284ZM3097.13 284V286H3099.13V284H3097.13ZM3097.13 3.99998H3099.13V1.99998H3097.13V3.99998ZM3048.73 3.99998V1.99998H3047.26L3046.82 3.40531L3048.73 3.99998ZM3012.73 119.6L3010.82 119.005L3010.81 119.051L3010.8 119.097L3012.73 119.6ZM2996.73 181.2H2994.73L2998.67 181.703L2996.73 181.2ZM2996.73 3.99998H2998.73V1.99998H2996.73V3.99998ZM2957.53 3.99998V1.99998H2955.53V3.99998H2957.53ZM2957.53 284H2955.53V286H2957.53V284ZM3004.65 284.551L3041.45 156.151L3037.61 155.049L3000.81 283.449L3004.65 284.551ZM3041.47 156.106L3059.47 87.3062L3055.6 86.2938L3037.6 155.094L3041.47 156.106ZM3055.53 86.8V284H3059.53V86.8H3055.53ZM3057.53 286H3097.13V282H3057.53V286ZM3099.13 284V3.99998H3095.13V284H3099.13ZM3097.13 1.99998H3048.73V5.99998H3097.13V1.99998ZM3046.82 3.40531L3010.82 119.005L3014.64 120.195L3050.64 4.59465L3046.82 3.40531ZM3010.8 119.097L2994.8 180.697L2998.67 181.703L3014.67 120.103L3010.8 119.097ZM2998.73 181.2V3.99998H2994.73V181.2H2998.73ZM2996.73 1.99998H2957.53V5.99998H2996.73V1.99998ZM2955.53 3.99998V284H2959.53V3.99998H2955.53ZM2957.53 286H3002.73V282H2957.53V286Z" fill="white"/>
</svg>
